# Created by meshio v5.3.5, 2025-09-16T09:26:06.116422
v 1.152572 1.006485 1.720652
v 1.152492 1.052517 1.759137
v 1.152301 1.021301 1.704013
v 1.152225 1.067215 1.74282
v 1.151649 1.060852 1.668093
v 1.151641 1.103205 1.71125
v 1.151008 1.105315 1.638469
v 1.15107 1.143793 1.685862
v 1.150391 1.153698 1.615803
v 1.150525 1.187929 1.667315
v 1.149812 1.204918 1.600602
v 1.15002 1.234469 1.656088
v 1.149284 1.257833 1.593204
v 1.149588 1.280211 1.652469
v 1.149082 1.280101 1.592471
v 1.156087 0.9450546 2.072817
v 1.155417 1.001396 2.052197
v 1.15597 0.9380518 2.051666
v 1.155153 0.9889936 2.008019
v 1.153112 1.022852 1.801667
v 1.153317 0.9708372 1.771759
v 1.153366 1.012616 1.821097
v 1.153576 0.9603401 1.79141
v 1.153895 0.9954208 1.865777
v 1.15417 0.9402922 1.840935
v 1.154377 0.9856157 1.912637
v 1.154719 0.9278498 1.892896
v 1.1548 0.9834546 1.960464
v 1.155208 0.9232908 1.946131
v 1.155629 0.926717 1.999451
v 1.155611 1.219326 2.302123
v 1.155021 1.229636 2.243018
v 1.155765 1.197508 2.29761
v 1.155171 1.208155 2.238446
v 1.156075 1.146622 2.281316
v 1.15544 1.162818 2.223061
v 1.156296 1.098732 2.257619
v 1.155622 1.120535 2.200602
v 1.156423 1.054909 2.22705
v 1.155714 1.082402 2.171652
v 1.156454 1.016131 2.190291
v 1.155711 1.049406 2.13696
v 1.156387 0.9832636 2.148164
v 1.15562 1.023398 2.099156
v 1.156331 0.9714932 2.129246
v 1.151619 1.555028 2.179263
v 1.151699 1.508997 2.140778
v 1.15189 1.540213 2.195902
v 1.152259 1.47694 2.173606
v 1.154604 1.281303 2.247447
v 1.15511 1.281413 2.307444
v 1.154403 1.303248 2.246597
v 1.154907 1.30368 2.306711
v 1.153924 1.350541 2.239151
v 1.154379 1.356595 2.299314
v 1.153398 1.396026 2.224216
v 1.1538 1.407816 2.284112
v 1.152838 1.438526 2.202177
v 1.153183 1.456198 2.261446
v 1.152542 1.500662 2.231822
v 1.148104 1.616459 1.827098
v 1.148774 1.560117 1.847718
v 1.148221 1.623462 1.848249
v 1.148891 1.5669 1.868607
v 1.148563 1.634797 1.900464
v 1.149205 1.576248 1.915562
v 1.148983 1.638223 1.953785
v 1.149594 1.577942 1.963408
v 1.149473 1.633664 2.00702
v 1.150048 1.571939 2.010906
v 1.150021 1.621221 2.05898
v 1.150555 1.558396 2.056825
v 1.150616 1.601174 2.108505
v 1.151079 1.538662 2.098248
v 1.150874 1.590676 2.128156
v 1.355972 1.304787 3.024101
v 1.356603 1.226646 3.017404
v 1.356618 1.292529 3.087785
v 1.357249 1.214388 3.081087
v 1.652459 1.067792 2.358708
v 1.651828 1.145933 2.365406
v 1.582799 1.079577 3.004451
v 1.582168 1.157718 3.011148
v 1.650173 1.350912 2.382975
v 1.649542 1.429052 2.389673
v 1.581598 1.228299 3.017198
v 1.580967 1.30644 3.023896
v 1.357176 1.155705 3.011323
v 1.357807 1.077564 3.004625
v 1.357713 1.156956 3.076164
v 1.358343 1.078815 3.069466
v 1.426879 1.077799 2.984598
v 1.421147 1.077818 2.988287
v 1.536485 1.078638 2.977151
v 1.519638 1.078386 2.971927
v 1.513352 1.078315 2.97113
v 1.651374 1.065264 2.227654
v 1.40674 1.077867 2.997559
v 1.40169 1.077912 3.00223
v 1.38911 1.078022 3.013864
v 1.472175 1.077925 2.970079
v 1.210487 1.061385 2.231378
v 1.48953 1.078065 2.969239
v 1.495985 1.078117 2.968926
v 1.465744 1.077896 2.971536
v 1.448911 1.077818 2.975351
v 1.442716 1.077813 2.977951
v 1.384936 1.078091 3.019356
v 1.374538 1.07826 3.033036
v 1.371393 1.07835 3.039145
v 1.577915 1.079462 3.000739
v 1.563706 1.079127 2.989942
v 1.558227 1.079024 2.987122
v 1.542438 1.078726 2.978998
v 1.363488 1.078574 3.054502
v 1.361274 1.078678 3.060943
v 1.648237 1.453827 2.260959
v 1.207349 1.449948 2.264683
v 1.463855 1.311821 2.991587
v 1.470284 1.312143 2.990155
v 1.487637 1.312427 2.989327
v 1.494092 1.312532 2.989019
v 1.511463 1.312241 2.99118
v 1.517751 1.312135 2.991962
v 1.419286 1.308333 3.008045
v 1.425011 1.309071 3.004421
v 1.534607 1.311269 2.997091
v 1.540563 1.310963 2.998904
v 1.556365 1.30954 3.006881
v 1.440838 1.310442 2.99789
v 1.447028 1.310979 2.995336
v 1.56185 1.309046 3.00965
v 1.576077 1.307107 3.020252
v 1.383127 1.302197 3.038565
v 1.387292 1.303265 3.033171
v 1.399852 1.305556 3.021742
v 1.404895 1.306475 3.017154
v 1.359534 1.294162 3.079413
v 1.361737 1.295396 3.073087
v 1.369617 1.298357 3.058003
v 1.372751 1.299535 3.052003
v 1.5205 1.156547 2.978957
v 1.512709 1.156456 2.97788
v 1.651074 1.144176 2.274299
v 1.49688 1.156272 2.975693
v 1.491086 1.142768 2.275651
v 1.535833 1.156779 2.983901
v 1.543222 1.156891 2.986283
v 1.557566 1.157165 2.993868
v 1.564369 1.157295 2.997466
v 1.577303 1.157602 3.007408
v 1.576707 1.228966 3.013554
v 1.562481 1.230905 3.002952
v 1.556996 1.231399 3.000183
v 1.541194 1.232822 2.992206
v 1.49625 1.23439 2.982388
v 1.489277 1.366727 2.294847
v 1.512096 1.234107 2.984448
v 1.649266 1.368135 2.293496
v 1.518382 1.233995 2.985265
v 1.535238 1.233128 2.990393
v 1.489739 1.321689 2.302594
v 1.490836 1.185832 2.29095
v 1.490525 1.230496 2.300629
v 1.490157 1.27603 2.304532
v 1.409283 1.366023 2.295523
v 1.416457 1.229861 3.002934
v 1.215647 1.364319 2.297158
v 1.412236 1.229307 3.005656
v 1.4005 1.227404 3.015105
v 1.393697 1.2263 3.020583
v 1.383785 1.224045 3.031924
v 1.378039 1.222738 3.0385
v 1.370287 1.220206 3.051359
v 1.365757 1.218727 3.058873
v 1.360417 1.216004 3.072816
v 1.417054 1.155959 2.996599
v 1.411092 1.142064 2.276326
v 1.400936 1.156049 3.008832
v 1.217455 1.14036 2.277962
v 1.370616 1.156488 3.045798
v 1.381616 1.156259 3.028735
v 1.384166 1.156229 3.025981
v 1.397954 1.156066 3.011094
v 1.359184 1.156875 3.071277
v 1.360697 1.15682 3.067679
v 1.368553 1.156531 3.048999
v 1.411056 1.148865 2.279162
v 1.409361 1.358839 2.29716
v 1.409889 1.305924 2.304557
v 1.410354 1.252497 2.303985
v 1.410746 1.199751 2.295456
v 1.211905 1.408188 2.283186
v 1.21133 1.414929 2.281039
v 1.650592 0.9310719 1.99527
v 1.651387 1.059264 2.222869
v 1.648146 1.460553 2.257266
v 1.644984 1.625576 2.054799
v 1.646587 1.138472 1.737158
v 1.647128 1.104476 1.765788
v 1.644937 1.194288 1.600013
v 1.646853 1.544568 2.191721
v 1.647505 1.505017 2.227642
v 1.646207 1.578323 2.150307
v 1.645579 1.605528 2.104324
v 1.644818 1.121685 1.510246
v 1.644174 1.20139 1.517078
v 1.645952 1.111132 1.633469
v 1.645971 1.10967 1.634288
v 1.649682 0.9322048 1.888715
v 1.649134 0.9446473 1.836754
v 1.651188 0.9613971 2.097427
v 1.650933 0.9424068 2.047485
v 1.651351 0.9876186 2.143983
v 1.651417 1.020486 2.18611
v 1.642244 1.440506 1.537574
v 1.6416 1.520211 1.544406
v 1.643006 1.433403 1.620508
v 1.642734 1.509658 1.667628
v 1.643946 1.642578 1.949604
v 1.642731 1.510959 1.668684
v 1.643526 1.639151 1.896283
v 1.6427 1.549738 1.705443
v 1.643184 1.627817 1.844068
v 1.642767 1.582605 1.747571
v 1.64293 1.608827 1.794126
v 1.647264 1.025656 1.699832
v 1.646613 1.065207 1.663912
v 1.647911 0.9919004 1.741246
v 1.648539 0.964695 1.787229
v 1.648554 1.35156 2.191962
v 1.649005 1.307802 2.199758
v 1.649727 1.323096 2.301243
v 1.649396 1.263354 2.199836
v 1.647667 1.075968 1.799888
v 1.648187 1.053815 1.83842
v 1.648057 1.393299 2.176687
v 1.647531 1.431751 2.154395
v 1.64699 1.465748 2.125765
v 1.646451 1.494255 2.091665
v 1.644633 1.53909 1.923105
v 1.645007 1.539172 1.967553
v 1.644436 1.638019 2.002839
v 1.645445 1.531534 2.011339
v 1.645931 1.516409 2.053133
v 1.648673 1.038689 1.880214
v 1.64911 1.031052 1.924
v 1.650172 0.9276457 1.941949
v 1.649485 1.031133 1.968448
v 1.649786 1.038932 2.012207
v 1.650145 1.277438 2.303181
v 1.650513 1.231904 2.299278
v 1.649717 1.219568 2.192195
v 1.650824 1.18724 2.289598
v 1.649957 1.177773 2.177066
v 1.650109 1.139239 2.15491
v 1.644332 1.531292 1.879346
v 1.644113 1.516013 1.837606
v 1.643985 1.493719 1.799152
v 1.64395 1.465086 1.765154
v 1.650004 1.05421 2.053947
v 1.650133 1.076505 2.092401
v 1.650168 1.105138 2.1264
v 1.644009 1.430984 1.736643
v 1.644161 1.392451 1.714487
v 1.64308 1.419247 1.614418
v 1.644401 1.350656 1.699358
v 1.64339 1.368361 1.598124
v 1.643782 1.315615 1.589595
v 1.644721 1.306869 1.691717
v 1.644247 1.262188 1.589023
v 1.645113 1.262422 1.691796
v 1.644775 1.209273 1.596421
v 1.645564 1.218664 1.699591
v 1.64606 1.176924 1.714866
v 1.19304 1.429444 1.624309
v 1.195985 1.107173 1.63727
v 1.608272 1.638595 1.997304
v 1.607441 1.637603 2.003136
v 1.156225 0.9570421 2.101609
v 1.340199 0.9586788 2.100046
v 1.349437 0.9607459 2.104182
v 1.353239 0.9614484 2.105501
v 1.365137 0.9636469 2.109628
v 1.381261 0.9659431 2.11368
v 1.384815 0.9663529 2.114372
v 1.386241 0.9664776 2.114571
v 1.401024 0.9677705 2.116638
v 1.417343 0.9684375 2.117474
v 1.420278 0.9684758 2.117472
v 1.436893 0.9682224 2.116589
v 1.453301 0.9671927 2.114244
v 1.45429 0.9670851 2.114012
v 1.469531 0.9654271 2.110438
v 1.479326 0.9640118 2.107394
v 1.487193 0.9626044 2.104307
v 1.495662 0.9610892 2.100985
v 1.274039 0.9391494 2.050651
v 1.282318 0.9420139 2.059751
v 1.294136 0.9459173 2.070619
v 1.295539 0.9463807 2.071909
v 1.309715 0.9507456 2.082783
v 1.319364 0.9534965 2.089108
v 1.322223 0.9542369 2.090699
v 1.334173 0.9573303 2.097348
v 1.246903 0.9296092 2.011832
v 1.240616 0.9275202 1.998724
v 1.239194 0.9270476 1.995759
v 1.250166 0.9307514 2.017351
v 1.255972 0.9327832 2.027168
v 1.266392 0.9364787 2.041728
v 1.269794 0.9376783 2.045942
v 1.270088 0.937782 2.046307
v 1.224262 0.9240105 1.939641
v 1.225201 0.9239976 1.94554
v 1.226367 0.9239817 1.952862
v 1.226952 0.9239737 1.956534
v 1.231067 0.9247311 1.973121
v 1.235463 0.925934 1.986049
v 1.236602 0.9262456 1.989398
v 1.224478 0.9283819 1.892814
v 1.223111 0.926116 1.909354
v 1.22314 0.9252691 1.918861
v 1.223162 0.9246352 1.925978
v 1.237998 0.9402761 1.84261
v 1.234275 0.9373834 1.85257
v 1.232217 0.9357836 1.858078
v 1.227792 0.9319151 1.874108
v 1.227281 0.9314255 1.876402
v 1.225796 0.9298133 1.885096
v 1.224564 0.9284758 1.892308
v 1.260532 0.9551398 1.803576
v 1.253612 0.9508952 1.813414
v 1.248366 0.9474576 1.822254
v 1.245125 0.9453341 1.827715
v 1.239135 0.9410834 1.840232
v 1.319139 0.9831687 1.75271
v 1.314666 0.9815602 1.755114
v 1.152948 0.9875455 1.745427
v 1.300138 0.9755521 1.764694
v 1.297072 0.9741858 1.766969
v 1.291462 0.9715149 1.771642
v 1.283662 0.9678012 1.778139
v 1.271486 0.9614102 1.790348
v 1.271431 0.9613783 1.790416
v 1.267619 0.9591967 1.795018
v 1.499082 0.9900663 1.743258
v 1.497143 0.9905807 1.742525
v 1.483877 0.9940996 1.73751
v 1.483496 0.9942009 1.737366
v 1.467404 0.9975601 1.732754
v 1.465075 0.9979689 1.732203
v 1.450747 0.9999979 1.729497
v 1.448925 1.000256 1.729152
v 1.432693 1.001582 1.727398
v 1.416684 1.001914 1.726929
v 1.416399 1.00192 1.726921
v 1.399866 1.001241 1.727741
v 1.383281 0.9995251 1.729906
v 1.3827 0.9994292 1.73003
v 1.366981 0.9968322 1.733395
v 1.350953 0.9932197 1.73823
v 1.349826 0.992922 1.738639
v 1.345941 0.9918954 1.740047
v 1.336982 0.9891837 1.743886
v 1.329949 0.9870552 1.746899
v 1.550362 0.9705176 1.775208
v 1.543159 0.9737281 1.769519
v 1.53663 0.9766377 1.764364
v 1.528678 0.9798855 1.758949
v 1.515022 0.9849378 1.750951
v 1.514151 0.98526 1.75044
v 1.587661 0.9503999 1.819301
v 1.587526 0.9504865 1.819055
v 1.577903 0.9562091 1.804826
v 1.574623 0.9580656 1.800559
v 1.567595 0.9618372 1.792495
v 1.563637 0.9639614 1.787953
v 1.563048 0.9642776 1.787277
v 1.612905 0.9318267 1.889364
v 1.612841 0.9318884 1.889027
v 1.611457 0.9332066 1.881838
v 1.609748 0.9348335 1.872966
v 1.605158 0.9385424 1.856931
v 1.602605 0.9404442 1.849794
v 1.602435 0.9405623 1.849403
v 1.597136 0.9442483 1.837211
v 1.595762 0.9452042 1.83405
v 1.61211 0.9273885 1.9496
v 1.613209 0.9273932 1.942262
v 1.61384 0.9273959 1.93805
v 1.614902 0.9281665 1.921414
v 1.614795 0.9286977 1.915551
v 1.614621 0.9295515 1.906128
v 1.601365 0.9297975 1.989242
v 1.603515 0.9291976 1.982922
v 1.606904 0.9282519 1.972961
v 1.607438 0.9281222 1.971105
v 1.611357 0.9273853 1.954623
v 1.570033 0.9403238 2.04339
v 1.570496 0.9401694 2.04286
v 1.576674 0.9380595 2.034716
v 1.586253 0.9347692 2.020146
v 1.589317 0.9337345 2.014494
v 1.594478 0.9319921 2.004977
v 1.59854 0.930698 1.995697
v 1.500234 0.960088 2.098694
v 1.511407 0.9576409 2.093094
v 1.518057 0.9559477 2.088975
v 1.526523 0.953792 2.083731
v 1.53139 0.9524488 2.080298
v 1.54561 0.9482625 2.068925
v 1.546023 0.9481314 2.06853
v 1.558642 0.9441252 2.056431
v 1.565846 0.9417213 2.048184
v 1.49523 1.576978 2.151571
v 1.486065 1.574224 2.155463
v 1.482287 1.573301 2.156713
v 1.470464 1.570414 2.160623
v 1.454412 1.567438 2.164519
v 1.450871 1.566911 2.165196
v 1.449449 1.566752 2.165397
v 1.434704 1.565103 2.167483
v 1.418402 1.564278 2.168492
v 1.415468 1.564236 2.168537
v 1.39884 1.56461 2.168014
v 1.382393 1.565998 2.166178
v 1.3814 1.566141 2.165986
v 1.366099 1.568359 2.163024
v 1.356252 1.570256 2.160444
v 1.560507 1.604725 2.105015
v 1.552391 1.600342 2.113645
v 1.540768 1.594629 2.123905
v 1.539388 1.593951 2.125124
v 1.525406 1.587779 2.135354
v 1.51587 1.583977 2.141295
v 1.513039 1.582973 2.142789
v 1.501208 1.578775 2.149032
v 1.586945 1.620769 2.067895
v 1.592994 1.625066 2.05522
v 1.594363 1.626038 2.052353
v 1.583781 1.6187 2.073197
v 1.578152 1.615019 2.08263
v 1.567994 1.608886 2.096539
v 1.564668 1.606982 2.100548
v 1.564381 1.606817 2.100895
v 1.606409 1.636372 2.010375
v 1.605891 1.635755 2.014005
v 1.602079 1.632182 2.030294
v 1.597917 1.628792 2.042907
v 1.596839 1.627914 2.046174
v 1.607194 1.642249 1.950428
v 1.608866 1.641672 1.967085
v 1.609012 1.64089 1.976596
v 1.609121 1.640304 1.983717
v 1.59274 1.639042 1.899188
v 1.596649 1.640205 1.909425
v 1.59881 1.640848 1.915087
v 1.603533 1.641942 1.931458
v 1.604087 1.642035 1.933792
v 1.605732 1.642148 1.942604
v 1.607098 1.642242 1.949915
v 1.562225 1.628442 1.849621
v 1.569474 1.630996 1.858614
v 1.576579 1.633517 1.868902
v 1.581991 1.63541 1.878101
v 1.585335 1.636579 1.883783
v 1.591558 1.638649 1.896729
v 1.498983 1.609073 1.798614
v 1.509903 1.611932 1.804802
v 1.514423 1.613115 1.807363
v 1.529132 1.617429 1.817557
v 1.532242 1.618394 1.819975
v 1.53794 1.62024 1.824931
v 1.545864 1.622808 1.831821
v 1.55827 1.627049 1.844715
v 1.558327 1.627069 1.844786
v 1.329808 1.60646 1.797603
v 1.331732 1.606081 1.796758
v 1.147966 1.604472 1.798307
v 1.344898 1.603487 1.790976
v 1.14786 1.59002 1.770669
v 1.345277 1.603412 1.79081
v 1.147804 1.57825 1.751752
v 1.361276 1.600911 1.785402
v 1.363595 1.600605 1.784746
v 1.377868 1.599088 1.781473
v 1.379682 1.598895 1.781057
v 1.395877 1.597913 1.778807
v 1.411875 1.59769 1.777996
v 1.41216 1.597686 1.777981
v 1.428706 1.598241 1.778603
v 1.445331 1.59959 1.780724
v 1.445913 1.599664 1.780853
v 1.461695 1.601676 1.784323
v 1.477814 1.604439 1.789408
v 1.478949 1.604665 1.78984
v 1.482861 1.605443 1.791331
v 1.491894 1.607477 1.795411
v 1.292672 1.616046 1.821367
v 1.300519 1.613778 1.815335
v 1.286243 1.618026 1.827061
v 1.314019 1.610181 1.806346
v 1.314879 1.609951 1.805772
v 1.242695 1.632481 1.880889
v 1.242825 1.632438 1.880629
v 1.252177 1.629233 1.865461
v 1.255375 1.628134 1.860881
v 1.262249 1.6258 1.852166
v 1.26612 1.624485 1.847257
v 1.266697 1.624289 1.846527
v 1.27915 1.620212 1.833343
v 1.218763 1.638833 1.953538
v 1.218822 1.638829 1.953195
v 1.220072 1.638755 1.945862
v 1.221615 1.638663 1.936813
v 1.225906 1.637741 1.920299
v 1.228325 1.637085 1.912898
v 1.228488 1.637035 1.912489
v 1.233558 1.635484 1.899754
v 1.234873 1.635081 1.896451
v 1.218725 1.63492 2.002278
v 1.217357 1.636987 1.985775
v 1.217357 1.637461 1.979907
v 1.217357 1.638222 1.970474
v 1.232129 1.623869 2.052079
v 1.229865 1.625532 2.045994
v 1.226296 1.628152 2.036402
v 1.225728 1.628594 2.034606
v 1.22151 1.632117 2.018563
v 1.220666 1.632966 2.013627
v 1.219432 1.634208 2.006416
v 1.247796 1.613739 2.081407
v 1.257633 1.608035 2.095028
v 1.263955 1.604581 2.102581
v 1.24463 1.615715 2.07607
v 1.239299 1.619042 2.067083
v 1.23507 1.621889 2.058235
v 1.348332 1.572155 2.157787
v 1.339807 1.5742 2.154926
v 1.335195 1.575569 2.152922
v 1.151243 1.573968 2.154488
v 1.323925 1.578915 2.148025
v 1.317204 1.581274 2.144376
v 1.308647 1.584276 2.13973
v 1.30372 1.586176 2.136665
v 1.289302 1.592213 2.126431
v 1.288882 1.592409 2.126071
v 1.276049 1.598394 2.115063
v 1.2687 1.602153 2.107478
v 1.264428 1.604339 2.103068
v 1.155373 1.250253 2.306139
v 1.21503 1.105657 2.260825
v 1.214399 1.099506 2.256734
v 1.195388 1.154094 1.615423
v 1.194971 1.190329 1.603813
v 1.148116 1.414891 1.618599
v 1.192892 1.463177 1.641916
v 1.147895 1.462781 1.642296
v 1.192767 1.505699 1.671429
v 1.147768 1.506605 1.672865
v 1.147737 1.545383 1.709624
v 1.148427 1.364006 1.602305
v 1.14858 1.342188 1.597793
v 1.148818 1.31126 1.593776
v 1.14917 1.331877 1.656897
v 1.148875 1.376337 1.668248
v 1.148571 1.538116 1.800759
v 1.148517 1.526406 1.782179
v 1.148467 1.496309 1.744944
v 1.148512 1.460629 1.71302
v 1.148649 1.42029 1.687232
v 1.073118 1.022148 1.802343
v 1.075626 1.022694 2.099832
v 1.07461 1.280599 2.248122
v 1.071085 1.537958 2.098924
v 1.068577 1.537412 1.801435
v 1.069593 1.279507 1.653144
v 0.7600496 1.231038 1.659382
v 1.069577 1.281501 1.653228
v 0.759599 1.278777 1.655766
v 1.069375 1.305437 1.654231
v 0.7593976 1.30271 1.656849
v 1.069192 1.329195 1.657316
v 0.7592138 1.326478 1.659855
v 1.069176 1.331174 1.657573
v 0.758904 1.372906 1.671542
v 0.7585461 1.522975 1.785473
v 1.068665 1.549438 1.824434
v 0.7586884 1.546711 1.827053
v 1.06878 1.559414 1.848394
v 0.7589198 1.563469 1.871901
v 0.7605845 1.554964 2.060119
v 1.071109 1.536889 2.100609
v 0.7611315 1.53423 2.10327
v 1.071392 1.524054 2.120837
v 0.7617041 1.506841 2.142536
v 0.7622877 1.473508 2.1769
v 1.071705 1.508293 2.141454
v 1.071681 1.509505 2.139869
v 0.7644325 1.299817 2.249891
v 1.074829 1.254669 2.247036
v 0.7648517 1.251942 2.249654
v 1.075027 1.228932 2.243694
v 0.7652003 1.204724 2.24174
v 0.7657398 1.045975 2.140254
v 1.075619 1.021769 2.098063
v 0.7656435 1.018971 2.100719
v 1.075538 1.010668 2.076832
v 0.765456 0.9986578 2.057364
v 0.7651822 0.9855624 2.011313
v 1.075423 1.000692 2.052873
v 1.075432 1.001459 2.054715
v 0.7622538 1.063784 1.746114
v 1.072498 1.051813 1.759812
v 0.7628338 1.033325 1.783048
v 1.072811 1.036052 1.78043
v 0.7633954 1.009185 1.824391
v 0.7639535 1.34711 2.242445
v 0.7634271 1.392595 2.22751
v 0.762867 1.435095 2.205471
v 0.7600775 1.568508 2.0142
v 0.7596235 1.574511 1.966702
v 0.7592342 1.572816 1.918856
v 0.7584963 1.492878 1.748239
v 0.7585406 1.457197 1.716314
v 0.7586777 1.416859 1.690526
v 0.7605539 1.184498 1.670609
v 0.7610989 1.140362 1.689157
v 0.7616704 1.099774 1.714544
v 0.7639241 0.9919897 1.869071
v 0.7644062 0.9821846 1.915931
v 0.7648292 0.9800235 1.963758
v 0.7657426 1.078971 2.174946
v 0.7656516 1.117104 2.203897
v 0.7654693 1.159387 2.226355
v 0.7601538 1.29567 1.739045
v 0.7598834 1.332588 1.745487
v 0.7616121 1.453663 2.076256
v 0.7611734 1.472341 2.043768
v 0.7607635 1.485093 2.00853
v 0.7603951 1.491533 1.971612
v 0.760079 1.491464 1.934137
v 0.7598252 1.484889 1.897242
v 0.7596413 1.472007 1.862049
v 0.7595329 1.45321 1.829627
v 0.7595031 1.429068 1.800962
v 0.759553 1.400316 1.776923
v 0.7596811 1.367827 1.758243
v 0.7604842 1.258195 1.739111
v 0.7608642 1.221301 1.745683
v 0.7612827 1.186109 1.758563
v 0.7617267 1.153688 1.777358
v 0.7621828 1.125025 1.801497
v 0.7626371 1.100989 1.830247
v 0.7630759 1.082311 1.862735
v 0.7634858 1.069558 1.897973
v 0.7638543 1.063118 1.934891
v 0.7641702 1.063187 1.972367
v 0.764424 1.069762 2.009261
v 0.764608 1.082644 2.044454
v 0.7647164 1.101441 2.076876
v 0.7647461 1.125583 2.105542
v 0.7646963 1.154335 2.12958
v 0.7645682 1.186824 2.148261
v 0.7643659 1.222063 2.161016
v 0.7640955 1.258981 2.167459
v 0.7637652 1.296456 2.167392
v 0.7633851 1.333351 2.16082
v 0.7629667 1.368542 2.147941
v 0.7625226 1.400963 2.129146
v 0.7620665 1.429626 2.105006
v 1.459325 1.778291 2.117068
v 1.480713 1.773584 2.174001
v 1.48056 1.779327 2.106979
v 1.511542 1.775088 2.159354
v 1.499711 1.780649 2.093369
v 1.539347 1.777007 2.139594
v 1.516197 1.782215 2.07665
v 1.563282 1.77928 2.115321
v 1.529517 1.783978 2.057331
v 1.58262 1.781841 2.087272
v 1.539266 1.785885 2.035998
v 1.596774 1.78461 2.0563
v 1.545147 1.787878 2.0133
v 1.605313 1.787503 2.023347
v 1.546983 1.789897 1.989927
v 1.607979 1.790433 1.989412
v 1.544718 1.791879 1.966588
v 1.604689 1.793311 1.955528
v 1.538419 1.793765 1.943993
v 1.595545 1.796049 1.922723
v 1.528279 1.795497 1.922829
v 1.580823 1.798564 1.891995
v 1.514606 1.797023 1.903738
v 1.560972 1.80078 1.864278
v 1.497815 1.798296 1.8873
v 1.536594 1.802628 1.840412
v 1.478417 1.799278 1.874015
v 1.50843 1.804054 1.821125
v 1.457 1.799939 1.864287
v 1.477336 1.805014 1.807001
v 1.434215 1.800259 1.858411
v 1.444257 1.805478 1.79847
v 1.410756 1.800228 1.856565
v 1.410197 1.805432 1.79579
v 1.387334 1.799846 1.858807
v 1.376191 1.804879 1.799045
v 1.364661 1.799127 1.865067
v 1.343274 1.803834 1.808133
v 1.343427 1.798091 1.875155
v 1.312445 1.80233 1.82278
v 1.324275 1.796769 1.888766
v 1.28464 1.800412 1.842541
v 1.30779 1.795203 1.905485
v 1.260705 1.798138 1.866814
v 1.29447 1.79344 1.924804
v 1.241367 1.795578 1.894863
v 1.284721 1.791533 1.946137
v 1.227213 1.792808 1.925834
v 1.278839 1.78954 1.968834
v 1.218673 1.789915 1.958788
v 1.277003 1.787521 1.992208
v 1.216008 1.786985 1.992723
v 1.279269 1.785539 2.015546
v 1.219297 1.784107 2.026607
v 1.285568 1.783653 2.038141
v 1.228442 1.781369 2.059412
v 1.295707 1.781921 2.059306
v 1.243163 1.778854 2.09014
v 1.30938 1.780395 2.078397
v 1.263015 1.776638 2.117857
v 1.326171 1.779122 2.094835
v 1.287393 1.77479 2.141722
v 1.34557 1.77814 2.10812
v 1.315557 1.773364 2.16101
v 1.366987 1.777479 2.117848
v 1.346651 1.772404 2.175134
v 1.389771 1.777159 2.123724
v 1.37973 1.77194 2.183665
v 1.413231 1.77719 2.125569
v 1.41379 1.771986 2.186344
v 1.436653 1.777572 2.123328
v 1.447795 1.772539 2.18309
v 1.421955 0.7607263 2.099665
v 1.455961 0.7612799 2.096411
v 1.488878 0.7623246 2.087322
v 1.519707 0.7638291 2.072675
v 1.547512 0.7657473 2.052915
v 1.571447 0.7680212 2.028641
v 1.590785 0.7705814 2.000593
v 1.604939 0.7733505 1.969621
v 1.613479 0.776244 1.936667
v 1.616144 0.7791743 1.902732
v 1.612855 0.782052 1.868848
v 1.60371 0.78479 1.836044
v 1.588989 0.787305 1.805316
v 1.569137 0.7895205 1.777598
v 1.544759 0.7913692 1.753733
v 1.516595 0.792795 1.734445
v 1.485501 0.7937546 1.720321
v 1.452422 0.7942188 1.71179
v 1.418362 0.7941734 1.709111
v 1.384357 0.7936199 1.712365
v 1.351439 0.792575 1.721454
v 1.32061 0.7910707 1.736101
v 1.292805 0.7891524 1.755861
v 1.26887 0.7868785 1.780135
v 1.249532 0.7843183 1.808183
v 1.235378 0.7815493 1.839155
v 1.226839 0.7786557 1.872109
v 1.224173 0.7757255 1.906044
v 1.227463 0.7728477 1.939928
v 1.236607 0.7701097 1.972732
v 1.251329 0.7675948 2.00346
v 1.27118 0.7653793 2.031178
v 1.295558 0.7635305 2.055043
v 1.323722 0.7621047 2.074331
v 1.354816 0.7611452 2.088454
v 1.387895 0.760681 2.096986
v 1.465165 0.7886802 1.777607
v 1.486582 0.7880192 1.787336
v 1.505981 0.7870372 1.800621
v 1.522771 0.7857638 1.817058
v 1.536445 0.7842379 1.83615
v 1.546584 0.7825056 1.857314
v 1.552883 0.7806198 1.879909
v 1.555149 0.7786376 1.903248
v 1.553313 0.7766193 1.926621
v 1.547431 0.7746263 1.949319
v 1.537682 0.7727191 1.970652
v 1.524362 0.7709556 1.989971
v 1.507877 0.7693894 2.00669
v 1.488725 0.7680682 2.0203
v 1.467491 0.767032 2.030389
v 1.444818 0.7663124 2.036649
v 1.421396 0.7659311 2.03889
v 1.397937 0.7658999 2.037045
v 1.375152 0.7662196 2.031168
v 1.353735 0.7668805 2.02144
v 1.334337 0.7678626 2.008155
v 1.317546 0.7691359 1.991718
v 1.303873 0.7706619 1.972627
v 1.293733 0.7723941 1.951462
v 1.287434 0.77428 1.928867
v 1.285169 0.7762622 1.905528
v 1.287005 0.7782804 1.882155
v 1.292886 0.7802734 1.859457
v 1.302635 0.7821807 1.838125
v 1.315955 0.7839441 1.818805
v 1.332441 0.7855103 1.802086
v 1.351592 0.7868316 1.788476
v 1.372827 0.7878677 1.778387
v 1.395499 0.7885873 1.772128
v 1.418921 0.7889686 1.769886
v 1.442381 0.7889999 1.771731
v 1.194208 1.197431 1.520879
v 1.194851 1.117726 1.514047
v 1.191633 1.516252 1.548206
v 1.192277 1.436547 1.541375
v 1.592748 1.388789 3.043788
v 1.595926 0.9952444 3.010055
v 1.578824 0.9965413 2.993313
v 1.559066 0.9975416 2.979782
v 1.537253 0.9982147 2.969874
v 1.514046 0.9985403 2.963889
v 1.490152 0.9985085 2.962009
v 1.466297 0.9981202 2.964293
v 1.443204 0.9973872 2.970669
v 1.421576 0.9963318 2.980944
v 1.40207 0.9949862 2.994806
v 1.385279 0.993391 3.011835
v 1.371713 0.9915949 3.031512
v 1.361783 0.9896523 3.053239
v 1.352615 1.381167 3.11009
v 1.358606 1.383196 3.086972
v 1.355793 0.9876224 3.076357
v 1.368535 1.385139 3.065244
v 1.382102 1.386935 3.045567
v 1.398893 1.38853 3.028539
v 1.418399 1.389876 3.014676
v 1.440026 1.390931 3.004401
v 1.463119 1.391665 2.998025
v 1.486975 1.392053 2.995742
v 1.510869 1.392084 2.997622
v 1.534075 1.391759 3.003606
v 1.555888 1.391086 3.013515
v 1.575646 1.390085 3.027046
v 1.606674 1.387234 3.063232
v 1.609852 0.9936901 3.0295
v 1.617002 1.38547 3.084789
v 1.62018 0.9919258 3.051057
v 1.623417 1.383549 3.107802
v 1.626595 0.9900051 3.07407
v 1.625725 1.38153 3.131573
v 1.628902 0.9879861 3.097841
v 1.623855 1.379475 3.15538
v 1.627033 0.9859306 3.121647
v 1.617864 1.377445 3.178498
v 1.621042 0.9839006 3.144765
v 1.607935 1.375502 3.200225
v 1.611112 0.9819581 3.166493
v 1.594368 1.373706 3.219902
v 1.597546 0.980162 3.18617
v 1.577577 1.372111 3.236931
v 1.580755 0.9785668 3.203198
v 1.558071 1.370765 3.250793
v 1.561249 0.977221 3.217061
v 1.536444 1.36971 3.261069
v 1.539621 0.9761657 3.227336
v 1.513351 1.368977 3.267445
v 1.516529 0.9754326 3.233712
v 1.489495 1.368589 3.269727
v 1.492673 0.9750444 3.235995
v 1.465601 1.368557 3.267848
v 1.468779 0.9750125 3.234116
v 1.442395 1.368882 3.261863
v 1.445573 0.9753382 3.228131
v 1.420582 1.369555 3.251955
v 1.423759 0.9760113 3.218222
v 1.400824 1.370556 3.238424
v 1.404001 0.9770116 3.204692
v 1.383722 1.371853 3.221682
v 1.386899 0.9783086 3.187949
v 1.369796 1.373407 3.202237
v 1.372973 0.9798628 3.168505
v 1.359468 1.375171 3.180681
v 1.362646 0.9816271 3.146948
v 1.353053 1.377092 3.157667
v 1.35623 0.9835479 3.123935
v 1.350745 1.379111 3.133896
v 1.353923 0.9855668 3.100164
v 1.438033 0.9846418 3.118878
v 1.435374 0.985438 3.109338
v 1.434417 0.986275 3.099484
v 1.435192 0.9871271 3.089615
v 1.437675 0.9879686 3.080032
v 1.441792 0.9887739 3.071024
v 1.447415 0.9895185 3.062867
v 1.454376 0.9901798 3.055809
v 1.462462 0.9907376 3.050062
v 1.471428 0.9911751 3.045802
v 1.481001 0.991479 3.043159
v 1.49089 0.99164 3.042212
v 1.500795 0.9916531 3.042992
v 1.510415 0.9915181 3.045473
v 1.519458 0.9912391 3.04958
v 1.527649 0.9908244 3.05519
v 1.534738 0.9902868 3.06213
v 1.540511 0.9896425 3.07019
v 1.544792 0.9889111 3.079127
v 1.547452 0.9881148 3.088667
v 1.548408 0.9872779 3.098521
v 1.547633 0.9864258 3.10839
v 1.54515 0.9855843 3.117973
v 1.541034 0.9847791 3.12698
v 1.53541 0.9840344 3.135137
v 1.528449 0.9833732 3.142196
v 1.520363 0.9828153 3.147943
v 1.511397 0.9823778 3.152203
v 1.501824 0.982074 3.154846
v 1.491935 0.981913 3.155792
v 1.48203 0.9818998 3.155013
v 1.47241 0.9820348 3.152532
v 1.463367 0.9823138 3.148424
v 1.455177 0.9827284 3.142815
v 1.448087 0.9832661 3.135875
v 1.442314 0.9839104 3.127814
v 1.434855 1.378186 3.15261
v 1.439136 1.377455 3.161546
v 1.44491 1.37681 3.169607
v 1.451999 1.376273 3.176548
v 1.46019 1.375858 3.182157
v 1.469232 1.375579 3.186264
v 1.478852 1.375444 3.188745
v 1.488757 1.375457 3.189524
v 1.498647 1.375618 3.188578
v 1.50822 1.375922 3.185935
v 1.517185 1.37636 3.181675
v 1.525271 1.376917 3.175929
v 1.532232 1.377579 3.168869
v 1.537856 1.378323 3.160713
v 1.541972 1.379128 3.151705
v 1.544456 1.37997 3.142122
v 1.545231 1.380822 3.132253
v 1.544274 1.381659 3.122399
v 1.541615 1.382455 3.112859
v 1.537333 1.383187 3.103923
v 1.53156 1.383831 3.095862
v 1.524471 1.384369 3.088922
v 1.51628 1.384783 3.083313
v 1.507238 1.385062 3.079205
v 1.497618 1.385197 3.076724
v 1.487712 1.385184 3.075945
v 1.477823 1.385023 3.076891
v 1.46825 1.384719 3.079535
v 1.459285 1.384282 3.083794
v 1.451199 1.383724 3.089541
v 1.444238 1.383063 3.0966
v 1.438614 1.382318 3.104757
v 1.434498 1.381513 3.113764
v 1.432014 1.380671 3.123347
v 1.431239 1.379819 3.133216
v 1.432196 1.378982 3.14307
v 1.395218 0.8234583 1.775116
v 1.41864 0.8238396 1.772875
v 1.442099 0.8238708 1.77472
v 1.464884 0.8235512 1.780596
v 1.4863 0.8228902 1.790325
v 1.505699 0.8219082 1.80361
v 1.52249 0.8206348 1.820047
v 1.536163 0.8191088 1.839138
v 1.546303 0.8173766 1.860303
v 1.552601 0.8154908 1.882898
v 1.554867 0.8135086 1.906237
v 1.553031 0.8114904 1.92961
v 1.547149 0.8094973 1.952308
v 1.537401 0.8075901 1.97364
v 1.524081 0.8058265 1.99296
v 1.507595 0.8042604 2.009679
v 1.488444 0.8029392 2.023289
v 1.467209 0.801903 2.033378
v 1.444537 0.8011834 2.039638
v 1.421115 0.8008021 2.041879
v 1.397655 0.8007709 2.040034
v 1.374871 0.8010905 2.034158
v 1.353454 0.8017515 2.024429
v 1.334055 0.8027335 2.011144
v 1.317264 0.8040069 1.994707
v 1.303591 0.8055329 1.975616
v 1.293451 0.8072652 1.954451
v 1.287153 0.8091509 1.931856
v 1.284887 0.8111331 1.908517
v 1.286723 0.8131514 1.885144
v 1.292605 0.8151444 1.862446
v 1.302354 0.8170516 1.841113
v 1.315673 0.8188152 1.821794
v 1.332159 0.8203813 1.805075
v 1.35131 0.8217025 1.791465
v 1.372545 0.8227387 1.781376
v 1.468192 0.8177181 1.84896
v 1.477644 0.8170013 1.858214
v 1.485342 0.8161423 1.868961
v 1.49105 0.8151671 1.880876
v 1.494596 0.8141054 1.893596
v 1.495872 0.8129895 1.906735
v 1.494838 0.8118532 1.919893
v 1.491527 0.8107313 1.932671
v 1.486039 0.8096576 1.944681
v 1.47854 0.8086649 1.955557
v 1.469259 0.8077831 1.964969
v 1.458478 0.8070393 1.972631
v 1.446523 0.806456 1.978311
v 1.43376 0.8060508 1.981835
v 1.420574 0.8058363 1.983097
v 1.407367 0.8058187 1.982058
v 1.39454 0.8059986 1.97875
v 1.382483 0.8063707 1.973273
v 1.371563 0.8069236 1.965794
v 1.36211 0.8076404 1.95654
v 1.354412 0.8084995 1.945793
v 1.348704 0.8094746 1.933878
v 1.345158 0.8105363 1.921158
v 1.343883 0.8116522 1.908019
v 1.344916 0.8127884 1.894861
v 1.348228 0.8139104 1.882083
v 1.353716 0.8149841 1.870073
v 1.361214 0.8159769 1.859197
v 1.370495 0.8168586 1.849785
v 1.381277 0.8176024 1.842123
v 1.393231 0.8181857 1.836443
v 1.405995 0.8185908 1.832919
v 1.41918 0.8188055 1.831657
v 1.432387 0.818823 1.832696
v 1.445214 0.8186431 1.836004
v 1.457271 0.818271 1.841481
v 1.390053 1.742288 2.120735
v 1.413512 1.742319 2.12258
v 1.436934 1.7427 2.120339
v 1.459607 1.74342 2.114079
v 1.480842 1.744456 2.103991
v 1.499993 1.745777 2.09038
v 1.516479 1.747344 2.073661
v 1.529798 1.749107 2.054342
v 1.539547 1.751014 2.033009
v 1.545429 1.753008 2.010312
v 1.547265 1.755026 1.986938
v 1.544999 1.757008 1.9636
v 1.538701 1.758894 1.941005
v 1.528561 1.760626 1.91984
v 1.514888 1.762152 1.900749
v 1.498097 1.763425 1.884311
v 1.478698 1.764407 1.871026
v 1.457281 1.765068 1.861298
v 1.434497 1.765388 1.855422
v 1.411037 1.765357 1.853576
v 1.387615 1.764976 1.855818
v 1.364943 1.764256 1.862078
v 1.343708 1.76322 1.872166
v 1.324557 1.761899 1.885777
v 1.308071 1.760332 1.902496
v 1.294751 1.758569 1.921815
v 1.285002 1.756662 1.943148
v 1.279121 1.754668 1.965845
v 1.277285 1.75265 1.989219
v 1.279551 1.750668 2.012558
v 1.285849 1.748782 2.035152
v 1.295989 1.74705 2.056317
v 1.309662 1.745524 2.075408
v 1.326453 1.744251 2.091846
v 1.345852 1.743269 2.105131
v 1.367268 1.742608 2.114859
v 1.461657 1.7493 2.045671
v 1.470938 1.750182 2.036258
v 1.478436 1.751175 2.025382
v 1.483925 1.752248 2.013373
v 1.487236 1.753371 2.000595
v 1.488269 1.754507 1.987437
v 1.486994 1.755623 1.974298
v 1.483448 1.756684 1.961578
v 1.47774 1.757659 1.949663
v 1.470042 1.758518 1.938915
v 1.460589 1.759235 1.929661
v 1.449669 1.759788 1.922182
v 1.437612 1.76016 1.916706
v 1.424785 1.76034 1.913398
v 1.411578 1.760323 1.912359
v 1.398392 1.760108 1.913621
v 1.385629 1.759703 1.917145
v 1.373674 1.75912 1.922824
v 1.362893 1.758376 1.930487
v 1.353612 1.757494 1.939899
v 1.346113 1.756501 1.950775
v 1.340625 1.755428 1.962784
v 1.337314 1.754305 1.975562
v 1.336281 1.753169 1.98872
v 1.337556 1.752053 2.001859
v 1.341102 1.750992 2.014579
v 1.34681 1.750017 2.026494
v 1.354508 1.749158 2.037242
v 1.36396 1.748441 2.046496
v 1.374881 1.747888 2.053975
v 1.386938 1.747516 2.059451
v 1.399765 1.747336 2.062759
v 1.412971 1.747353 2.063798
v 1.426157 1.747568 2.062536
v 1.438921 1.747973 2.059012
v 1.450875 1.748556 2.053333
v 1.199038 1.303843 2.203558
v 1.19943 1.259395 2.203637
v 1.199751 1.215608 2.195996
v 1.19999 1.173814 2.180867
v 1.200142 1.13528 2.158711
v 1.200202 1.101179 2.1302
v 1.200166 1.072546 2.096202
v 1.200038 1.050251 2.057748
v 1.199819 1.034973 2.016008
v 1.199518 1.027174 1.972249
v 1.199144 1.027093 1.927801
v 1.198707 1.03473 1.884015
v 1.19822 1.049856 1.842221
v 1.1977 1.072009 1.803689
v 1.197161 1.100517 1.769589
v 1.19662 1.134513 1.740959
v 1.196094 1.172965 1.718667
v 1.195597 1.214705 1.703392
v 1.195147 1.258463 1.695596
v 1.194755 1.30291 1.695518
v 1.194434 1.346697 1.703159
v 1.194194 1.388492 1.718288
v 1.194042 1.427025 1.740444
v 1.193983 1.461127 1.768954
v 1.194018 1.48976 1.802953
v 1.194147 1.512054 1.841407
v 1.194365 1.527333 1.883147
v 1.194666 1.535131 1.926906
v 1.195041 1.535213 1.971354
v 1.195478 1.527575 2.01514
v 1.195964 1.51245 2.056934
v 1.196484 1.490296 2.095466
v 1.197023 1.461789 2.129565
v 1.197564 1.427792 2.158196
v 1.198091 1.38934 2.180488
v 1.198587 1.347601 2.195763
v 1.003747 1.298568 2.165365
v 1.159066 1.262456 2.164122
v 1.004078 1.261092 2.165431
v 1.159336 1.225538 2.15768
v 1.004348 1.224174 2.158989
v 1.159539 1.190299 2.144924
v 1.00455 1.188935 2.146234
v 1.159667 1.15781 2.126244
v 1.004678 1.156446 2.127553
v 1.159717 1.129058 2.102205
v 1.004728 1.127694 2.103514
v 1.159687 1.104916 2.07354
v 1.004699 1.103553 2.074849
v 1.159579 1.086119 2.041118
v 1.00459 1.084756 2.042427
v 1.159395 1.073237 2.005925
v 1.004406 1.071874 2.007234
v 1.159141 1.066662 1.96903
v 1.004152 1.065298 1.97034
v 1.158825 1.066593 1.931555
v 1.003836 1.06523 1.932864
v 1.158456 1.073033 1.894637
v 1.003468 1.071669 1.895946
v 1.158046 1.085786 1.859399
v 1.003058 1.084422 1.860708
v 1.157608 1.104464 1.826911
v 1.002619 1.1031 1.82822
v 1.157153 1.1285 1.798161
v 1.002165 1.127136 1.79947
v 1.156697 1.157164 1.774021
v 1.001709 1.1558 1.775331
v 1.156253 1.189584 1.755226
v 1.001265 1.18822 1.756536
v 1.155835 1.224776 1.742347
v 1.000846 1.223412 1.743656
v 1.155455 1.26167 1.735774
v 1.000466 1.260306 1.737084
v 1.155124 1.299145 1.735709
v 1.000136 1.297782 1.737018
v 1.154854 1.336064 1.742151
v 0.9998656 1.3347 1.74346
v 1.154652 1.371302 1.754906
v 0.9996632 1.369939 1.756216
v 1.154524 1.403791 1.773587
v 0.9995352 1.402428 1.774896
v 1.154474 1.432544 1.797625
v 0.9994853 1.43118 1.798934
v 1.154503 1.456685 1.826291
v 0.999515 1.455321 1.8276
v 1.154612 1.475482 1.858713
v 0.9996235 1.474119 1.860022
v 1.154796 1.488364 1.893906
v 0.9998074 1.487001 1.895215
v 1.15505 1.49494 1.9308
v 1.000061 1.493576 1.93211
v 1.155366 1.495008 1.968276
v 1.000377 1.493645 1.969585
v 1.155734 1.488569 2.005194
v 1.000746 1.487205 2.006503
v 1.156144 1.475816 2.040432
v 1.001156 1.474452 2.041741
v 1.156583 1.457138 2.07292
v 1.001594 1.455774 2.074229
v 1.157037 1.433102 2.10167
v 1.002049 1.431738 2.102979
v 1.157493 1.404438 2.125809
v 1.002505 1.403074 2.127119
v 1.157937 1.372018 2.144604
v 1.002949 1.370654 2.145913
v 1.158356 1.336826 2.157484
v 1.003367 1.335462 2.158793
v 1.158736 1.299932 2.164056
v 1.003908 1.212718 2.094987
v 1.004003 1.188767 2.081215
v 1.004039 1.167571 2.063494
v 1.004017 1.149774 2.042362
v 1.003937 1.135916 2.01846
v 1.003802 1.126419 1.992515
v 1.003615 1.121572 1.965316
v 1.003382 1.121521 1.937689
v 1.00311 1.126269 1.910473
v 1.002808 1.13567 1.884495
v 1.002485 1.14944 1.860545
v 1.00215 1.16716 1.83935
v 1.001813 1.188291 1.821554
v 1.001486 1.212191 1.807698
v 1.001178 1.238135 1.798203
v 1.000897 1.265334 1.793358
v 1.000654 1.292961 1.793309
v 1.000455 1.320177 1.798059
v 1.000305 1.346156 1.807462
v 1.000211 1.370107 1.821234
v 1.000174 1.391303 1.838955
v 1.000196 1.409101 1.860088
v 1.000276 1.422958 1.883989
v 1.000412 1.432455 1.909934
v 1.000599 1.437302 1.937133
v 1.000832 1.437353 1.96476
v 1.001103 1.432605 1.991976
v 1.001406 1.423204 2.017954
v 1.001729 1.409434 2.041904
v 1.002064 1.391715 2.0631
v 1.0024 1.370584 2.080895
v 1.002728 1.346683 2.094751
v 1.003036 1.320739 2.104246
v 1.003316 1.29354 2.109091
v 1.00356 1.265913 2.10914
v 1.003759 1.238697 2.10439
v 0.9178717 1.333978 1.744153
v 0.918142 1.29706 1.73771
v 0.9184723 1.259585 1.737776
v 0.9188524 1.222691 1.744349
v 0.9192709 1.187499 1.757228
v 0.9197149 1.155079 1.776023
v 0.920171 1.126415 1.800163
v 0.9206253 1.102379 1.828913
v 0.9210641 1.083701 1.861401
v 0.921474 1.070948 1.896639
v 0.9218425 1.064508 1.933557
v 0.9221584 1.064577 1.971032
v 0.9224122 1.071152 2.007927
v 0.9225962 1.084034 2.04312
v 0.9227047 1.102831 2.075541
v 0.9227344 1.126973 2.104207
v 0.9226844 1.155725 2.128245
v 0.9225564 1.188214 2.146926
v 0.9223541 1.223453 2.159682
v 0.9220837 1.260371 2.166124
v 0.9217534 1.297846 2.166058
v 0.9213732 1.334741 2.159486
v 0.9209548 1.369933 2.146606
v 0.9205109 1.402353 2.127811
v 0.9200547 1.431016 2.103672
v 0.9196004 1.455052 2.074921
v 0.9191616 1.473731 2.042434
v 0.9187518 1.486484 2.007195
v 0.9183833 1.492923 1.970278
v 0.9180673 1.492854 1.932802
v 0.9178135 1.486279 1.895907
v 0.9176296 1.473397 1.860714
v 0.9175211 1.4546 1.828293
v 0.9174913 1.430459 1.799627
v 0.9175413 1.401706 1.775589
v 0.9176693 1.369217 1.756908
v 0.9216209 1.120851 1.966009
v 0.921808 1.125698 1.993208
v 0.9219436 1.135195 2.019153
v 0.9220236 1.149052 2.043054
v 0.9220455 1.166849 2.064187
v 0.9220087 1.188046 2.081908
v 0.9219142 1.211997 2.09568
v 0.9217651 1.237975 2.105083
v 0.9215658 1.265192 2.109832
v 0.9213223 1.292819 2.109784
v 0.9210421 1.320018 2.104939
v 0.9207336 1.345962 2.095444
v 0.9204062 1.369862 2.081588
v 0.92007 1.390993 2.063792
v 0.9197351 1.408713 2.042597
v 0.9194116 1.422483 2.018647
v 0.9191094 1.431884 1.992669
v 0.9188378 1.436632 1.965453
v 0.9186049 1.436581 1.937825
v 0.9184178 1.431733 1.910626
v 0.9182822 1.422237 1.884682
v 0.9182022 1.408379 1.86078
v 0.9181803 1.390582 1.839648
v 0.9182171 1.369386 1.821926
v 0.9183115 1.345434 1.808155
v 0.9184607 1.319456 1.798751
v 0.91866 1.29224 1.794002
v 0.9189034 1.264612 1.794051
v 0.9191837 1.237414 1.798896
v 0.9194921 1.21147 1.808391
v 0.9198195 1.187569 1.822246
v 0.9201557 1.166438 1.840042
v 0.9204907 1.148718 1.861237
v 0.9208141 1.134949 1.885188
v 0.9211163 1.125547 1.911165
v 0.9213879 1.1208 1.938381
v 1.404386 1.017854 1.849999
v 1.417572 1.018068 1.848737
v 1.430778 1.018086 1.849776
v 1.443605 1.017906 1.853084
v 1.455662 1.017534 1.858561
v 1.466583 1.016981 1.866039
v 1.476035 1.016264 1.875293
v 1.483733 1.015405 1.886041
v 1.489441 1.01443 1.897956
v 1.492987 1.013368 1.910676
v 1.494262 1.012252 1.923815
v 1.493229 1.011116 1.936973
v 1.489918 1.009994 1.949751
v 1.484429 1.008921 1.961761
v 1.476931 1.007928 1.972637
v 1.46765 1.007046 1.982049
v 1.456869 1.006302 1.989711
v 1.444914 1.005719 1.99539
v 1.432151 1.005314 1.998914
v 1.418965 1.005099 2.000176
v 1.405758 1.005082 1.999137
v 1.392931 1.005262 1.995829
v 1.380874 1.005634 1.990353
v 1.369954 1.006186 1.982874
v 1.360501 1.006903 1.97362
v 1.352804 1.007762 1.962872
v 1.347095 1.008738 1.950958
v 1.343549 1.009799 1.938237
v 1.342274 1.010915 1.925099
v 1.343307 1.012051 1.91194
v 1.346619 1.013173 1.899162
v 1.352107 1.014247 1.887153
v 1.359605 1.01524 1.876277
v 1.368886 1.016122 1.866865
v 1.379668 1.016865 1.859203
v 1.391622 1.017449 1.853523
v 1.401374 1.548073 2.04568
v 1.41458 1.54809 2.046718
v 1.427766 1.548305 2.045457
v 1.44053 1.54871 2.041932
v 1.452484 1.549294 2.036253
v 1.463266 1.550037 2.028591
v 1.472547 1.550919 2.019179
v 1.480045 1.551912 2.008303
v 1.485533 1.552986 1.996293
v 1.488845 1.554108 1.983515
v 1.489878 1.555244 1.970357
v 1.488603 1.55636 1.957218
v 1.485057 1.557421 1.944498
v 1.479349 1.558396 1.932583
v 1.471651 1.559256 1.921835
v 1.462198 1.559972 1.912582
v 1.451278 1.560525 1.905103
v 1.439221 1.560897 1.899626
v 1.426394 1.561077 1.896318
v 1.413187 1.56106 1.895279
v 1.400002 1.560845 1.896541
v 1.387238 1.56044 1.900065
v 1.375283 1.559857 1.905745
v 1.364502 1.559113 1.913407
v 1.355221 1.558231 1.922819
v 1.347723 1.557238 1.933695
v 1.342234 1.556165 1.945704
v 1.338923 1.555043 1.958482
v 1.337889 1.553906 1.971641
v 1.339165 1.552791 1.98478
v 1.342711 1.551729 1.9975
v 1.348419 1.550754 2.009415
v 1.356117 1.549895 2.020162
v 1.365569 1.549178 2.029416
v 1.37649 1.548625 2.036895
v 1.388547 1.548253 2.042372
f 1 2 3
f 3 2 4
f 3 4 5
f 5 4 6
f 5 6 7
f 7 6 8
f 7 8 9
f 9 8 10
f 9 10 11
f 11 10 12
f 11 12 13
f 13 12 14
f 13 14 15
f 16 17 18
f 18 17 19
f 20 21 22
f 22 21 23
f 22 23 24
f 24 23 25
f 24 25 26
f 26 25 27
f 26 27 28
f 28 27 29
f 28 29 19
f 19 29 30
f 19 30 18
f 31 32 33
f 33 32 34
f 33 34 35
f 35 34 36
f 35 36 37
f 37 36 38
f 37 38 39
f 39 38 40
f 39 40 41
f 41 40 42
f 41 42 43
f 43 42 44
f 43 44 45
f 46 47 48
f 48 47 49
f 50 51 52
f 52 51 53
f 52 53 54
f 54 53 55
f 54 55 56
f 56 55 57
f 56 57 58
f 58 57 59
f 58 59 49
f 49 59 60
f 49 60 48
f 61 62 63
f 63 62 64
f 63 64 65
f 65 64 66
f 65 66 67
f 67 66 68
f 67 68 69
f 69 68 70
f 69 70 71
f 71 70 72
f 71 72 73
f 73 72 74
f 73 74 75
f 76 77 78
f 78 77 79
f 80 81 82
f 82 81 83
f 84 85 86
f 86 85 87
f 88 89 90
f 90 89 91
f 89 92 93
f 94 95 80
f 80 95 96
f 80 96 97
f 93 98 89
f 89 98 99
f 89 99 100
f 101 102 103
f 103 102 97
f 103 97 104
f 104 97 96
f 101 105 102
f 102 105 106
f 102 106 89
f 89 106 107
f 89 107 92
f 100 108 89
f 89 108 109
f 89 109 110
f 82 111 80
f 80 111 112
f 112 113 80
f 80 113 114
f 80 114 94
f 110 115 89
f 89 115 116
f 89 116 91
f 117 118 85
f 85 118 76
f 119 120 85
f 85 120 121
f 121 122 85
f 85 122 123
f 85 123 124
f 125 126 85
f 124 127 85
f 85 127 128
f 85 128 129
f 126 130 85
f 85 130 131
f 85 131 119
f 129 132 85
f 85 132 133
f 85 133 87
f 134 135 76
f 76 135 136
f 76 136 85
f 85 136 137
f 85 137 125
f 78 138 76
f 76 138 139
f 139 140 76
f 76 140 141
f 76 141 134
f 142 81 143
f 143 81 144
f 143 144 145
f 145 144 146
f 142 147 81
f 81 147 148
f 81 148 149
f 149 150 81
f 81 150 151
f 81 151 83
f 84 86 152
f 152 153 84
f 84 153 154
f 84 154 155
f 156 157 158
f 158 157 159
f 158 159 160
f 160 159 84
f 160 84 161
f 161 84 155
f 162 157 156
f 146 163 145
f 145 163 164
f 145 164 156
f 156 164 165
f 156 165 162
f 166 167 168
f 168 167 169
f 168 169 77
f 77 169 170
f 77 170 171
f 171 172 77
f 77 172 173
f 77 173 174
f 174 175 77
f 77 175 176
f 77 176 79
f 177 178 179
f 179 178 180
f 179 180 88
f 181 182 88
f 182 183 88
f 88 183 184
f 88 184 179
f 88 90 185
f 185 186 88
f 88 186 187
f 88 187 181
f 188 178 177
f 167 166 189
f 189 190 167
f 167 190 191
f 167 191 177
f 177 191 192
f 177 192 188
f 168 77 193
f 193 77 76
f 193 76 194
f 194 76 118
f 81 80 144
f 144 80 97
f 144 97 195
f 195 97 196
f 85 84 117
f 117 84 159
f 117 159 197
f 197 159 198
f 199 200 201
f 202 203 204
f 204 203 197
f 204 197 205
f 205 197 198
f 206 207 208
f 208 207 201
f 208 201 209
f 209 201 210
f 209 210 211
f 212 213 214
f 214 213 195
f 214 195 215
f 215 195 196
f 216 217 218
f 218 217 219
f 218 219 220
f 220 219 221
f 220 221 222
f 222 221 223
f 222 223 224
f 224 223 225
f 224 225 226
f 227 228 229
f 229 228 209
f 229 209 230
f 230 209 211
f 231 159 232
f 232 159 233
f 232 233 234
f 201 200 210
f 210 200 235
f 210 235 236
f 231 237 159
f 159 237 238
f 159 238 198
f 198 238 239
f 198 239 240
f 241 220 242
f 242 220 243
f 242 243 244
f 244 243 198
f 244 198 245
f 245 198 240
f 236 246 210
f 210 246 247
f 210 247 248
f 248 247 249
f 248 249 195
f 195 249 250
f 233 251 234
f 234 251 252
f 234 252 253
f 253 252 254
f 253 254 255
f 255 254 144
f 255 144 256
f 241 257 220
f 220 257 258
f 220 258 218
f 218 258 259
f 218 259 260
f 250 261 195
f 195 261 262
f 195 262 144
f 144 262 263
f 144 263 256
f 260 264 218
f 218 264 265
f 218 265 266
f 266 265 267
f 266 267 268
f 268 267 269
f 269 267 270
f 269 270 271
f 271 270 272
f 271 272 273
f 273 272 274
f 273 274 201
f 201 274 275
f 201 275 199
f 118 117 197
f 276 218 266
f 277 208 209
f 278 279 243
f 280 281 45
f 45 281 282
f 45 282 43
f 43 282 283
f 283 284 43
f 43 284 285
f 43 285 286
f 286 287 43
f 43 287 288
f 43 288 289
f 289 290 214
f 214 290 291
f 214 291 292
f 292 293 214
f 214 293 294
f 214 294 295
f 295 296 214
f 214 296 297
f 214 297 212
f 18 298 16
f 16 298 299
f 16 299 280
f 280 299 300
f 300 301 280
f 280 301 302
f 280 302 303
f 303 304 280
f 280 304 305
f 280 305 281
f 306 18 307
f 307 18 30
f 307 30 308
f 306 309 18
f 18 309 310
f 18 310 311
f 311 312 18
f 18 312 313
f 18 313 298
f 314 315 29
f 29 315 316
f 29 316 30
f 30 316 317
f 30 317 318
f 318 319 30
f 30 319 320
f 30 320 308
f 321 322 27
f 27 322 323
f 27 323 29
f 29 323 324
f 29 324 314
f 325 326 25
f 25 326 327
f 25 327 328
f 328 329 25
f 25 329 330
f 25 330 27
f 27 330 331
f 27 331 321
f 23 332 333
f 333 334 23
f 23 334 335
f 23 335 25
f 25 335 336
f 25 336 325
f 337 338 339
f 338 340 339
f 339 340 341
f 339 341 342
f 342 343 339
f 339 343 344
f 339 344 21
f 21 344 345
f 21 345 23
f 23 345 346
f 23 346 332
f 347 348 229
f 229 348 349
f 229 349 227
f 227 349 350
f 227 350 351
f 351 352 227
f 227 352 353
f 227 353 354
f 354 355 227
f 227 355 356
f 227 356 357
f 3 358 359
f 359 360 3
f 3 360 361
f 3 361 362
f 362 363 3
f 3 363 364
f 3 364 1
f 1 364 365
f 1 365 339
f 339 365 366
f 339 366 337
f 367 368 229
f 229 368 369
f 229 369 370
f 370 371 229
f 229 371 372
f 229 372 347
f 373 374 230
f 230 374 375
f 230 375 376
f 376 377 230
f 230 377 378
f 230 378 229
f 229 378 379
f 229 379 367
f 380 381 210
f 210 381 382
f 210 382 211
f 382 383 211
f 211 383 384
f 211 384 385
f 385 386 211
f 211 386 387
f 211 387 230
f 230 387 388
f 230 388 373
f 389 390 248
f 248 390 391
f 391 392 248
f 248 392 393
f 248 393 210
f 210 393 394
f 210 394 380
f 195 395 396
f 396 397 195
f 195 397 398
f 195 398 248
f 248 398 399
f 248 399 389
f 400 401 213
f 213 401 402
f 213 402 403
f 403 404 213
f 213 404 405
f 213 405 195
f 195 405 406
f 195 406 395
f 297 407 212
f 212 407 408
f 212 408 409
f 409 410 212
f 212 410 411
f 212 411 412
f 412 413 212
f 212 413 414
f 212 414 213
f 213 414 415
f 213 415 400
f 204 416 202
f 202 416 417
f 202 417 418
f 418 419 202
f 202 419 420
f 202 420 421
f 421 422 202
f 202 422 423
f 202 423 424
f 425 426 48
f 48 426 427
f 427 428 48
f 48 428 429
f 48 429 430
f 205 431 204
f 204 431 432
f 204 432 433
f 433 434 204
f 204 434 435
f 204 435 436
f 436 437 204
f 204 437 438
f 204 438 416
f 439 205 440
f 440 205 198
f 440 198 441
f 439 442 205
f 205 442 443
f 205 443 444
f 444 445 205
f 205 445 446
f 205 446 431
f 279 447 243
f 243 447 448
f 243 448 198
f 198 448 449
f 449 450 198
f 198 450 451
f 198 451 441
f 452 453 220
f 220 453 454
f 220 454 243
f 243 454 455
f 243 455 278
f 456 457 222
f 222 457 458
f 222 458 459
f 459 460 222
f 222 460 461
f 222 461 220
f 220 461 462
f 220 462 452
f 463 464 224
f 224 464 465
f 465 466 224
f 224 466 467
f 224 467 222
f 222 467 468
f 222 468 456
f 469 470 226
f 226 470 471
f 471 472 226
f 226 472 473
f 226 473 474
f 474 475 226
f 226 475 476
f 226 476 224
f 224 476 477
f 224 477 463
f 478 479 480
f 480 479 481
f 480 481 482
f 482 481 483
f 482 483 484
f 483 485 484
f 484 485 486
f 484 486 487
f 487 488 484
f 484 488 489
f 484 489 490
f 490 491 225
f 225 491 492
f 225 492 493
f 493 494 225
f 225 494 495
f 225 495 496
f 496 497 225
f 225 497 498
f 225 498 226
f 226 498 499
f 226 499 469
f 500 501 480
f 500 480 502
f 501 503 480
f 480 503 504
f 480 504 478
f 505 506 63
f 63 506 507
f 63 507 508
f 508 509 63
f 63 509 510
f 63 510 61
f 61 510 511
f 61 511 480
f 480 511 512
f 480 512 502
f 513 514 67
f 67 514 515
f 67 515 65
f 515 516 65
f 65 516 517
f 65 517 518
f 518 519 65
f 65 519 520
f 65 520 63
f 63 520 521
f 63 521 505
f 522 523 69
f 69 523 524
f 69 524 67
f 67 524 525
f 67 525 513
f 526 527 71
f 71 527 528
f 71 528 529
f 529 530 71
f 71 530 531
f 71 531 69
f 69 531 532
f 69 532 522
f 533 73 534
f 534 73 535
f 533 536 73
f 73 536 537
f 73 537 71
f 71 537 538
f 71 538 526
f 430 539 48
f 48 539 540
f 48 540 46
f 46 540 541
f 46 541 542
f 542 541 543
f 542 543 544
f 544 545 542
f 542 545 546
f 542 546 547
f 547 548 542
f 542 548 549
f 542 549 75
f 75 549 550
f 75 550 73
f 73 550 551
f 73 551 535
f 166 168 55
f 55 168 57
f 166 55 189
f 189 55 53
f 189 53 190
f 190 53 51
f 190 51 191
f 51 552 191
f 191 552 31
f 191 31 192
f 180 35 553
f 553 35 37
f 31 33 192
f 192 33 35
f 192 35 188
f 188 35 180
f 188 180 178
f 39 102 37
f 37 102 554
f 37 554 553
f 277 7 555
f 555 7 9
f 555 9 556
f 556 9 11
f 276 557 558
f 558 557 559
f 558 559 560
f 560 559 561
f 118 59 194
f 194 59 57
f 194 57 193
f 193 57 168
f 118 197 59
f 59 197 203
f 59 203 60
f 60 203 202
f 60 202 48
f 48 202 424
f 48 424 425
f 490 225 484
f 484 225 223
f 484 223 562
f 562 223 221
f 562 221 561
f 561 221 219
f 561 219 560
f 276 266 557
f 557 266 268
f 557 268 563
f 563 268 564
f 564 268 269
f 564 269 565
f 565 269 15
f 15 269 271
f 15 271 13
f 13 271 273
f 13 273 11
f 11 273 201
f 11 201 556
f 277 209 7
f 7 209 228
f 7 228 5
f 5 228 227
f 5 227 3
f 3 227 357
f 3 357 358
f 289 214 43
f 43 214 215
f 43 215 41
f 41 215 196
f 41 196 39
f 39 196 97
f 39 97 102
f 564 566 563
f 563 566 567
f 568 482 569
f 569 482 484
f 569 484 570
f 570 484 562
f 570 562 571
f 571 562 561
f 571 561 572
f 572 561 559
f 572 559 567
f 567 559 557
f 567 557 563
f 573 20 22
f 574 44 42
f 575 50 52
f 576 74 72
f 577 568 569
f 578 14 12
f 578 579 580
f 580 579 581
f 580 581 582
f 582 581 583
f 582 583 584
f 584 583 585
f 584 585 586
f 586 585 587
f 577 588 589
f 589 588 590
f 589 590 591
f 591 590 592
f 576 593 594
f 594 593 595
f 594 595 596
f 596 595 597
f 598 599 597
f 597 599 600
f 597 600 596
f 575 601 602
f 602 601 603
f 602 603 604
f 604 603 605
f 574 606 607
f 607 606 608
f 607 608 609
f 609 608 610
f 611 612 610
f 610 612 613
f 610 613 609
f 614 615 616
f 616 615 617
f 616 617 618
f 618 617 573
f 575 52 601
f 601 52 54
f 601 54 619
f 619 54 56
f 619 56 620
f 620 56 58
f 620 58 621
f 621 58 49
f 621 49 598
f 598 49 47
f 598 47 599
f 576 72 593
f 593 72 70
f 593 70 622
f 622 70 68
f 622 68 623
f 623 68 66
f 623 66 624
f 624 66 64
f 624 64 592
f 592 64 62
f 592 62 591
f 577 569 588
f 588 569 570
f 588 570 625
f 625 570 571
f 625 571 626
f 626 571 572
f 626 572 627
f 627 572 567
f 627 567 587
f 587 567 566
f 587 566 586
f 578 12 579
f 579 12 10
f 579 10 628
f 628 10 8
f 628 8 629
f 629 8 6
f 629 6 630
f 630 6 4
f 630 4 614
f 614 4 2
f 614 2 615
f 573 22 618
f 618 22 24
f 618 24 631
f 631 24 26
f 631 26 632
f 632 26 28
f 632 28 633
f 633 28 19
f 633 19 611
f 611 19 17
f 611 17 612
f 574 42 606
f 606 42 40
f 606 40 634
f 634 40 38
f 634 38 635
f 635 38 36
f 635 36 636
f 636 36 34
f 636 34 605
f 605 34 32
f 605 32 604
f 585 637 638
f 639 595 640
f 640 595 593
f 640 593 641
f 641 593 622
f 641 622 642
f 642 622 623
f 642 623 643
f 643 623 624
f 643 624 644
f 644 624 592
f 644 592 645
f 645 592 590
f 645 590 646
f 646 590 588
f 646 588 647
f 647 588 625
f 647 625 648
f 648 625 626
f 648 626 649
f 649 626 627
f 649 627 638
f 638 627 587
f 638 587 585
f 585 583 637
f 637 583 581
f 637 581 650
f 650 581 579
f 650 579 651
f 651 579 628
f 651 628 652
f 652 628 629
f 652 629 653
f 653 629 630
f 653 630 654
f 654 630 614
f 654 614 655
f 655 614 616
f 655 616 656
f 656 616 618
f 656 618 657
f 657 618 631
f 657 631 658
f 658 631 632
f 658 632 659
f 659 632 633
f 659 633 660
f 660 633 611
f 660 611 661
f 611 610 661
f 661 610 608
f 661 608 662
f 662 608 606
f 662 606 663
f 663 606 634
f 663 634 664
f 664 634 635
f 664 635 665
f 665 635 636
f 665 636 666
f 666 636 605
f 666 605 667
f 667 605 603
f 667 603 668
f 668 603 601
f 668 601 669
f 669 601 619
f 669 619 670
f 670 619 620
f 670 620 671
f 671 620 621
f 671 621 672
f 672 621 598
f 672 598 639
f 639 598 597
f 639 597 595
f 673 674 675
f 675 674 676
f 675 676 677
f 677 676 678
f 677 678 679
f 679 678 680
f 679 680 681
f 681 680 682
f 681 682 683
f 683 682 684
f 683 684 685
f 685 684 686
f 685 686 687
f 687 686 688
f 687 688 689
f 689 688 690
f 689 690 691
f 691 690 692
f 691 692 693
f 693 692 694
f 693 694 695
f 695 694 696
f 695 696 697
f 697 696 698
f 697 698 699
f 699 698 700
f 699 700 701
f 701 700 702
f 701 702 703
f 703 702 704
f 703 704 705
f 705 704 706
f 705 706 707
f 707 706 708
f 707 708 709
f 709 708 710
f 709 710 711
f 711 710 712
f 711 712 713
f 713 712 714
f 713 714 715
f 715 714 716
f 715 716 717
f 717 716 718
f 717 718 719
f 719 718 720
f 719 720 721
f 721 720 722
f 721 722 723
f 723 722 724
f 723 724 725
f 725 724 726
f 725 726 727
f 727 726 728
f 727 728 729
f 729 728 730
f 729 730 731
f 731 730 732
f 731 732 733
f 733 732 734
f 733 734 735
f 735 734 736
f 735 736 737
f 737 736 738
f 737 738 739
f 739 738 740
f 739 740 741
f 741 740 742
f 741 742 743
f 743 742 744
f 743 744 673
f 673 744 674
f 425 742 426
f 426 742 427
f 427 742 428
f 428 742 740
f 428 740 429
f 541 738 543
f 543 738 736
f 541 540 738
f 738 540 539
f 738 539 740
f 740 539 430
f 740 430 429
f 734 548 736
f 736 548 547
f 736 547 546
f 546 545 736
f 736 545 544
f 736 544 543
f 732 550 734
f 734 550 549
f 734 549 548
f 534 535 732
f 732 535 551
f 732 551 550
f 538 537 730
f 730 537 536
f 730 536 732
f 732 536 533
f 732 533 534
f 529 528 728
f 728 528 527
f 728 527 730
f 730 527 526
f 730 526 538
f 522 726 523
f 523 726 724
f 523 724 524
f 522 532 726
f 726 532 531
f 726 531 728
f 728 531 530
f 728 530 529
f 514 513 722
f 722 513 724
f 724 513 525
f 724 525 524
f 720 519 518
f 518 517 720
f 720 517 516
f 720 516 722
f 722 516 515
f 722 515 514
f 519 720 520
f 520 720 718
f 520 718 521
f 508 507 716
f 716 507 506
f 716 506 718
f 718 506 505
f 718 505 521
f 714 502 512
f 512 511 714
f 714 511 510
f 714 510 716
f 716 510 509
f 716 509 508
f 502 714 500
f 500 714 712
f 500 712 501
f 479 478 710
f 710 478 504
f 710 504 712
f 712 504 503
f 712 503 501
f 708 487 486
f 486 485 708
f 708 485 483
f 708 483 710
f 710 483 481
f 710 481 479
f 487 708 488
f 488 708 706
f 488 706 489
f 706 493 492
f 492 491 706
f 706 491 490
f 706 490 489
f 493 706 494
f 494 706 704
f 494 704 495
f 499 702 469
f 469 702 700
f 499 498 702
f 702 498 497
f 702 497 704
f 704 497 496
f 704 496 495
f 472 471 700
f 700 471 470
f 700 470 469
f 476 698 477
f 477 698 696
f 477 696 463
f 463 696 464
f 476 475 698
f 698 475 474
f 698 474 700
f 700 474 473
f 700 473 472
f 468 467 694
f 694 467 466
f 694 466 696
f 696 466 465
f 696 465 464
f 459 458 692
f 692 458 457
f 692 457 694
f 694 457 456
f 694 456 468
f 452 690 453
f 453 690 688
f 453 688 454
f 452 462 690
f 690 462 461
f 690 461 692
f 692 461 460
f 692 460 459
f 447 279 686
f 686 279 278
f 686 278 688
f 688 278 455
f 688 455 454
f 447 686 448
f 448 686 684
f 448 684 449
f 442 439 682
f 682 439 440
f 440 441 682
f 682 441 451
f 682 451 684
f 684 451 450
f 684 450 449
f 442 682 443
f 443 682 680
f 443 680 444
f 432 431 678
f 678 431 446
f 678 446 680
f 680 446 445
f 680 445 444
f 436 435 676
f 676 435 434
f 676 434 678
f 678 434 433
f 678 433 432
f 417 416 674
f 674 416 438
f 674 438 676
f 676 438 437
f 676 437 436
f 421 420 744
f 744 420 419
f 744 419 674
f 674 419 418
f 674 418 417
f 425 424 742
f 742 424 423
f 742 423 744
f 744 423 422
f 744 422 421
f 290 745 291
f 291 745 292
f 292 745 293
f 293 745 746
f 293 746 294
f 407 747 408
f 408 747 748
f 407 297 747
f 747 297 296
f 747 296 746
f 746 296 295
f 746 295 294
f 749 413 748
f 748 413 412
f 748 412 411
f 411 410 748
f 748 410 409
f 748 409 408
f 750 415 749
f 749 415 414
f 749 414 413
f 402 401 750
f 750 401 400
f 750 400 415
f 406 405 751
f 751 405 404
f 751 404 750
f 750 404 403
f 750 403 402
f 398 397 752
f 752 397 396
f 752 396 751
f 751 396 395
f 751 395 406
f 391 753 392
f 392 753 754
f 392 754 393
f 391 390 753
f 753 390 389
f 753 389 752
f 752 389 399
f 752 399 398
f 381 380 755
f 755 380 754
f 754 380 394
f 754 394 393
f 756 386 385
f 385 384 756
f 756 384 383
f 756 383 755
f 755 383 382
f 755 382 381
f 386 756 387
f 387 756 757
f 387 757 388
f 376 375 758
f 758 375 374
f 758 374 757
f 757 374 373
f 757 373 388
f 759 368 367
f 367 379 759
f 759 379 378
f 759 378 758
f 758 378 377
f 758 377 376
f 368 759 369
f 369 759 760
f 369 760 370
f 348 347 761
f 761 347 372
f 761 372 760
f 760 372 371
f 760 371 370
f 762 353 352
f 352 351 762
f 762 351 350
f 762 350 761
f 761 350 349
f 761 349 348
f 353 762 354
f 354 762 763
f 354 763 355
f 763 359 358
f 358 357 763
f 763 357 356
f 763 356 355
f 359 763 360
f 360 763 764
f 360 764 361
f 365 765 366
f 366 765 766
f 365 364 765
f 765 364 363
f 765 363 764
f 764 363 362
f 764 362 361
f 340 338 766
f 766 338 337
f 766 337 366
f 344 767 345
f 345 767 768
f 345 768 346
f 346 768 332
f 344 343 767
f 767 343 342
f 767 342 766
f 766 342 341
f 766 341 340
f 336 335 769
f 769 335 334
f 769 334 768
f 768 334 333
f 768 333 332
f 328 327 770
f 770 327 326
f 770 326 769
f 769 326 325
f 769 325 336
f 321 771 322
f 322 771 772
f 322 772 323
f 321 331 771
f 771 331 330
f 771 330 770
f 770 330 329
f 770 329 328
f 316 315 773
f 773 315 314
f 773 314 772
f 772 314 324
f 772 324 323
f 316 773 317
f 317 773 774
f 317 774 318
f 309 306 775
f 775 306 307
f 307 308 775
f 775 308 320
f 775 320 774
f 774 320 319
f 774 319 318
f 309 775 310
f 310 775 776
f 310 776 311
f 299 298 777
f 777 298 313
f 777 313 776
f 776 313 312
f 776 312 311
f 303 302 778
f 778 302 301
f 778 301 777
f 777 301 300
f 777 300 299
f 282 281 779
f 779 281 305
f 779 305 778
f 778 305 304
f 778 304 303
f 286 285 780
f 780 285 284
f 780 284 779
f 779 284 283
f 779 283 282
f 290 289 745
f 745 289 288
f 745 288 780
f 780 288 287
f 780 287 286
f 781 761 782
f 782 761 760
f 782 760 783
f 783 760 759
f 783 759 784
f 784 759 758
f 784 758 785
f 785 758 757
f 785 757 786
f 786 757 756
f 786 756 787
f 787 756 755
f 787 755 788
f 788 755 754
f 788 754 789
f 789 754 753
f 789 753 790
f 790 753 752
f 790 752 791
f 791 752 751
f 791 751 792
f 792 751 750
f 792 750 793
f 793 750 749
f 793 749 794
f 794 749 748
f 794 748 795
f 795 748 747
f 795 747 796
f 796 747 746
f 796 746 797
f 797 746 745
f 797 745 798
f 798 745 780
f 798 780 799
f 799 780 779
f 799 779 800
f 800 779 778
f 800 778 801
f 801 778 777
f 801 777 802
f 802 777 776
f 802 776 803
f 803 776 775
f 803 775 804
f 804 775 774
f 804 774 805
f 805 774 773
f 805 773 806
f 806 773 772
f 806 772 807
f 807 772 771
f 807 771 808
f 808 771 770
f 808 770 809
f 809 770 769
f 809 769 810
f 810 769 768
f 810 768 811
f 811 768 767
f 811 767 812
f 812 767 766
f 812 766 813
f 813 766 765
f 813 765 814
f 814 765 764
f 814 764 815
f 815 764 763
f 815 763 816
f 816 763 762
f 816 762 781
f 781 762 761
f 817 556 207
f 207 556 201
f 818 817 206
f 206 817 207
f 277 818 208
f 208 818 206
f 556 817 555
f 555 817 818
f 555 818 277
f 819 560 217
f 217 560 219
f 820 819 216
f 216 819 217
f 276 820 218
f 218 820 216
f 820 276 819
f 819 276 558
f 819 558 560
f 89 88 180
f 180 553 89
f 89 553 554
f 89 554 102
f 159 157 162
f 159 162 233
f 233 162 165
f 233 165 251
f 251 165 164
f 251 164 252
f 252 164 163
f 252 163 254
f 254 163 146
f 254 146 144
f 156 158 145
f 145 158 143
f 82 83 821
f 82 822 111
f 111 822 823
f 111 823 112
f 112 823 824
f 825 114 824
f 824 114 113
f 824 113 112
f 826 95 825
f 825 95 94
f 825 94 114
f 827 104 826
f 826 104 96
f 826 96 95
f 828 101 827
f 827 101 103
f 827 103 104
f 829 106 828
f 828 106 105
f 828 105 101
f 830 92 829
f 829 92 107
f 829 107 106
f 831 98 830
f 830 98 93
f 830 93 92
f 832 100 831
f 831 100 99
f 831 99 98
f 833 109 832
f 832 109 108
f 832 108 100
f 834 115 833
f 833 115 110
f 833 110 109
f 835 836 138
f 138 78 835
f 835 78 79
f 835 79 90
f 90 79 185
f 185 79 176
f 185 176 186
f 837 91 834
f 834 91 116
f 834 116 115
f 186 176 187
f 187 176 175
f 187 175 181
f 181 175 174
f 181 174 182
f 182 174 173
f 182 173 183
f 183 173 172
f 183 172 184
f 184 172 171
f 184 171 179
f 167 177 169
f 169 177 179
f 169 179 170
f 170 179 171
f 838 839 134
f 134 141 838
f 838 141 140
f 838 140 836
f 836 140 139
f 836 139 138
f 840 841 125
f 125 137 840
f 840 137 136
f 840 136 839
f 839 136 135
f 839 135 134
f 842 843 119
f 119 131 842
f 842 131 130
f 842 130 841
f 841 130 126
f 841 126 125
f 844 845 123
f 123 122 844
f 844 122 121
f 844 121 843
f 843 121 120
f 843 120 119
f 846 847 129
f 129 128 846
f 846 128 127
f 846 127 845
f 845 127 124
f 845 124 123
f 143 158 142
f 142 158 160
f 142 160 147
f 147 160 161
f 147 161 148
f 148 161 155
f 148 155 149
f 149 155 154
f 149 154 150
f 150 154 153
f 150 153 151
f 151 153 152
f 151 152 83
f 83 152 86
f 83 86 821
f 821 86 87
f 821 87 848
f 848 87 133
f 848 133 847
f 847 133 132
f 847 132 129
f 82 821 822
f 822 821 849
f 822 849 850
f 850 849 851
f 850 851 852
f 852 851 853
f 852 853 854
f 854 853 855
f 854 855 856
f 856 855 857
f 856 857 858
f 858 857 859
f 858 859 860
f 860 859 861
f 860 861 862
f 862 861 863
f 862 863 864
f 864 863 865
f 864 865 866
f 866 865 867
f 866 867 868
f 868 867 869
f 868 869 870
f 870 869 871
f 870 871 872
f 872 871 873
f 872 873 874
f 874 873 875
f 874 875 876
f 876 875 877
f 876 877 878
f 878 877 879
f 878 879 880
f 880 879 881
f 880 881 882
f 882 881 883
f 882 883 884
f 884 883 885
f 884 885 886
f 886 885 887
f 886 887 888
f 888 887 889
f 888 889 890
f 890 889 891
f 890 891 892
f 892 891 835
f 892 835 837
f 837 835 90
f 837 90 91
f 893 888 894
f 894 888 890
f 894 890 895
f 895 890 892
f 895 892 896
f 896 892 837
f 896 837 897
f 897 837 834
f 897 834 898
f 898 834 833
f 898 833 899
f 899 833 832
f 899 832 900
f 900 832 831
f 900 831 901
f 901 831 830
f 901 830 902
f 902 830 829
f 902 829 903
f 903 829 828
f 903 828 904
f 904 828 827
f 904 827 905
f 905 827 826
f 905 826 906
f 906 826 825
f 906 825 907
f 907 825 824
f 907 824 908
f 908 824 823
f 908 823 909
f 909 823 822
f 909 822 910
f 910 822 850
f 910 850 911
f 911 850 852
f 911 852 912
f 912 852 854
f 912 854 913
f 913 854 856
f 913 856 914
f 914 856 858
f 914 858 915
f 915 858 860
f 915 860 916
f 916 860 862
f 916 862 917
f 917 862 864
f 917 864 918
f 918 864 866
f 918 866 919
f 919 866 868
f 919 868 920
f 920 868 870
f 920 870 921
f 921 870 872
f 921 872 922
f 922 872 874
f 922 874 923
f 923 874 876
f 923 876 924
f 924 876 878
f 924 878 925
f 925 878 880
f 925 880 926
f 926 880 882
f 926 882 927
f 927 882 884
f 927 884 928
f 928 884 886
f 928 886 893
f 893 886 888
f 929 887 930
f 930 887 885
f 930 885 931
f 931 885 883
f 931 883 932
f 932 883 881
f 932 881 933
f 933 881 879
f 933 879 934
f 934 879 877
f 934 877 935
f 935 877 875
f 935 875 936
f 936 875 873
f 936 873 937
f 937 873 871
f 937 871 938
f 938 871 869
f 938 869 939
f 939 869 867
f 939 867 940
f 940 867 865
f 940 865 941
f 941 865 863
f 941 863 942
f 942 863 861
f 942 861 943
f 943 861 859
f 943 859 944
f 944 859 857
f 944 857 945
f 945 857 855
f 945 855 946
f 946 855 853
f 946 853 947
f 947 853 851
f 947 851 948
f 948 851 849
f 948 849 949
f 949 849 821
f 949 821 950
f 950 821 848
f 950 848 951
f 951 848 847
f 951 847 952
f 952 847 846
f 952 846 953
f 953 846 845
f 953 845 954
f 954 845 844
f 954 844 955
f 955 844 843
f 955 843 956
f 956 843 842
f 956 842 957
f 957 842 841
f 957 841 958
f 958 841 840
f 958 840 959
f 959 840 839
f 959 839 960
f 960 839 838
f 960 838 961
f 961 838 836
f 961 836 962
f 962 836 835
f 962 835 963
f 963 835 891
f 963 891 964
f 964 891 889
f 964 889 929
f 929 889 887
f 965 815 966
f 966 815 816
f 966 816 967
f 967 816 781
f 967 781 968
f 968 781 782
f 968 782 969
f 969 782 783
f 969 783 970
f 970 783 784
f 970 784 971
f 971 784 785
f 971 785 972
f 972 785 786
f 972 786 973
f 973 786 787
f 973 787 974
f 974 787 788
f 974 788 975
f 975 788 789
f 975 789 976
f 976 789 790
f 976 790 977
f 977 790 791
f 977 791 978
f 978 791 792
f 978 792 979
f 979 792 793
f 979 793 980
f 980 793 794
f 980 794 981
f 981 794 795
f 981 795 982
f 982 795 796
f 982 796 983
f 983 796 797
f 983 797 984
f 984 797 798
f 984 798 985
f 985 798 799
f 985 799 986
f 986 799 800
f 986 800 987
f 987 800 801
f 987 801 988
f 988 801 802
f 988 802 989
f 989 802 803
f 989 803 990
f 990 803 804
f 990 804 991
f 991 804 805
f 991 805 992
f 992 805 806
f 992 806 993
f 993 806 807
f 993 807 994
f 994 807 808
f 994 808 995
f 995 808 809
f 995 809 996
f 996 809 810
f 996 810 997
f 997 810 811
f 997 811 998
f 998 811 812
f 998 812 999
f 999 812 813
f 999 813 1000
f 1000 813 814
f 1000 814 965
f 965 814 815
f 1001 970 1002
f 1002 970 971
f 1002 971 1003
f 1003 971 972
f 1003 972 1004
f 1004 972 973
f 1004 973 1005
f 1005 973 974
f 1005 974 1006
f 1006 974 975
f 1006 975 1007
f 1007 975 976
f 1007 976 1008
f 1008 976 977
f 1008 977 1009
f 1009 977 978
f 1009 978 1010
f 1010 978 979
f 1010 979 1011
f 1011 979 980
f 1011 980 1012
f 1012 980 981
f 1012 981 1013
f 1013 981 982
f 1013 982 1014
f 1014 982 983
f 1014 983 1015
f 1015 983 984
f 1015 984 1016
f 1016 984 985
f 1016 985 1017
f 1017 985 986
f 1017 986 1018
f 1018 986 987
f 1018 987 1019
f 1019 987 988
f 1019 988 1020
f 1020 988 989
f 1020 989 1021
f 1021 989 990
f 1021 990 1022
f 1022 990 991
f 1022 991 1023
f 1023 991 992
f 1023 992 1024
f 1024 992 993
f 1024 993 1025
f 1025 993 994
f 1025 994 1026
f 1026 994 995
f 1026 995 1027
f 1027 995 996
f 1027 996 1028
f 1028 996 997
f 1028 997 1029
f 1029 997 998
f 1029 998 1030
f 1030 998 999
f 1030 999 1031
f 1031 999 1000
f 1031 1000 1032
f 1032 1000 965
f 1032 965 1033
f 1033 965 966
f 1033 966 1034
f 1034 966 967
f 1034 967 1035
f 1035 967 968
f 1035 968 1036
f 1036 968 969
f 1036 969 1001
f 1001 969 970
f 1037 741 1038
f 1038 741 743
f 1038 743 1039
f 1039 743 673
f 1039 673 1040
f 1040 673 675
f 1040 675 1041
f 1041 675 677
f 1041 677 1042
f 1042 677 679
f 1042 679 1043
f 1043 679 681
f 1043 681 1044
f 1044 681 683
f 1044 683 1045
f 1045 683 685
f 1045 685 1046
f 1046 685 687
f 1046 687 1047
f 1047 687 689
f 1047 689 1048
f 1048 689 691
f 1048 691 1049
f 1049 691 693
f 1049 693 1050
f 1050 693 695
f 1050 695 1051
f 1051 695 697
f 1051 697 1052
f 1052 697 699
f 1052 699 1053
f 1053 699 701
f 1053 701 1054
f 1054 701 703
f 1054 703 1055
f 1055 703 705
f 1055 705 1056
f 1056 705 707
f 1056 707 1057
f 1057 707 709
f 1057 709 1058
f 1058 709 711
f 1058 711 1059
f 1059 711 713
f 1059 713 1060
f 1060 713 715
f 1060 715 1061
f 1061 715 717
f 1061 717 1062
f 1062 717 719
f 1062 719 1063
f 1063 719 721
f 1063 721 1064
f 1064 721 723
f 1064 723 1065
f 1065 723 725
f 1065 725 1066
f 1066 725 727
f 1066 727 1067
f 1067 727 729
f 1067 729 1068
f 1068 729 731
f 1068 731 1069
f 1069 731 733
f 1069 733 1070
f 1070 733 735
f 1070 735 1071
f 1071 735 737
f 1071 737 1072
f 1072 737 739
f 1072 739 1037
f 1037 739 741
f 1073 1042 1074
f 1074 1042 1043
f 1074 1043 1075
f 1075 1043 1044
f 1075 1044 1076
f 1076 1044 1045
f 1076 1045 1077
f 1077 1045 1046
f 1077 1046 1078
f 1078 1046 1047
f 1078 1047 1079
f 1079 1047 1048
f 1079 1048 1080
f 1080 1048 1049
f 1080 1049 1081
f 1081 1049 1050
f 1081 1050 1082
f 1082 1050 1051
f 1082 1051 1083
f 1083 1051 1052
f 1083 1052 1084
f 1084 1052 1053
f 1084 1053 1085
f 1085 1053 1054
f 1085 1054 1086
f 1086 1054 1055
f 1086 1055 1087
f 1087 1055 1056
f 1087 1056 1088
f 1088 1056 1057
f 1088 1057 1089
f 1089 1057 1058
f 1089 1058 1090
f 1090 1058 1059
f 1090 1059 1091
f 1091 1059 1060
f 1091 1060 1092
f 1092 1060 1061
f 1092 1061 1093
f 1093 1061 1062
f 1093 1062 1094
f 1094 1062 1063
f 1094 1063 1095
f 1095 1063 1064
f 1095 1064 1096
f 1096 1064 1065
f 1096 1065 1097
f 1097 1065 1066
f 1097 1066 1098
f 1098 1066 1067
f 1098 1067 1099
f 1099 1067 1068
f 1099 1068 1100
f 1100 1068 1069
f 1100 1069 1101
f 1101 1069 1070
f 1101 1070 1102
f 1102 1070 1071
f 1102 1071 1103
f 1103 1071 1072
f 1103 1072 1104
f 1104 1072 1037
f 1104 1037 1105
f 1105 1037 1038
f 1105 1038 1106
f 1106 1038 1039
f 1106 1039 1107
f 1107 1039 1040
f 1107 1040 1108
f 1108 1040 1041
f 1108 1041 1073
f 1073 1041 1042
f 1109 234 1110
f 1110 234 253
f 1110 253 1111
f 1111 253 255
f 1111 255 1112
f 1112 255 256
f 1112 256 1113
f 1113 256 263
f 1113 263 1114
f 1114 263 262
f 1114 262 1115
f 1115 262 261
f 1115 261 1116
f 1116 261 250
f 1116 250 1117
f 1117 250 249
f 1117 249 1118
f 1118 249 247
f 1118 247 1119
f 1119 247 246
f 1119 246 1120
f 1120 246 236
f 1120 236 1121
f 1121 236 235
f 1121 235 1122
f 1122 235 200
f 1122 200 1123
f 1123 200 199
f 1123 199 1124
f 1124 199 275
f 1124 275 1125
f 1125 275 274
f 1125 274 1126
f 1126 274 272
f 1126 272 1127
f 1127 272 270
f 1127 270 1128
f 1128 270 267
f 1128 267 1129
f 1129 267 265
f 1129 265 1130
f 1130 265 264
f 1130 264 1131
f 1131 264 260
f 1131 260 1132
f 1132 260 259
f 1132 259 1133
f 1133 259 258
f 1133 258 1134
f 1134 258 257
f 1134 257 1135
f 1135 257 241
f 1135 241 1136
f 1136 241 242
f 1136 242 1137
f 1137 242 244
f 1137 244 1138
f 1138 244 245
f 1138 245 1139
f 1139 245 240
f 1139 240 1140
f 1140 240 239
f 1140 239 1141
f 1141 239 238
f 1141 238 1142
f 1142 238 237
f 1142 237 1143
f 1143 237 231
f 1143 231 1144
f 1144 231 232
f 1144 232 1109
f 1109 232 234
f 1145 1146 1147
f 1147 1146 1148
f 1147 1148 1149
f 1149 1148 1150
f 1149 1150 1151
f 1151 1150 1152
f 1151 1152 1153
f 1153 1152 1154
f 1153 1154 1155
f 1155 1154 1156
f 1155 1156 1157
f 1157 1156 1158
f 1157 1158 1159
f 1159 1158 1160
f 1159 1160 1161
f 1161 1160 1162
f 1161 1162 1163
f 1163 1162 1164
f 1163 1164 1165
f 1165 1164 1166
f 1165 1166 1167
f 1167 1166 1168
f 1167 1168 1169
f 1169 1168 1170
f 1169 1170 1171
f 1171 1170 1172
f 1171 1172 1173
f 1173 1172 1174
f 1173 1174 1175
f 1175 1174 1176
f 1175 1176 1177
f 1177 1176 1178
f 1177 1178 1179
f 1179 1178 1180
f 1179 1180 1181
f 1181 1180 1182
f 1181 1182 1183
f 1183 1182 1184
f 1183 1184 1185
f 1185 1184 1186
f 1185 1186 1187
f 1187 1186 1188
f 1187 1188 1189
f 1189 1188 1190
f 1189 1190 1191
f 1191 1190 1192
f 1191 1192 1193
f 1193 1192 1194
f 1193 1194 1195
f 1195 1194 1196
f 1195 1196 1197
f 1197 1196 1198
f 1197 1198 1199
f 1199 1198 1200
f 1199 1200 1201
f 1201 1200 1202
f 1201 1202 1203
f 1203 1202 1204
f 1203 1204 1205
f 1205 1204 1206
f 1205 1206 1207
f 1207 1206 1208
f 1207 1208 1209
f 1209 1208 1210
f 1209 1210 1211
f 1211 1210 1212
f 1211 1212 1213
f 1213 1212 1214
f 1213 1214 1215
f 1215 1214 1216
f 1215 1216 1145
f 1145 1216 1146
f 1217 1151 1218
f 1218 1151 1153
f 1218 1153 1219
f 1219 1153 1155
f 1219 1155 1220
f 1220 1155 1157
f 1220 1157 1221
f 1221 1157 1159
f 1221 1159 1222
f 1222 1159 1161
f 1222 1161 1223
f 1223 1161 1163
f 1223 1163 1224
f 1224 1163 1165
f 1224 1165 1225
f 1225 1165 1167
f 1225 1167 1226
f 1226 1167 1169
f 1226 1169 1227
f 1227 1169 1171
f 1227 1171 1228
f 1228 1171 1173
f 1228 1173 1229
f 1229 1173 1175
f 1229 1175 1230
f 1230 1175 1177
f 1230 1177 1231
f 1231 1177 1179
f 1231 1179 1232
f 1232 1179 1181
f 1232 1181 1233
f 1233 1181 1183
f 1233 1183 1234
f 1234 1183 1185
f 1234 1185 1235
f 1235 1185 1187
f 1235 1187 1236
f 1236 1187 1189
f 1236 1189 1237
f 1237 1189 1191
f 1237 1191 1238
f 1238 1191 1193
f 1238 1193 1239
f 1239 1193 1195
f 1239 1195 1240
f 1240 1195 1197
f 1240 1197 1241
f 1241 1197 1199
f 1241 1199 1242
f 1242 1199 1201
f 1242 1201 1243
f 1243 1201 1203
f 1243 1203 1244
f 1244 1203 1205
f 1244 1205 1245
f 1245 1205 1207
f 1245 1207 1246
f 1246 1207 1209
f 1246 1209 1247
f 1247 1209 1211
f 1247 1211 1248
f 1248 1211 1213
f 1248 1213 1249
f 1249 1213 1215
f 1249 1215 1250
f 1250 1215 1145
f 1250 1145 1251
f 1251 1145 1147
f 1251 1147 1252
f 1252 1147 1149
f 1252 1149 1217
f 1217 1149 1151
f 1253 637 1254
f 1254 637 650
f 1254 650 1255
f 1255 650 651
f 1255 651 1256
f 1256 651 652
f 1256 652 1257
f 1257 652 653
f 1257 653 1258
f 1258 653 654
f 1258 654 1259
f 1259 654 655
f 1259 655 1260
f 1260 655 656
f 1260 656 1261
f 1261 656 657
f 1261 657 1262
f 1262 657 658
f 1262 658 1263
f 1263 658 659
f 1263 659 1264
f 1264 659 660
f 1264 660 1265
f 1265 660 661
f 1265 661 1266
f 1266 661 662
f 1266 662 1267
f 1267 662 663
f 1267 663 1268
f 1268 663 664
f 1268 664 1269
f 1269 664 665
f 1269 665 1270
f 1270 665 666
f 1270 666 1271
f 1271 666 667
f 1271 667 1272
f 1272 667 668
f 1272 668 1273
f 1273 668 669
f 1273 669 1274
f 1274 669 670
f 1274 670 1275
f 1275 670 671
f 1275 671 1276
f 1276 671 672
f 1276 672 1277
f 1277 672 639
f 1277 639 1278
f 1278 639 640
f 1278 640 1279
f 1279 640 641
f 1279 641 1280
f 1280 641 642
f 1280 642 1281
f 1281 642 643
f 1281 643 1282
f 1282 643 644
f 1282 644 1283
f 1283 644 645
f 1283 645 1284
f 1284 645 646
f 1284 646 1285
f 1285 646 647
f 1285 647 1286
f 1286 647 648
f 1286 648 1287
f 1287 648 649
f 1287 649 1288
f 1288 649 638
f 1288 638 1253
f 1253 638 637
f 1289 1264 1290
f 1290 1264 1265
f 1290 1265 1291
f 1291 1265 1266
f 1291 1266 1292
f 1292 1266 1267
f 1292 1267 1293
f 1293 1267 1268
f 1293 1268 1294
f 1294 1268 1269
f 1294 1269 1295
f 1295 1269 1270
f 1295 1270 1296
f 1296 1270 1271
f 1296 1271 1297
f 1297 1271 1272
f 1297 1272 1298
f 1298 1272 1273
f 1298 1273 1299
f 1299 1273 1274
f 1299 1274 1300
f 1300 1274 1275
f 1300 1275 1301
f 1301 1275 1276
f 1301 1276 1302
f 1302 1276 1277
f 1302 1277 1303
f 1303 1277 1278
f 1303 1278 1304
f 1304 1278 1279
f 1304 1279 1305
f 1305 1279 1280
f 1305 1280 1306
f 1306 1280 1281
f 1306 1281 1307
f 1307 1281 1282
f 1307 1282 1308
f 1308 1282 1283
f 1308 1283 1309
f 1309 1283 1284
f 1309 1284 1310
f 1310 1284 1285
f 1310 1285 1311
f 1311 1285 1286
f 1311 1286 1312
f 1312 1286 1287
f 1312 1287 1313
f 1313 1287 1288
f 1313 1288 1314
f 1314 1288 1253
f 1314 1253 1315
f 1315 1253 1254
f 1315 1254 1316
f 1316 1254 1255
f 1316 1255 1317
f 1317 1255 1256
f 1317 1256 1318
f 1318 1256 1257
f 1318 1257 1319
f 1319 1257 1258
f 1319 1258 1320
f 1320 1258 1259
f 1320 1259 1321
f 1321 1259 1260
f 1321 1260 1322
f 1322 1260 1261
f 1322 1261 1323
f 1323 1261 1262
f 1323 1262 1324
f 1324 1262 1263
f 1324 1263 1289
f 1289 1263 1264
f 1234 1315 1233
f 1233 1315 1316
f 1233 1316 1232
f 1232 1316 1317
f 1232 1317 1231
f 1231 1317 1318
f 1231 1318 1230
f 1230 1318 1319
f 1230 1319 1229
f 1229 1319 1320
f 1229 1320 1228
f 1228 1320 1321
f 1228 1321 1227
f 1227 1321 1322
f 1227 1322 1226
f 1226 1322 1323
f 1226 1323 1225
f 1225 1323 1324
f 1225 1324 1224
f 1224 1324 1289
f 1224 1289 1223
f 1223 1289 1290
f 1223 1290 1222
f 1222 1290 1291
f 1222 1291 1221
f 1221 1291 1292
f 1221 1292 1220
f 1220 1292 1293
f 1220 1293 1219
f 1219 1293 1294
f 1219 1294 1218
f 1218 1294 1295
f 1218 1295 1217
f 1217 1295 1296
f 1217 1296 1252
f 1252 1296 1297
f 1252 1297 1251
f 1251 1297 1298
f 1251 1298 1250
f 1250 1298 1299
f 1250 1299 1249
f 1249 1299 1300
f 1249 1300 1248
f 1248 1300 1301
f 1248 1301 1247
f 1247 1301 1302
f 1247 1302 1246
f 1246 1302 1303
f 1246 1303 1245
f 1245 1303 1304
f 1245 1304 1244
f 1244 1304 1305
f 1244 1305 1243
f 1243 1305 1306
f 1243 1306 1242
f 1242 1306 1307
f 1242 1307 1241
f 1241 1307 1308
f 1241 1308 1240
f 1240 1308 1309
f 1240 1309 1239
f 1239 1309 1310
f 1239 1310 1238
f 1238 1310 1311
f 1238 1311 1237
f 1237 1311 1312
f 1237 1312 1236
f 1236 1312 1313
f 1236 1313 1235
f 1235 1313 1314
f 1235 1314 1234
f 1234 1314 1315
f 1325 1033 1326
f 1326 1033 1034
f 1326 1034 1327
f 1327 1034 1035
f 1327 1035 1328
f 1328 1035 1036
f 1328 1036 1329
f 1329 1036 1001
f 1329 1001 1330
f 1330 1001 1002
f 1330 1002 1331
f 1331 1002 1003
f 1331 1003 1332
f 1332 1003 1004
f 1332 1004 1333
f 1333 1004 1005
f 1333 1005 1334
f 1334 1005 1006
f 1334 1006 1335
f 1335 1006 1007
f 1335 1007 1336
f 1336 1007 1008
f 1336 1008 1337
f 1337 1008 1009
f 1337 1009 1338
f 1338 1009 1010
f 1338 1010 1339
f 1339 1010 1011
f 1339 1011 1340
f 1340 1011 1012
f 1340 1012 1341
f 1341 1012 1013
f 1341 1013 1342
f 1342 1013 1014
f 1342 1014 1343
f 1343 1014 1015
f 1343 1015 1344
f 1344 1015 1016
f 1344 1016 1345
f 1345 1016 1017
f 1345 1017 1346
f 1346 1017 1018
f 1346 1018 1347
f 1347 1018 1019
f 1347 1019 1348
f 1348 1019 1020
f 1348 1020 1349
f 1349 1020 1021
f 1349 1021 1350
f 1350 1021 1022
f 1350 1022 1351
f 1351 1022 1023
f 1351 1023 1352
f 1352 1023 1024
f 1352 1024 1353
f 1353 1024 1025
f 1353 1025 1354
f 1354 1025 1026
f 1354 1026 1355
f 1355 1026 1027
f 1355 1027 1356
f 1356 1027 1028
f 1356 1028 1357
f 1357 1028 1029
f 1357 1029 1358
f 1358 1029 1030
f 1358 1030 1359
f 1359 1030 1031
f 1359 1031 1360
f 1360 1031 1032
f 1360 1032 1325
f 1325 1032 1033
f 1353 1354 1355
f 1350 1338 1339
f 1338 1350 1337
f 1337 1350 1335
f 1337 1335 1336
f 1350 1351 1352
f 1353 1355 1332
f 1332 1355 1330
f 1332 1330 1331
f 1334 1335 1333
f 1333 1335 1350
f 1333 1350 1332
f 1332 1350 1352
f 1332 1352 1353
f 1342 1343 1341
f 1341 1343 1350
f 1341 1350 1340
f 1340 1350 1339
f 1349 1350 1348
f 1348 1350 1343
f 1348 1343 1347
f 1347 1343 1344
f 1347 1344 1346
f 1346 1344 1345
f 1355 1356 1330
f 1330 1356 1357
f 1330 1357 1358
f 1327 1328 1326
f 1326 1328 1329
f 1326 1329 1325
f 1325 1329 1330
f 1325 1330 1360
f 1360 1330 1358
f 1360 1358 1359
f 1361 1105 1362
f 1362 1105 1106
f 1362 1106 1363
f 1363 1106 1107
f 1363 1107 1364
f 1364 1107 1108
f 1364 1108 1365
f 1365 1108 1073
f 1365 1073 1366
f 1366 1073 1074
f 1366 1074 1367
f 1367 1074 1075
f 1367 1075 1368
f 1368 1075 1076
f 1368 1076 1369
f 1369 1076 1077
f 1369 1077 1370
f 1370 1077 1078
f 1370 1078 1371
f 1371 1078 1079
f 1371 1079 1372
f 1372 1079 1080
f 1372 1080 1373
f 1373 1080 1081
f 1373 1081 1374
f 1374 1081 1082
f 1374 1082 1375
f 1375 1082 1083
f 1375 1083 1376
f 1376 1083 1084
f 1376 1084 1377
f 1377 1084 1085
f 1377 1085 1378
f 1378 1085 1086
f 1378 1086 1379
f 1379 1086 1087
f 1379 1087 1380
f 1380 1087 1088
f 1380 1088 1381
f 1381 1088 1089
f 1381 1089 1382
f 1382 1089 1090
f 1382 1090 1383
f 1383 1090 1091
f 1383 1091 1384
f 1384 1091 1092
f 1384 1092 1385
f 1385 1092 1093
f 1385 1093 1386
f 1386 1093 1094
f 1386 1094 1387
f 1387 1094 1095
f 1387 1095 1388
f 1388 1095 1096
f 1388 1096 1389
f 1389 1096 1097
f 1389 1097 1390
f 1390 1097 1098
f 1390 1098 1391
f 1391 1098 1099
f 1391 1099 1392
f 1392 1099 1100
f 1392 1100 1393
f 1393 1100 1101
f 1393 1101 1394
f 1394 1101 1102
f 1394 1102 1395
f 1395 1102 1103
f 1395 1103 1396
f 1396 1103 1104
f 1396 1104 1361
f 1361 1104 1105
f 1389 1390 1391
f 1386 1374 1375
f 1374 1386 1373
f 1373 1386 1371
f 1373 1371 1372
f 1386 1387 1388
f 1389 1391 1368
f 1368 1391 1366
f 1368 1366 1367
f 1370 1371 1369
f 1369 1371 1386
f 1369 1386 1368
f 1368 1386 1388
f 1368 1388 1389
f 1378 1379 1377
f 1377 1379 1386
f 1377 1386 1376
f 1376 1386 1375
f 1385 1386 1384
f 1384 1386 1379
f 1384 1379 1383
f 1383 1379 1380
f 1383 1380 1382
f 1382 1380 1381
f 1391 1392 1366
f 1366 1392 1393
f 1366 1393 1394
f 1363 1364 1362
f 1362 1364 1365
f 1362 1365 1361
f 1361 1365 1366
f 1361 1366 1396
f 1396 1366 1394
f 1396 1394 1395
f 955 904 954
f 954 904 905
f 954 905 953
f 953 905 906
f 953 906 952
f 952 906 907
f 952 907 951
f 951 907 908
f 951 908 950
f 950 908 909
f 950 909 949
f 949 909 910
f 949 910 948
f 948 910 911
f 948 911 947
f 947 911 912
f 947 912 946
f 946 912 913
f 946 913 945
f 945 913 914
f 945 914 944
f 944 914 915
f 944 915 943
f 943 915 916
f 943 916 942
f 942 916 917
f 942 917 941
f 941 917 918
f 941 918 940
f 940 918 919
f 940 919 939
f 939 919 920
f 939 920 938
f 938 920 921
f 938 921 937
f 937 921 922
f 937 922 936
f 936 922 923
f 936 923 935
f 935 923 924
f 935 924 934
f 934 924 925
f 934 925 933
f 933 925 926
f 933 926 932
f 932 926 927
f 932 927 931
f 931 927 928
f 931 928 930
f 930 928 893
f 930 893 929
f 929 893 894
f 929 894 964
f 964 894 895
f 964 895 963
f 963 895 896
f 963 896 962
f 962 896 897
f 962 897 961
f 961 897 898
f 961 898 960
f 960 898 899
f 960 899 959
f 959 899 900
f 959 900 958
f 958 900 901
f 958 901 957
f 957 901 902
f 957 902 956
f 956 902 903
f 956 903 955
f 955 903 904
f 1148 1111 1150
f 1150 1111 1112
f 1150 1112 1152
f 1152 1112 1113
f 1152 1113 1154
f 1154 1113 1114
f 1154 1114 1156
f 1156 1114 1115
f 1156 1115 1158
f 1158 1115 1116
f 1158 1116 1160
f 1160 1116 1117
f 1160 1117 1162
f 1162 1117 1118
f 1162 1118 1164
f 1164 1118 1119
f 1164 1119 1166
f 1166 1119 1120
f 1166 1120 1168
f 1168 1120 1121
f 1168 1121 1170
f 1170 1121 1122
f 1170 1122 1172
f 1172 1122 1123
f 1172 1123 1174
f 1174 1123 1124
f 1174 1124 1176
f 1176 1124 1125
f 1176 1125 1178
f 1178 1125 1126
f 1178 1126 1180
f 1180 1126 1127
f 1180 1127 1182
f 1182 1127 1128
f 1182 1128 1184
f 1184 1128 1129
f 1184 1129 1186
f 1186 1129 1130
f 1186 1130 1188
f 1188 1130 1131
f 1188 1131 1190
f 1190 1131 1132
f 1190 1132 1192
f 1192 1132 1133
f 1192 1133 1194
f 1194 1133 1134
f 1194 1134 1196
f 1196 1134 1135
f 1196 1135 1198
f 1198 1135 1136
f 1198 1136 1200
f 1200 1136 1137
f 1200 1137 1202
f 1202 1137 1138
f 1202 1138 1204
f 1204 1138 1139
f 1204 1139 1206
f 1206 1139 1140
f 1206 1140 1208
f 1208 1140 1141
f 1208 1141 1210
f 1210 1141 1142
f 1210 1142 1212
f 1212 1142 1143
f 1212 1143 1214
f 1214 1143 1144
f 1214 1144 1216
f 1216 1144 1109
f 1216 1109 1146
f 1146 1109 1110
f 1146 1110 1148
f 1148 1110 1111
f 586 564 584
f 584 564 565
f 584 565 582
f 582 565 580
f 580 565 15
f 580 15 578
f 15 14 578
f 586 566 564
f 482 577 480
f 480 577 589
f 480 589 61
f 61 589 591
f 482 568 577
f 591 62 61
f 599 46 600
f 600 46 542
f 600 542 596
f 596 542 594
f 594 542 75
f 594 75 576
f 75 74 576
f 599 47 46
f 51 575 552
f 552 575 602
f 552 602 31
f 31 602 604
f 51 50 575
f 604 32 31
f 612 16 613
f 613 16 280
f 613 280 609
f 609 280 607
f 607 280 45
f 607 45 574
f 45 44 574
f 612 17 16
f 21 573 339
f 339 573 617
f 339 617 1
f 1 617 615
f 21 20 573
f 615 2 1
