# Created by meshio v5.3.5, 2025-09-16T09:26:05.958572
v -10.0892 2.235589 8.70239
v -10.0892 2.235588 0.0003204346
v -9.398367 2.126173 8.702384
v -9.398367 2.126172 0.0003204346
v -8.775154 1.808629 8.702382
v -8.775154 1.808629 0.0003242493
v -8.280572 1.314045 8.702378
v -8.280572 1.314045 0.0003318787
v -7.963031 0.6908343 8.702374
v -7.963031 0.6908343 0.0003356934
v -7.853611 -3.576279e-06 8.702367
v -7.853611 -3.576279e-06 0.0003471375
v -7.963031 -0.6908376 8.702363
v -7.963031 -0.6908386 0.0003547668
v -8.280572 -1.314049 8.702359
v -8.280572 -1.31405 0.0003623962
v -8.775154 -1.808635 8.702359
v -8.775154 -1.808635 0.0003700256
v -9.398367 -2.126177 8.702355
v -9.398367 -2.126177 0.000377655
v -10.0892 -2.235594 8.702355
v -10.0892 -2.235594 0.000377655
v -10.78004 -2.126177 8.702361
v -10.78004 -2.126177 0.000377655
v -11.40325 -1.808635 8.702363
v -11.40325 -1.808635 0.0003738403
v -11.89784 -1.314049 8.702367
v -11.89784 -1.31405 0.0003700256
v -12.21538 -0.6908376 8.702371
v -12.21538 -0.6908386 0.0003623962
v -12.32479 -3.576279e-06 8.702378
v -12.32479 -3.576279e-06 0.0003509521
v -12.21538 0.6908343 8.702382
v -12.21538 0.6908343 0.0003433228
v -11.89784 1.314045 8.702386
v -11.89784 1.314045 0.0003318787
v -11.40325 1.80863 8.702386
v -11.40325 1.808629 0.000328064
v -10.78004 2.126173 8.702386
v -10.78004 2.126172 0.0003242493
v -15.01503 -4.529953e-06 0.2590828
v -14.83255 -4.529953e-06 0.0002174377
v -14.26167 -1.973112 0.2590828
v -14.15764 -1.906171 0.0002174377
v -15.00255 -1.66893e-06 5.178342
v -14.23424 -1.973111 5.178342
v -14.03226 -1.781055 8.138455
v -14.55659 -1.66893e-06 8.138455
v -14.0278 -1.766114 8.293374
v -14.53154 -1.66893e-06 8.293393
v -14.01245 -1.742778 8.431415
v -14.48758 -1.66893e-06 8.43146
v -13.98685 -1.712259 8.545922
v -14.42747 -1.66893e-06 8.546002
v -13.95205 -1.67609 8.631534
v -14.35447 -1.66893e-06 8.63166
v -13.90561 -1.636051 8.684375
v -14.2643 -1.66893e-06 8.684556
v -13.82677 -1.594064 8.702203
v -14.17002 -1.66893e-06 8.702451
v -12.90738 3.864128 0.2590828
v -12.87853 3.733027 0.0002174377
v -14.39882 1.781607 0.2590828
v -14.28717 1.721161 0.0002174377
v -14.37283 1.781615 5.17846
v -12.86561 3.864142 5.178597
v -12.89747 3.488018 8.138734
v -14.14718 1.608196 8.138585
v -12.91275 3.458754 8.293633
v -14.14072 1.594705 8.293504
v -14.12258 1.573635 8.431542
v -12.9248 3.413056 8.431642
v -14.09364 1.546078 8.546056
v -12.93229 3.353287 8.546117
v -14.05513 1.513418 8.631673
v -12.9341 3.282454 8.631686
v -14.00445 1.477265 8.684518
v -12.92956 3.204037 8.684474
v -13.92411 1.439352 8.702352
v -12.86553 3.12181 8.702237
v -2.723106 4.54068 5.178597
v 2.749283 6.249712 5.1787
v -1.862356 4.540673 0.2590828
v 2.749283 6.249705 0.2597046
v -12.90738 -3.864143 0.2590828
v -12.86561 -3.864143 5.178342
v -1.862354 -4.540682 0.2590828
v -2.722755 -4.540683 5.178075
v 2.749285 -6.24971 5.178697
v 2.749285 -6.249714 0.2597084
v 4.902788 -7.346975 5.178697
v 5.135146 -6.63185 8.138734
v 3.09284 -5.64139 8.138734
v -3.019645 -4.098708 8.138185
v -12.89747 -3.488021 8.138455
v -3.019645 4.098704 8.138734
v 2.97189 5.641392 8.138734
v 5.135149 6.63184 8.13873
v 4.902787 7.346972 5.178506
v 5.310578 6.091919 8.684653
v 2.846298 5.182102 8.684653
v 5.36138 5.93557 8.702481
v 2.825234 5.049097 8.702477
v 5.262135 6.241015 8.631812
v 2.866397 5.308926 8.631812
v 5.218379 6.375683 8.546199
v 2.88711 5.423487 8.546199
v 5.181458 6.489317 8.431689
v 2.910323 5.520146 8.431689
v 5.153225 6.576203 8.293649
v 2.937937 5.594061 8.293656
v -3.350048 3.765017 8.684653
v -3.402458 3.668385 8.702481
v -3.276006 3.857157 8.631812
v -3.177083 3.94039 8.546199
v -3.061211 4.010618 8.431689
v -2.933209 4.06432 8.293653
v -12.92956 -3.204041 8.684201
v -12.86553 -3.121815 8.701964
v -12.9341 -3.282458 8.631412
v -12.93229 -3.353287 8.545846
v -12.9248 -3.413057 8.431369
v -12.91275 -3.458759 8.293355
v -3.350076 -3.765039 8.684636
v -3.402458 -3.668385 8.702659
v -3.107946 -3.857185 8.631635
v -2.823746 -4.064321 8.293162
v -2.71115 -4.010628 8.431275
v 2.825234 -5.049097 8.702001
v 2.846314 -5.18208 8.684299
v 2.866414 -5.308905 8.631566
v -2.900491 -3.940407 8.545886
v 2.985374 -5.423466 8.546041
v 3.073732 -5.520142 8.431596
v 3.127225 -5.59406 8.293614
v 5.361382 -5.93557 8.702477
v 5.310579 -6.091923 8.684648
v 5.262136 -6.241017 8.631812
v 5.218379 -6.375685 8.546199
v 5.181457 -6.489321 8.431689
v 5.153224 -6.576211 8.293653
v -1.967872 4.386618 0.0004272461
v 2.903337 6.037667 0.0001907349
v -12.87853 -3.733043 0.0002174377
v -1.96787 -4.386627 0.0004310608
v 2.90334 -6.037676 0.0006217957
v 4.902787 7.346972 0.2584686
v 4.983779 7.097708 2.670288e-05
v 9.677142 -7.346979 0.2597046
v 9.59615 -7.097715 0.0004005432
v 11.83064 -6.249714 0.2584686
v 11.67659 -6.037677 0.0002365112
v 4.902788 -7.346979 0.2597046
v 7.289965 -7.725065 0.2597046
v 7.289965 -7.725064 5.178697
v 9.677142 -7.346975 5.178697
v 11.83064 -6.24971 5.1785
v 13.53967 -4.540682 0.259079
v 13.53967 -4.540683 5.178597
v 14.63694 -2.38718 0.2590828
v 14.63694 -2.38718 5.178342
v 15.01503 -4.529953e-06 0.2591209
v 15.01503 -1.66893e-06 5.17825
v 14.63694 2.387169 0.2590828
v 14.63694 2.387174 5.178336
v 13.53967 4.540673 0.2590828
v 13.53967 4.54068 5.178075
v 11.83064 6.249705 0.2597046
v 11.83064 6.249705 5.1787
v 9.67714 7.346972 0.2597046
v 9.67714 7.346972 5.1787
v 7.289965 7.725058 0.2584686
v 7.289965 7.725065 5.178506
v 12.93135 4.098707 8.138185
v 11.38867 5.641382 8.138734
v 13.92181 2.154813 8.138455
v 14.2631 -1.66893e-06 8.138358
v 13.92181 -2.154819 8.138455
v 12.93135 -4.098708 8.13873
v 11.38867 -5.641381 8.138724
v 9.444782 -6.63185 8.138734
v 7.289965 -6.973138 8.138734
v 7.289965 6.97313 8.138734
v 9.444782 6.631848 8.138734
v 7.289965 6.241022 8.702481
v 7.289965 4.32724 8.702352
v 7.289965 -4.327246 8.702346
v 7.289965 -6.241027 8.702481
v 9.218547 5.93557 8.702481
v 8.627157 4.115454 8.702346
v 10.95835 5.049093 8.701997
v 9.833456 3.500813 8.702342
v 12.33906 3.668385 8.702659
v 10.79078 2.543488 8.702334
v 13.22553 1.928582 8.701879
v 11.40542 1.337189 8.702327
v 13.53099 -1.66893e-06 8.702283
v 11.61721 -4.529953e-06 8.702325
v 13.22553 -1.928587 8.702361
v 11.40542 -1.337196 8.702332
v 12.33906 -3.668385 8.702237
v 10.79078 -2.543494 8.702327
v 10.95835 -5.049097 8.702481
v 9.833456 -3.500819 8.702332
v 9.218548 -5.93557 8.702477
v 8.627157 -4.115458 8.702342
v 7.289965 6.914627 8.293653
v 7.289965 6.823271 8.431689
v 7.289965 6.703787 8.546199
v 7.289965 6.562191 8.631812
v 7.289965 6.405421 8.684653
v 7.289965 -6.405428 8.684653
v 7.289965 -6.562192 8.631812
v 7.289965 -6.703791 8.546199
v 7.289965 -6.823274 8.431689
v 7.289965 -6.914635 8.293653
v 9.269351 -6.091923 8.684648
v 9.317794 -6.241017 8.631812
v 9.361551 -6.375685 8.546199
v 9.398473 -6.489321 8.431689
v 9.426704 -6.576211 8.293653
v 11.05498 -5.182099 8.684653
v 11.14712 -5.308925 8.631812
v 11.23035 -5.42348 8.546193
v 11.30058 -5.520144 8.431684
v 11.35428 -5.594053 8.293649
v 12.47205 -3.765009 8.684474
v 12.59888 -3.857155 8.631686
v 12.71344 -3.940387 8.546117
v 12.81011 -4.010622 8.431642
v 12.88402 -4.064322 8.29363
v 13.38189 -1.979391 8.684489
v 13.53099 -2.027836 8.631616
v 13.66565 -2.07159 8.545972
v 13.77928 -2.108509 8.431445
v 13.86617 -2.136742 8.293389
v 13.6954 -1.66893e-06 8.684405
v 13.85217 -1.66893e-06 8.631524
v 13.99376 -1.66893e-06 8.545882
v 14.11324 -1.66893e-06 8.431348
v 14.2046 -1.66893e-06 8.293294
v 13.38187 1.979378 8.684133
v 13.53096 2.02782 8.631368
v 13.66564 2.071581 8.545815
v 13.77928 2.108503 8.431348
v 13.86617 2.136736 8.293351
v 12.47209 3.765036 8.684636
v 12.59892 3.857184 8.631635
v 12.71347 3.940407 8.545884
v 12.81012 4.010626 8.431275
v 12.88402 4.064318 8.29316
v 11.05496 5.182076 8.684293
v 11.14711 5.308903 8.631562
v 11.23034 5.423462 8.546041
v 11.30058 5.52014 8.4316
v 11.35429 5.594055 8.293614
v 9.269349 6.091919 8.684653
v 9.317794 6.241015 8.631814
v 9.361551 6.375685 8.546199
v 9.398472 6.489317 8.431691
v 9.426704 6.57621 8.293656
v 4.98378 -7.097715 0.000831604
v 7.289965 -7.462973 0.000831604
v 7.289965 4.327238 0.0002555847
v 7.289965 -4.327246 0.0004196167
v 7.289965 7.462963 2.670288e-05
v 9.59615 7.097708 0.0004005432
v 8.627157 4.115454 0.0002555847
v 11.67659 6.037667 0.0006217957
v 9.833456 3.500813 0.0002670288
v 13.32764 4.386618 0.0004272461
v 10.79078 2.543487 0.0002746582
v 14.38767 2.306178 0.0002288818
v 11.40542 1.337189 0.0002937317
v 14.75294 -4.529953e-06 0.0002288818
v 11.61721 -4.529953e-06 0.0003204346
v 14.38767 -2.306189 0.0002288818
v 11.40542 -1.337196 0.0003471375
v 13.32764 -4.386627 0.0
v 10.79078 -2.543494 0.0003738403
v 9.833456 -3.500819 0.0003929138
v 8.627157 -4.115458 0.0004119873
f 1 2 3
f 3 2 4
f 3 4 5
f 5 4 6
f 5 6 7
f 7 6 8
f 7 8 9
f 9 8 10
f 9 10 11
f 11 10 12
f 11 12 13
f 13 12 14
f 13 14 15
f 15 14 16
f 15 16 17
f 17 16 18
f 17 18 19
f 19 18 20
f 19 20 21
f 21 20 22
f 21 22 23
f 23 22 24
f 23 24 25
f 25 24 26
f 25 26 27
f 27 26 28
f 27 28 29
f 29 28 30
f 29 30 31
f 31 30 32
f 31 32 33
f 33 32 34
f 33 34 35
f 35 34 36
f 35 36 37
f 37 36 38
f 37 38 39
f 39 38 40
f 39 40 1
f 1 40 2
f 41 42 43
f 43 42 44
f 41 43 45
f 45 43 46
f 47 48 46
f 46 48 45
f 47 49 48
f 48 49 50
f 49 51 50
f 50 51 52
f 51 53 52
f 52 53 54
f 53 55 54
f 54 55 56
f 55 57 56
f 56 57 58
f 57 59 58
f 58 59 60
f 61 62 63
f 63 62 64
f 63 65 61
f 61 65 66
f 66 65 67
f 67 65 68
f 67 68 69
f 69 68 70
f 71 72 70
f 70 72 69
f 73 74 71
f 71 74 72
f 75 76 73
f 73 76 74
f 77 78 75
f 75 78 76
f 79 80 77
f 77 80 78
f 81 82 83
f 83 82 84
f 66 81 61
f 61 81 83
f 41 45 63
f 63 45 65
f 43 85 46
f 46 85 86
f 87 88 85
f 85 88 86
f 88 87 89
f 89 87 90
f 91 92 89
f 89 92 93
f 94 88 93
f 93 88 89
f 88 94 86
f 86 94 95
f 86 95 46
f 46 95 47
f 45 48 65
f 65 48 68
f 67 96 66
f 66 96 81
f 96 97 81
f 81 97 82
f 97 98 82
f 82 98 99
f 100 101 102
f 102 101 103
f 104 105 100
f 100 105 101
f 106 107 104
f 104 107 105
f 108 109 106
f 106 109 107
f 110 111 108
f 108 111 109
f 98 97 110
f 110 97 111
f 101 112 103
f 103 112 113
f 105 114 101
f 101 114 112
f 107 115 105
f 105 115 114
f 109 116 107
f 107 116 115
f 116 109 117
f 117 109 111
f 96 117 97
f 97 117 111
f 78 80 112
f 112 80 113
f 78 112 76
f 76 112 114
f 76 114 74
f 74 114 115
f 74 115 72
f 72 115 116
f 72 116 69
f 69 116 117
f 117 96 69
f 69 96 67
f 77 58 79
f 79 58 60
f 75 56 77
f 77 56 58
f 73 54 75
f 75 54 56
f 71 52 73
f 73 52 54
f 70 50 71
f 71 50 52
f 68 48 70
f 70 48 50
f 118 119 57
f 57 119 59
f 120 118 55
f 55 118 57
f 121 120 53
f 53 120 55
f 122 121 51
f 51 121 53
f 123 122 49
f 49 122 51
f 95 123 47
f 47 123 49
f 118 124 119
f 119 124 125
f 126 124 120
f 120 124 118
f 123 127 122
f 122 127 128
f 127 123 94
f 94 123 95
f 125 124 129
f 129 124 130
f 124 126 130
f 130 126 131
f 126 132 131
f 131 132 133
f 132 128 133
f 133 128 134
f 127 135 128
f 128 135 134
f 94 93 127
f 127 93 135
f 129 130 136
f 136 130 137
f 130 131 137
f 137 131 138
f 131 133 138
f 138 133 139
f 133 134 139
f 139 134 140
f 134 135 140
f 140 135 141
f 142 83 143
f 143 83 84
f 83 142 61
f 61 142 62
f 64 42 63
f 63 42 41
f 85 43 144
f 144 43 44
f 144 145 85
f 85 145 87
f 90 87 146
f 146 87 145
f 84 147 143
f 143 147 148
f 149 150 151
f 151 150 152
f 147 84 99
f 99 84 82
f 90 153 89
f 89 153 91
f 153 154 91
f 91 154 155
f 154 149 155
f 155 149 156
f 149 151 156
f 156 151 157
f 151 158 157
f 157 158 159
f 158 160 159
f 159 160 161
f 160 162 161
f 161 162 163
f 162 164 163
f 163 164 165
f 164 166 165
f 165 166 167
f 166 168 167
f 167 168 169
f 168 170 169
f 169 170 171
f 170 172 171
f 171 172 173
f 172 147 173
f 173 147 99
f 167 169 174
f 174 169 175
f 165 167 176
f 176 167 174
f 163 165 177
f 177 165 176
f 161 163 178
f 178 163 177
f 159 161 179
f 179 161 178
f 157 159 180
f 180 159 179
f 156 157 181
f 181 157 180
f 155 156 182
f 182 156 181
f 91 155 92
f 92 155 182
f 173 99 183
f 183 99 98
f 171 173 184
f 184 173 183
f 169 171 175
f 175 171 184
f 80 39 113
f 39 1 113
f 1 3 113
f 3 5 113
f 39 80 37
f 5 7 113
f 80 79 37
f 37 79 35
f 35 79 33
f 79 60 33
f 33 60 31
f 60 59 31
f 31 59 29
f 29 59 27
f 59 119 27
f 27 119 25
f 7 9 113
f 25 119 23
f 119 125 23
f 23 125 21
f 21 125 19
f 19 125 17
f 17 125 15
f 15 125 13
f 9 11 113
f 13 125 11
f 11 125 113
f 113 125 103
f 125 129 103
f 103 129 102
f 129 136 102
f 102 136 185
f 185 136 186
f 186 136 187
f 136 188 187
f 185 186 189
f 186 190 189
f 189 190 191
f 190 192 191
f 191 192 193
f 192 194 193
f 193 194 195
f 194 196 195
f 195 196 197
f 196 198 197
f 197 198 199
f 198 200 199
f 199 200 201
f 200 202 201
f 201 202 203
f 202 204 203
f 188 205 187
f 187 205 206
f 205 203 206
f 204 206 203
f 98 110 183
f 183 110 207
f 110 108 207
f 207 108 208
f 108 106 208
f 208 106 209
f 106 104 209
f 209 104 210
f 104 100 210
f 210 100 211
f 100 102 211
f 211 102 185
f 120 121 126
f 126 121 132
f 121 122 132
f 132 122 128
f 93 92 135
f 135 92 141
f 136 137 188
f 188 137 212
f 137 138 212
f 212 138 213
f 138 139 213
f 213 139 214
f 139 140 214
f 214 140 215
f 140 141 215
f 215 141 216
f 141 92 216
f 216 92 182
f 188 212 205
f 205 212 217
f 212 213 217
f 217 213 218
f 213 214 218
f 218 214 219
f 214 215 219
f 219 215 220
f 215 216 220
f 220 216 221
f 216 182 221
f 221 182 181
f 205 217 203
f 203 217 222
f 217 218 222
f 222 218 223
f 218 219 223
f 223 219 224
f 219 220 224
f 224 220 225
f 220 221 225
f 225 221 226
f 221 181 226
f 226 181 180
f 203 222 201
f 201 222 227
f 222 223 227
f 227 223 228
f 223 224 228
f 228 224 229
f 224 225 229
f 229 225 230
f 225 226 230
f 230 226 231
f 226 180 231
f 231 180 179
f 201 227 199
f 199 227 232
f 227 228 232
f 232 228 233
f 228 229 233
f 233 229 234
f 229 230 234
f 234 230 235
f 230 231 235
f 235 231 236
f 231 179 236
f 236 179 178
f 199 232 197
f 197 232 237
f 232 233 237
f 237 233 238
f 233 234 238
f 238 234 239
f 234 235 239
f 239 235 240
f 235 236 240
f 240 236 241
f 236 178 241
f 241 178 177
f 197 237 195
f 195 237 242
f 237 238 242
f 242 238 243
f 238 239 243
f 243 239 244
f 239 240 244
f 244 240 245
f 240 241 245
f 245 241 246
f 241 177 246
f 246 177 176
f 195 242 193
f 193 242 247
f 242 243 247
f 247 243 248
f 243 244 248
f 248 244 249
f 244 245 249
f 249 245 250
f 245 246 250
f 250 246 251
f 246 176 251
f 251 176 174
f 193 247 191
f 191 247 252
f 247 248 252
f 252 248 253
f 248 249 253
f 253 249 254
f 249 250 254
f 254 250 255
f 250 251 255
f 255 251 256
f 251 174 256
f 256 174 175
f 191 252 189
f 189 252 257
f 252 253 257
f 257 253 258
f 253 254 258
f 258 254 259
f 254 255 259
f 259 255 260
f 255 256 260
f 260 256 261
f 256 175 261
f 261 175 184
f 189 257 185
f 185 257 211
f 257 258 211
f 211 258 210
f 258 259 210
f 210 259 209
f 259 260 209
f 209 260 208
f 260 261 208
f 208 261 207
f 261 184 207
f 207 184 183
f 144 44 145
f 44 24 145
f 24 22 145
f 22 20 145
f 24 44 26
f 20 18 145
f 26 44 28
f 18 16 145
f 28 44 30
f 44 42 30
f 30 42 32
f 42 64 32
f 32 64 34
f 64 62 34
f 34 62 36
f 36 62 38
f 16 14 145
f 38 62 40
f 62 142 40
f 40 142 2
f 2 142 4
f 4 142 6
f 6 142 8
f 8 142 10
f 14 12 145
f 10 142 12
f 12 142 145
f 145 142 146
f 142 143 146
f 146 143 262
f 262 143 263
f 143 148 263
f 148 264 263
f 264 265 263
f 148 266 264
f 266 267 264
f 264 267 268
f 267 269 268
f 268 269 270
f 269 271 270
f 270 271 272
f 271 273 272
f 272 273 274
f 273 275 274
f 274 275 276
f 275 277 276
f 276 277 278
f 277 279 278
f 278 279 280
f 279 152 280
f 280 152 281
f 152 150 281
f 281 150 282
f 150 263 282
f 265 282 263
f 148 147 266
f 266 147 172
f 90 146 153
f 153 146 262
f 153 262 154
f 154 262 263
f 154 263 149
f 149 263 150
f 151 152 158
f 158 152 279
f 158 279 160
f 160 279 277
f 160 277 162
f 162 277 275
f 162 275 164
f 164 275 273
f 164 273 166
f 166 273 271
f 166 271 168
f 168 271 269
f 168 269 170
f 170 269 267
f 170 267 172
f 172 267 266
f 187 265 186
f 186 265 264
f 206 282 187
f 187 282 265
f 204 281 206
f 206 281 282
f 202 280 204
f 204 280 281
f 200 278 202
f 202 278 280
f 198 276 200
f 200 276 278
f 196 274 198
f 198 274 276
f 194 272 196
f 196 272 274
f 192 270 194
f 194 270 272
f 190 268 192
f 192 268 270
f 186 264 190
f 190 264 268
