OFF
282 568 0
-10.0892 2.235589 8.70239 
-10.0892 2.235588 0.0003204346 
-9.398367 2.126173 8.702384 
-9.398367 2.126172 0.0003204346 
-8.775154 1.808629 8.702382 
-8.775154 1.808629 0.0003242493 
-8.280572 1.314045 8.702378 
-8.280572 1.314045 0.0003318787 
-7.963031 0.6908343 8.702374 
-7.963031 0.6908343 0.0003356934 
-7.853611 -3.576279e-06 8.702367 
-7.853611 -3.576279e-06 0.0003471375 
-7.963031 -0.6908376 8.702363 
-7.963031 -0.6908386 0.0003547668 
-8.280572 -1.314049 8.702359 
-8.280572 -1.31405 0.0003623962 
-8.775154 -1.808635 8.702359 
-8.775154 -1.808635 0.0003700256 
-9.398367 -2.126177 8.702355 
-9.398367 -2.126177 0.000377655 
-10.0892 -2.235594 8.702355 
-10.0892 -2.235594 0.000377655 
-10.78004 -2.126177 8.702361 
-10.78004 -2.126177 0.000377655 
-11.40325 -1.808635 8.702363 
-11.40325 -1.808635 0.0003738403 
-11.89784 -1.314049 8.702367 
-11.89784 -1.31405 0.0003700256 
-12.21538 -0.6908376 8.702371 
-12.21538 -0.6908386 0.0003623962 
-12.32479 -3.576279e-06 8.702378 
-12.32479 -3.576279e-06 0.0003509521 
-12.21538 0.6908343 8.702382 
-12.21538 0.6908343 0.0003433228 
-11.89784 1.314045 8.702386 
-11.89784 1.314045 0.0003318787 
-11.40325 1.80863 8.702386 
-11.40325 1.808629 0.000328064 
-10.78004 2.126173 8.702386 
-10.78004 2.126172 0.0003242493 
-15.01503 -4.529953e-06 0.2590828 
-14.83255 -4.529953e-06 0.0002174377 
-14.26167 -1.973112 0.2590828 
-14.15764 -1.906171 0.0002174377 
-15.00255 -1.66893e-06 5.178342 
-14.23424 -1.973111 5.178342 
-14.03226 -1.781055 8.138455 
-14.55659 -1.66893e-06 8.138455 
-14.0278 -1.766114 8.293374 
-14.53154 -1.66893e-06 8.293393 
-14.01245 -1.742778 8.431415 
-14.48758 -1.66893e-06 8.43146 
-13.98685 -1.712259 8.545922 
-14.42747 -1.66893e-06 8.546002 
-13.95205 -1.67609 8.631534 
-14.35447 -1.66893e-06 8.63166 
-13.90561 -1.636051 8.684375 
-14.2643 -1.66893e-06 8.684556 
-13.82677 -1.594064 8.702203 
-14.17002 -1.66893e-06 8.702451 
-12.90738 3.864128 0.2590828 
-12.87853 3.733027 0.0002174377 
-14.39882 1.781607 0.2590828 
-14.28717 1.721161 0.0002174377 
-14.37283 1.781615 5.17846 
-12.86561 3.864142 5.178597 
-12.89747 3.488018 8.138734 
-14.14718 1.608196 8.138585 
-12.91275 3.458754 8.293633 
-14.14072 1.594705 8.293504 
-14.12258 1.573635 8.431542 
-12.9248 3.413056 8.431642 
-14.09364 1.546078 8.546056 
-12.93229 3.353287 8.546117 
-14.05513 1.513418 8.631673 
-12.9341 3.282454 8.631686 
-14.00445 1.477265 8.684518 
-12.92956 3.204037 8.684474 
-13.92411 1.439352 8.702352 
-12.86553 3.12181 8.702237 
-2.723106 4.54068 5.178597 
2.749283 6.249712 5.1787 
-1.862356 4.540673 0.2590828 
2.749283 6.249705 0.2597046 
-12.90738 -3.864143 0.2590828 
-12.86561 -3.864143 5.178342 
-1.862354 -4.540682 0.2590828 
-2.722755 -4.540683 5.178075 
2.749285 -6.24971 5.178697 
2.749285 -6.249714 0.2597084 
4.902788 -7.346975 5.178697 
5.135146 -6.63185 8.138734 
3.09284 -5.64139 8.138734 
-3.019645 -4.098708 8.138185 
-12.89747 -3.488021 8.138455 
-3.019645 4.098704 8.138734 
2.97189 5.641392 8.138734 
5.135149 6.63184 8.13873 
4.902787 7.346972 5.178506 
5.310578 6.091919 8.684653 
2.846298 5.182102 8.684653 
5.36138 5.93557 8.702481 
2.825234 5.049097 8.702477 
5.262135 6.241015 8.631812 
2.866397 5.308926 8.631812 
5.218379 6.375683 8.546199 
2.88711 5.423487 8.546199 
5.181458 6.489317 8.431689 
2.910323 5.520146 8.431689 
5.153225 6.576203 8.293649 
2.937937 5.594061 8.293656 
-3.350048 3.765017 8.684653 
-3.402458 3.668385 8.702481 
-3.276006 3.857157 8.631812 
-3.177083 3.94039 8.546199 
-3.061211 4.010618 8.431689 
-2.933209 4.06432 8.293653 
-12.92956 -3.204041 8.684201 
-12.86553 -3.121815 8.701964 
-12.9341 -3.282458 8.631412 
-12.93229 -3.353287 8.545846 
-12.9248 -3.413057 8.431369 
-12.91275 -3.458759 8.293355 
-3.350076 -3.765039 8.684636 
-3.402458 -3.668385 8.702659 
-3.107946 -3.857185 8.631635 
-2.823746 -4.064321 8.293162 
-2.71115 -4.010628 8.431275 
2.825234 -5.049097 8.702001 
2.846314 -5.18208 8.684299 
2.866414 -5.308905 8.631566 
-2.900491 -3.940407 8.545886 
2.985374 -5.423466 8.546041 
3.073732 -5.520142 8.431596 
3.127225 -5.59406 8.293614 
5.361382 -5.93557 8.702477 
5.310579 -6.091923 8.684648 
5.262136 -6.241017 8.631812 
5.218379 -6.375685 8.546199 
5.181457 -6.489321 8.431689 
5.153224 -6.576211 8.293653 
-1.967872 4.386618 0.0004272461 
2.903337 6.037667 0.0001907349 
-12.87853 -3.733043 0.0002174377 
-1.96787 -4.386627 0.0004310608 
2.90334 -6.037676 0.0006217957 
4.902787 7.346972 0.2584686 
4.983779 7.097708 2.670288e-05 
9.677142 -7.346979 0.2597046 
9.59615 -7.097715 0.0004005432 
11.83064 -6.249714 0.2584686 
11.67659 -6.037677 0.0002365112 
4.902788 -7.346979 0.2597046 
7.289965 -7.725065 0.2597046 
7.289965 -7.725064 5.178697 
9.677142 -7.346975 5.178697 
11.83064 -6.24971 5.1785 
13.53967 -4.540682 0.259079 
13.53967 -4.540683 5.178597 
14.63694 -2.38718 0.2590828 
14.63694 -2.38718 5.178342 
15.01503 -4.529953e-06 0.2591209 
15.01503 -1.66893e-06 5.17825 
14.63694 2.387169 0.2590828 
14.63694 2.387174 5.178336 
13.53967 4.540673 0.2590828 
13.53967 4.54068 5.178075 
11.83064 6.249705 0.2597046 
11.83064 6.249705 5.1787 
9.67714 7.346972 0.2597046 
9.67714 7.346972 5.1787 
7.289965 7.725058 0.2584686 
7.289965 7.725065 5.178506 
12.93135 4.098707 8.138185 
11.38867 5.641382 8.138734 
13.92181 2.154813 8.138455 
14.2631 -1.66893e-06 8.138358 
13.92181 -2.154819 8.138455 
12.93135 -4.098708 8.13873 
11.38867 -5.641381 8.138724 
9.444782 -6.63185 8.138734 
7.289965 -6.973138 8.138734 
7.289965 6.97313 8.138734 
9.444782 6.631848 8.138734 
7.289965 6.241022 8.702481 
7.289965 4.32724 8.702352 
7.289965 -4.327246 8.702346 
7.289965 -6.241027 8.702481 
9.218547 5.93557 8.702481 
8.627157 4.115454 8.702346 
10.95835 5.049093 8.701997 
9.833456 3.500813 8.702342 
12.33906 3.668385 8.702659 
10.79078 2.543488 8.702334 
13.22553 1.928582 8.701879 
11.40542 1.337189 8.702327 
13.53099 -1.66893e-06 8.702283 
11.61721 -4.529953e-06 8.702325 
13.22553 -1.928587 8.702361 
11.40542 -1.337196 8.702332 
12.33906 -3.668385 8.702237 
10.79078 -2.543494 8.702327 
10.95835 -5.049097 8.702481 
9.833456 -3.500819 8.702332 
9.218548 -5.93557 8.702477 
8.627157 -4.115458 8.702342 
7.289965 6.914627 8.293653 
7.289965 6.823271 8.431689 
7.289965 6.703787 8.546199 
7.289965 6.562191 8.631812 
7.289965 6.405421 8.684653 
7.289965 -6.405428 8.684653 
7.289965 -6.562192 8.631812 
7.289965 -6.703791 8.546199 
7.289965 -6.823274 8.431689 
7.289965 -6.914635 8.293653 
9.269351 -6.091923 8.684648 
9.317794 -6.241017 8.631812 
9.361551 -6.375685 8.546199 
9.398473 -6.489321 8.431689 
9.426704 -6.576211 8.293653 
11.05498 -5.182099 8.684653 
11.14712 -5.308925 8.631812 
11.23035 -5.42348 8.546193 
11.30058 -5.520144 8.431684 
11.35428 -5.594053 8.293649 
12.47205 -3.765009 8.684474 
12.59888 -3.857155 8.631686 
12.71344 -3.940387 8.546117 
12.81011 -4.010622 8.431642 
12.88402 -4.064322 8.29363 
13.38189 -1.979391 8.684489 
13.53099 -2.027836 8.631616 
13.66565 -2.07159 8.545972 
13.77928 -2.108509 8.431445 
13.86617 -2.136742 8.293389 
13.6954 -1.66893e-06 8.684405 
13.85217 -1.66893e-06 8.631524 
13.99376 -1.66893e-06 8.545882 
14.11324 -1.66893e-06 8.431348 
14.2046 -1.66893e-06 8.293294 
13.38187 1.979378 8.684133 
13.53096 2.02782 8.631368 
13.66564 2.071581 8.545815 
13.77928 2.108503 8.431348 
13.86617 2.136736 8.293351 
12.47209 3.765036 8.684636 
12.59892 3.857184 8.631635 
12.71347 3.940407 8.545884 
12.81012 4.010626 8.431275 
12.88402 4.064318 8.29316 
11.05496 5.182076 8.684293 
11.14711 5.308903 8.631562 
11.23034 5.423462 8.546041 
11.30058 5.52014 8.4316 
11.35429 5.594055 8.293614 
9.269349 6.091919 8.684653 
9.317794 6.241015 8.631814 
9.361551 6.375685 8.546199 
9.398472 6.489317 8.431691 
9.426704 6.57621 8.293656 
4.98378 -7.097715 0.000831604 
7.289965 -7.462973 0.000831604 
7.289965 4.327238 0.0002555847 
7.289965 -4.327246 0.0004196167 
7.289965 7.462963 2.670288e-05 
9.59615 7.097708 0.0004005432 
8.627157 4.115454 0.0002555847 
11.67659 6.037667 0.0006217957 
9.833456 3.500813 0.0002670288 
13.32764 4.386618 0.0004272461 
10.79078 2.543487 0.0002746582 
14.38767 2.306178 0.0002288818 
11.40542 1.337189 0.0002937317 
14.75294 -4.529953e-06 0.0002288818 
11.61721 -4.529953e-06 0.0003204346 
14.38767 -2.306189 0.0002288818 
11.40542 -1.337196 0.0003471375 
13.32764 -4.386627 0 
10.79078 -2.543494 0.0003738403 
9.833456 -3.500819 0.0003929138 
8.627157 -4.115458 0.0004119873 
3 0 1 2 
3 2 1 3 
3 2 3 4 
3 4 3 5 
3 4 5 6 
3 6 5 7 
3 6 7 8 
3 8 7 9 
3 8 9 10 
3 10 9 11 
3 10 11 12 
3 12 11 13 
3 12 13 14 
3 14 13 15 
3 14 15 16 
3 16 15 17 
3 16 17 18 
3 18 17 19 
3 18 19 20 
3 20 19 21 
3 20 21 22 
3 22 21 23 
3 22 23 24 
3 24 23 25 
3 24 25 26 
3 26 25 27 
3 26 27 28 
3 28 27 29 
3 28 29 30 
3 30 29 31 
3 30 31 32 
3 32 31 33 
3 32 33 34 
3 34 33 35 
3 34 35 36 
3 36 35 37 
3 36 37 38 
3 38 37 39 
3 38 39 0 
3 0 39 1 
3 40 41 42 
3 42 41 43 
3 40 42 44 
3 44 42 45 
3 46 47 45 
3 45 47 44 
3 46 48 47 
3 47 48 49 
3 48 50 49 
3 49 50 51 
3 50 52 51 
3 51 52 53 
3 52 54 53 
3 53 54 55 
3 54 56 55 
3 55 56 57 
3 56 58 57 
3 57 58 59 
3 60 61 62 
3 62 61 63 
3 62 64 60 
3 60 64 65 
3 65 64 66 
3 66 64 67 
3 66 67 68 
3 68 67 69 
3 70 71 69 
3 69 71 68 
3 72 73 70 
3 70 73 71 
3 74 75 72 
3 72 75 73 
3 76 77 74 
3 74 77 75 
3 78 79 76 
3 76 79 77 
3 80 81 82 
3 82 81 83 
3 65 80 60 
3 60 80 82 
3 40 44 62 
3 62 44 64 
3 42 84 45 
3 45 84 85 
3 86 87 84 
3 84 87 85 
3 87 86 88 
3 88 86 89 
3 90 91 88 
3 88 91 92 
3 93 87 92 
3 92 87 88 
3 87 93 85 
3 85 93 94 
3 85 94 45 
3 45 94 46 
3 44 47 64 
3 64 47 67 
3 66 95 65 
3 65 95 80 
3 95 96 80 
3 80 96 81 
3 96 97 81 
3 81 97 98 
3 99 100 101 
3 101 100 102 
3 103 104 99 
3 99 104 100 
3 105 106 103 
3 103 106 104 
3 107 108 105 
3 105 108 106 
3 109 110 107 
3 107 110 108 
3 97 96 109 
3 109 96 110 
3 100 111 102 
3 102 111 112 
3 104 113 100 
3 100 113 111 
3 106 114 104 
3 104 114 113 
3 108 115 106 
3 106 115 114 
3 115 108 116 
3 116 108 110 
3 95 116 96 
3 96 116 110 
3 77 79 111 
3 111 79 112 
3 77 111 75 
3 75 111 113 
3 75 113 73 
3 73 113 114 
3 73 114 71 
3 71 114 115 
3 71 115 68 
3 68 115 116 
3 116 95 68 
3 68 95 66 
3 76 57 78 
3 78 57 59 
3 74 55 76 
3 76 55 57 
3 72 53 74 
3 74 53 55 
3 70 51 72 
3 72 51 53 
3 69 49 70 
3 70 49 51 
3 67 47 69 
3 69 47 49 
3 117 118 56 
3 56 118 58 
3 119 117 54 
3 54 117 56 
3 120 119 52 
3 52 119 54 
3 121 120 50 
3 50 120 52 
3 122 121 48 
3 48 121 50 
3 94 122 46 
3 46 122 48 
3 117 123 118 
3 118 123 124 
3 125 123 119 
3 119 123 117 
3 122 126 121 
3 121 126 127 
3 126 122 93 
3 93 122 94 
3 124 123 128 
3 128 123 129 
3 123 125 129 
3 129 125 130 
3 125 131 130 
3 130 131 132 
3 131 127 132 
3 132 127 133 
3 126 134 127 
3 127 134 133 
3 93 92 126 
3 126 92 134 
3 128 129 135 
3 135 129 136 
3 129 130 136 
3 136 130 137 
3 130 132 137 
3 137 132 138 
3 132 133 138 
3 138 133 139 
3 133 134 139 
3 139 134 140 
3 141 82 142 
3 142 82 83 
3 82 141 60 
3 60 141 61 
3 63 41 62 
3 62 41 40 
3 84 42 143 
3 143 42 43 
3 143 144 84 
3 84 144 86 
3 89 86 145 
3 145 86 144 
3 83 146 142 
3 142 146 147 
3 148 149 150 
3 150 149 151 
3 146 83 98 
3 98 83 81 
3 89 152 88 
3 88 152 90 
3 152 153 90 
3 90 153 154 
3 153 148 154 
3 154 148 155 
3 148 150 155 
3 155 150 156 
3 150 157 156 
3 156 157 158 
3 157 159 158 
3 158 159 160 
3 159 161 160 
3 160 161 162 
3 161 163 162 
3 162 163 164 
3 163 165 164 
3 164 165 166 
3 165 167 166 
3 166 167 168 
3 167 169 168 
3 168 169 170 
3 169 171 170 
3 170 171 172 
3 171 146 172 
3 172 146 98 
3 166 168 173 
3 173 168 174 
3 164 166 175 
3 175 166 173 
3 162 164 176 
3 176 164 175 
3 160 162 177 
3 177 162 176 
3 158 160 178 
3 178 160 177 
3 156 158 179 
3 179 158 178 
3 155 156 180 
3 180 156 179 
3 154 155 181 
3 181 155 180 
3 90 154 91 
3 91 154 181 
3 172 98 182 
3 182 98 97 
3 170 172 183 
3 183 172 182 
3 168 170 174 
3 174 170 183 
3 79 38 112 
3 38 0 112 
3 0 2 112 
3 2 4 112 
3 38 79 36 
3 4 6 112 
3 79 78 36 
3 36 78 34 
3 34 78 32 
3 78 59 32 
3 32 59 30 
3 59 58 30 
3 30 58 28 
3 28 58 26 
3 58 118 26 
3 26 118 24 
3 6 8 112 
3 24 118 22 
3 118 124 22 
3 22 124 20 
3 20 124 18 
3 18 124 16 
3 16 124 14 
3 14 124 12 
3 8 10 112 
3 12 124 10 
3 10 124 112 
3 112 124 102 
3 124 128 102 
3 102 128 101 
3 128 135 101 
3 101 135 184 
3 184 135 185 
3 185 135 186 
3 135 187 186 
3 184 185 188 
3 185 189 188 
3 188 189 190 
3 189 191 190 
3 190 191 192 
3 191 193 192 
3 192 193 194 
3 193 195 194 
3 194 195 196 
3 195 197 196 
3 196 197 198 
3 197 199 198 
3 198 199 200 
3 199 201 200 
3 200 201 202 
3 201 203 202 
3 187 204 186 
3 186 204 205 
3 204 202 205 
3 203 205 202 
3 97 109 182 
3 182 109 206 
3 109 107 206 
3 206 107 207 
3 107 105 207 
3 207 105 208 
3 105 103 208 
3 208 103 209 
3 103 99 209 
3 209 99 210 
3 99 101 210 
3 210 101 184 
3 119 120 125 
3 125 120 131 
3 120 121 131 
3 131 121 127 
3 92 91 134 
3 134 91 140 
3 135 136 187 
3 187 136 211 
3 136 137 211 
3 211 137 212 
3 137 138 212 
3 212 138 213 
3 138 139 213 
3 213 139 214 
3 139 140 214 
3 214 140 215 
3 140 91 215 
3 215 91 181 
3 187 211 204 
3 204 211 216 
3 211 212 216 
3 216 212 217 
3 212 213 217 
3 217 213 218 
3 213 214 218 
3 218 214 219 
3 214 215 219 
3 219 215 220 
3 215 181 220 
3 220 181 180 
3 204 216 202 
3 202 216 221 
3 216 217 221 
3 221 217 222 
3 217 218 222 
3 222 218 223 
3 218 219 223 
3 223 219 224 
3 219 220 224 
3 224 220 225 
3 220 180 225 
3 225 180 179 
3 202 221 200 
3 200 221 226 
3 221 222 226 
3 226 222 227 
3 222 223 227 
3 227 223 228 
3 223 224 228 
3 228 224 229 
3 224 225 229 
3 229 225 230 
3 225 179 230 
3 230 179 178 
3 200 226 198 
3 198 226 231 
3 226 227 231 
3 231 227 232 
3 227 228 232 
3 232 228 233 
3 228 229 233 
3 233 229 234 
3 229 230 234 
3 234 230 235 
3 230 178 235 
3 235 178 177 
3 198 231 196 
3 196 231 236 
3 231 232 236 
3 236 232 237 
3 232 233 237 
3 237 233 238 
3 233 234 238 
3 238 234 239 
3 234 235 239 
3 239 235 240 
3 235 177 240 
3 240 177 176 
3 196 236 194 
3 194 236 241 
3 236 237 241 
3 241 237 242 
3 237 238 242 
3 242 238 243 
3 238 239 243 
3 243 239 244 
3 239 240 244 
3 244 240 245 
3 240 176 245 
3 245 176 175 
3 194 241 192 
3 192 241 246 
3 241 242 246 
3 246 242 247 
3 242 243 247 
3 247 243 248 
3 243 244 248 
3 248 244 249 
3 244 245 249 
3 249 245 250 
3 245 175 250 
3 250 175 173 
3 192 246 190 
3 190 246 251 
3 246 247 251 
3 251 247 252 
3 247 248 252 
3 252 248 253 
3 248 249 253 
3 253 249 254 
3 249 250 254 
3 254 250 255 
3 250 173 255 
3 255 173 174 
3 190 251 188 
3 188 251 256 
3 251 252 256 
3 256 252 257 
3 252 253 257 
3 257 253 258 
3 253 254 258 
3 258 254 259 
3 254 255 259 
3 259 255 260 
3 255 174 260 
3 260 174 183 
3 188 256 184 
3 184 256 210 
3 256 257 210 
3 210 257 209 
3 257 258 209 
3 209 258 208 
3 258 259 208 
3 208 259 207 
3 259 260 207 
3 207 260 206 
3 260 183 206 
3 206 183 182 
3 143 43 144 
3 43 23 144 
3 23 21 144 
3 21 19 144 
3 23 43 25 
3 19 17 144 
3 25 43 27 
3 17 15 144 
3 27 43 29 
3 43 41 29 
3 29 41 31 
3 41 63 31 
3 31 63 33 
3 63 61 33 
3 33 61 35 
3 35 61 37 
3 15 13 144 
3 37 61 39 
3 61 141 39 
3 39 141 1 
3 1 141 3 
3 3 141 5 
3 5 141 7 
3 7 141 9 
3 13 11 144 
3 9 141 11 
3 11 141 144 
3 144 141 145 
3 141 142 145 
3 145 142 261 
3 261 142 262 
3 142 147 262 
3 147 263 262 
3 263 264 262 
3 147 265 263 
3 265 266 263 
3 263 266 267 
3 266 268 267 
3 267 268 269 
3 268 270 269 
3 269 270 271 
3 270 272 271 
3 271 272 273 
3 272 274 273 
3 273 274 275 
3 274 276 275 
3 275 276 277 
3 276 278 277 
3 277 278 279 
3 278 151 279 
3 279 151 280 
3 151 149 280 
3 280 149 281 
3 149 262 281 
3 264 281 262 
3 147 146 265 
3 265 146 171 
3 89 145 152 
3 152 145 261 
3 152 261 153 
3 153 261 262 
3 153 262 148 
3 148 262 149 
3 150 151 157 
3 157 151 278 
3 157 278 159 
3 159 278 276 
3 159 276 161 
3 161 276 274 
3 161 274 163 
3 163 274 272 
3 163 272 165 
3 165 272 270 
3 165 270 167 
3 167 270 268 
3 167 268 169 
3 169 268 266 
3 169 266 171 
3 171 266 265 
3 186 264 185 
3 185 264 263 
3 205 281 186 
3 186 281 264 
3 203 280 205 
3 205 280 281 
3 201 279 203 
3 203 279 280 
3 199 277 201 
3 201 277 279 
3 197 275 199 
3 199 275 277 
3 195 273 197 
3 197 273 275 
3 193 271 195 
3 195 271 273 
3 191 269 193 
3 193 269 271 
3 189 267 191 
3 191 267 269 
3 185 263 189 
3 189 263 267 
