OFF
192 388 0
-13.5 0 0 
-13.4734 0.847672 0 
-13.4734 -0.847672 0 
-13.3935 1.692 0 
-13.2609 2.52965 0 
-13.0759 3.35731 0 
-12.8393 4.17173 0 
-12.552 4.96968 0 
-12.2152 5.74802 0 
-11.8301 6.50367 0 
-11.3984 7.23366 0 
-10.9217 7.9351 0 
-10.4019 8.60522 0 
-9.84108 9.24139 0 
-9.24139 9.84108 0 
-8.60522 10.4019 0 
-7.9351 10.9217 0 
-7.23366 11.3984 0 
-6.50367 11.8301 0 
-5.74802 12.2152 0 
-4.96968 12.552 0 
-4.17173 12.8393 0 
-3.35731 13.0759 0 
-2.52965 13.2609 0 
-1.692 13.3935 0 
-0.847672 13.4734 0 
0 13.5 0 
0 7.94167 0 
0.964293 7.94167 0 
2.83684 7.48013 0 
4.54452 6.58387 0 
1.31332 4.04199 0 
5.98809 5.30498 0 
2.49809 3.43832 0 
7.08365 3.71778 0 
3.43832 2.49809 0 
7.76753 1.91452 0 
4.04199 -1.31332 0 
8 0 0 
7.76753 -1.91452 0 
3.43832 -2.49809 0 
7.08365 -3.71778 0 
2.49809 -3.43832 0 
5.98809 -5.30498 0 
0 -4.25 0 
4.54452 -6.58387 0 
2.83684 -7.48013 0 
0.964293 -7.94167 0 
0 -7.94167 0 
0 -13.5 0 
-0.847672 -13.4734 0 
-1.692 -13.3935 0 
-2.52965 -13.2609 0 
-3.35731 -13.0759 0 
-4.17173 -12.8393 0 
-4.96968 -12.552 0 
-5.74802 -12.2152 0 
-6.50367 -11.8301 0 
-7.23366 -11.3984 0 
-7.9351 -10.9217 0 
-8.60522 -10.4019 0 
-9.24139 -9.84108 0 
-9.84108 -9.24139 0 
-10.4019 -8.60522 0 
-10.9217 -7.9351 0 
-11.3984 -7.23366 0 
-11.8301 -6.50367 0 
-12.2152 -5.74802 0 
-12.552 -4.96968 0 
-12.8393 -4.17173 0 
-13.0759 -3.35731 0 
-13.2609 -2.52965 0 
-13.3935 -1.692 0 
4.04199 1.31332 0 
4.25 0 0 
-3.23607 -2.35114 0 
-3.80423 -1.23607 0 
-1.23607 -3.80423 0 
-2.35114 -3.23607 0 
0 -4 0 
1.31332 -4.04199 0 
-4 0 0 
0 4.25 0 
-1.23607 3.80423 0 
0 4 0 
-3.23607 2.35114 0 
-2.35114 3.23607 0 
-3.80423 1.23607 0 
-13.5 0 6 
-13.4734 0.847672 6 
-13.4734 -0.847672 6 
-13.3935 -1.692 6 
-13.2609 -2.52965 6 
-13.0759 -3.35731 6 
-12.8393 -4.17173 6 
-12.552 -4.96968 6 
-12.2152 -5.74802 6 
-11.8301 -6.50367 6 
-11.3984 -7.23366 6 
-10.9217 -7.9351 6 
-10.4019 -8.60522 6 
-9.84108 -9.24139 6 
-9.24139 -9.84108 6 
-8.60522 -10.4019 6 
-7.9351 -10.9217 6 
-7.23366 -11.3984 6 
-6.50367 -11.8301 6 
-5.74802 -12.2152 6 
-4.96968 -12.552 6 
-4.17173 -12.8393 6 
-3.35731 -13.0759 6 
-2.52965 -13.2609 6 
-1.692 -13.3935 6 
-0.847672 -13.4734 6 
0 -13.5 6 
0 -7.94167 6 
0.964293 -7.94167 6 
2.83684 -7.48013 6 
4.54452 -6.58387 6 
5.98809 -5.30498 6 
7.08365 -3.71778 6 
7.76753 -1.91452 6 
7.82678 -1.42658 2.03648 
7.89295 -0.881678 3.71353 
8 0 3.71353 
8 0 6 
8 0 1 
7.82678 1.42658 2.03648 
7.76753 1.91452 6 
7.89295 0.881678 3.71353 
7.08365 3.71778 6 
5.98809 5.30498 6 
4.54452 6.58387 6 
2.83684 7.48013 6 
0.964293 7.94167 6 
0 7.94167 6 
0 13.5 6 
-0.847672 13.4734 6 
-1.692 13.3935 6 
-2.52965 13.2609 6 
-3.35731 13.0759 6 
-4.17173 12.8393 6 
-4.96968 12.552 6 
-5.74802 12.2152 6 
-6.50367 11.8301 6 
-7.23366 11.3984 6 
-7.9351 10.9217 6 
-8.60522 10.4019 6 
-9.24139 9.84108 6 
-9.84108 9.24139 6 
-10.4019 8.60522 6 
-10.9217 7.9351 6 
-11.3984 7.23366 6 
-11.8301 6.50367 6 
-12.2152 5.74802 6 
-12.552 4.96968 6 
-12.8393 4.17173 6 
-13.0759 3.35731 6 
-13.2609 2.52965 6 
-13.3935 1.692 6 
-3.80423 1.23607 6 
-4 0 6 
-3.80423 -1.23607 6 
-3.23607 2.35114 6 
-2.35114 3.23607 6 
-1.23607 3.80423 6 
0 4 6 
0 4.25 6 
1.31332 4.04199 6 
2.49809 3.43832 6 
3.43832 2.49809 6 
4.04199 1.31332 1.95418 
3.98428 1.42658 2.03648 
4.04199 1.31332 6 
4.04199 1.31332 2.38506 
4.25 0 1 
4.04199 -1.31332 1.95418 
4.04199 -1.31332 6 
4.04199 -1.31332 2.38506 
3.43832 -2.49809 6 
3.98428 -1.42658 2.03648 
2.49809 -3.43832 6 
1.31332 -4.04199 6 
0 -4.25 6 
0 -4 6 
-1.23607 -3.80423 6 
-2.35114 -3.23607 6 
-3.23607 -2.35114 6 
4.25 0 6 
4.11036 0.881678 3.71353 
4.25 0 3.71353 
4.11036 -0.881678 3.71353 
3 0 1 2 
3 2 1 3 
3 2 3 4 
3 2 4 5 
3 2 5 6 
3 2 6 7 
3 2 7 8 
3 2 8 9 
3 2 9 10 
3 2 10 11 
3 2 11 12 
3 2 12 13 
3 2 13 14 
3 2 14 15 
3 2 15 16 
3 2 16 17 
3 2 17 18 
3 2 18 19 
3 2 19 20 
3 2 20 21 
3 2 21 22 
3 2 22 23 
3 2 23 24 
3 2 24 25 
3 2 25 26 
3 2 26 27 
3 2 27 28 
3 2 28 29 
3 2 29 30 
3 31 30 32 
3 33 32 34 
3 35 34 36 
3 37 38 39 
3 40 39 41 
3 42 41 43 
3 44 43 45 
3 2 45 46 
3 2 46 47 
3 2 47 48 
3 2 48 49 
3 2 49 50 
3 2 50 51 
3 2 51 52 
3 2 52 53 
3 2 53 54 
3 2 54 55 
3 2 55 56 
3 2 56 57 
3 2 57 58 
3 2 58 59 
3 2 59 60 
3 2 60 61 
3 2 61 62 
3 2 62 63 
3 2 63 64 
3 2 64 65 
3 2 65 66 
3 2 66 67 
3 2 67 68 
3 2 68 69 
3 2 69 70 
3 2 70 71 
3 2 71 72 
3 35 36 73 
3 74 36 38 
3 75 2 76 
3 77 2 78 
3 2 75 78 
3 2 77 45 
3 44 77 79 
3 80 43 44 
3 77 44 45 
3 42 43 80 
3 40 41 42 
3 74 38 37 
3 37 39 40 
3 73 36 74 
3 76 2 81 
3 31 32 33 
3 82 30 31 
3 83 82 84 
3 83 30 82 
3 2 30 83 
3 85 2 86 
3 86 2 83 
3 87 2 85 
3 81 2 87 
3 33 34 35 
3 0 88 1 
3 1 88 89 
3 0 2 88 
3 88 2 90 
3 2 72 90 
3 90 72 91 
3 72 71 91 
3 91 71 92 
3 71 70 92 
3 92 70 93 
3 70 69 93 
3 93 69 94 
3 69 68 94 
3 94 68 95 
3 68 67 95 
3 95 67 96 
3 67 66 96 
3 96 66 97 
3 66 65 97 
3 97 65 98 
3 65 64 98 
3 98 64 99 
3 64 63 99 
3 99 63 100 
3 63 62 100 
3 100 62 101 
3 101 62 61 
3 102 101 61 
3 102 61 60 
3 103 102 60 
3 103 60 59 
3 104 103 59 
3 104 59 58 
3 105 104 58 
3 105 58 57 
3 106 105 57 
3 106 57 56 
3 107 106 56 
3 107 56 55 
3 108 107 55 
3 108 55 54 
3 109 108 54 
3 109 54 53 
3 110 109 53 
3 110 53 52 
3 111 110 52 
3 111 52 51 
3 112 111 51 
3 112 51 50 
3 113 112 50 
3 113 50 49 
3 114 113 49 
3 48 115 114 
3 49 48 114 
3 115 48 47 
3 116 115 47 
3 116 47 46 
3 117 116 46 
3 117 46 45 
3 118 117 45 
3 118 45 43 
3 119 118 43 
3 119 43 41 
3 120 119 41 
3 120 41 39 
3 121 120 39 
3 122 39 38 
3 122 123 121 
3 121 39 122 
3 124 121 123 
3 125 121 124 
3 126 122 38 
3 127 36 128 
3 127 126 38 
3 125 124 128 
3 124 129 128 
3 38 36 127 
3 129 127 128 
3 36 34 130 
3 128 36 130 
3 34 32 131 
3 130 34 131 
3 30 132 32 
3 32 132 131 
3 29 133 30 
3 30 133 132 
3 28 134 29 
3 29 134 133 
3 27 135 28 
3 28 135 134 
3 26 136 135 
3 27 26 135 
3 25 137 26 
3 26 137 136 
3 24 138 25 
3 25 138 137 
3 23 139 24 
3 24 139 138 
3 22 140 23 
3 23 140 139 
3 21 141 22 
3 22 141 140 
3 20 142 21 
3 21 142 141 
3 19 143 20 
3 20 143 142 
3 18 144 19 
3 19 144 143 
3 17 145 18 
3 18 145 144 
3 16 146 17 
3 17 146 145 
3 15 147 16 
3 16 147 146 
3 14 148 15 
3 15 148 147 
3 13 149 14 
3 14 149 148 
3 12 150 13 
3 13 150 149 
3 11 151 12 
3 12 151 150 
3 10 152 11 
3 11 152 151 
3 9 153 10 
3 10 153 152 
3 8 154 9 
3 9 154 153 
3 7 155 8 
3 8 155 154 
3 6 156 7 
3 7 156 155 
3 5 157 6 
3 6 157 156 
3 4 158 5 
3 5 158 157 
3 3 159 4 
3 4 159 158 
3 1 89 3 
3 3 89 159 
3 87 160 161 
3 81 87 161 
3 161 162 76 
3 81 161 76 
3 85 163 160 
3 87 85 160 
3 86 164 163 
3 85 86 163 
3 83 165 164 
3 86 83 164 
3 84 166 165 
3 83 84 165 
3 82 167 166 
3 84 82 166 
3 31 168 167 
3 82 31 167 
3 33 169 168 
3 31 33 168 
3 35 170 169 
3 33 35 169 
3 171 172 73 
3 173 172 174 
3 170 172 173 
3 73 172 170 
3 73 170 35 
3 175 171 74 
3 74 171 73 
3 175 74 176 
3 176 74 37 
3 177 178 179 
3 179 178 180 
3 180 176 37 
3 180 37 179 
3 179 37 40 
3 179 40 181 
3 181 40 42 
3 181 42 182 
3 182 42 80 
3 182 80 183 
3 183 80 44 
3 79 184 183 
3 44 79 183 
3 184 79 185 
3 185 79 77 
3 185 77 186 
3 186 77 78 
3 186 78 187 
3 187 78 75 
3 162 187 75 
3 76 162 75 
3 89 88 90 
3 92 89 91 
3 91 89 90 
3 93 89 92 
3 94 89 93 
3 95 89 94 
3 96 89 95 
3 97 89 96 
3 98 89 97 
3 99 89 98 
3 100 89 99 
3 101 89 100 
3 102 89 101 
3 103 89 102 
3 104 89 103 
3 105 89 104 
3 106 89 105 
3 107 89 106 
3 108 89 107 
3 109 89 108 
3 110 89 109 
3 111 89 110 
3 112 89 111 
3 113 89 112 
3 114 89 113 
3 115 89 114 
3 116 89 115 
3 117 89 116 
3 118 89 117 
3 185 89 118 
3 179 181 120 
3 164 165 89 
3 168 169 131 
3 166 167 165 
3 133 89 132 
3 134 89 133 
3 135 89 134 
3 136 89 135 
3 137 89 136 
3 138 89 137 
3 139 89 138 
3 140 89 139 
3 141 89 140 
3 142 89 141 
3 143 89 142 
3 144 89 143 
3 145 89 144 
3 146 89 145 
3 147 89 146 
3 148 89 147 
3 149 89 148 
3 150 89 149 
3 151 89 150 
3 152 89 151 
3 153 89 152 
3 154 89 153 
3 155 89 154 
3 156 89 155 
3 157 89 156 
3 158 89 157 
3 159 89 158 
3 161 160 89 
3 125 188 121 
3 173 188 125 
3 188 177 121 
3 164 89 163 
3 167 168 131 
3 132 89 165 
3 170 173 128 
3 132 167 131 
3 132 165 167 
3 169 170 130 
3 131 169 130 
3 130 170 128 
3 128 173 125 
3 177 179 121 
3 181 182 119 
3 121 179 120 
3 120 181 119 
3 119 182 118 
3 185 186 89 
3 182 183 118 
3 183 185 118 
3 186 187 89 
3 184 185 183 
3 162 161 89 
3 187 162 89 
3 160 163 89 
3 189 129 190 
3 190 129 124 
3 190 124 123 
3 190 123 191 
3 191 123 178 
3 178 123 122 
3 178 122 180 
3 122 126 175 
3 180 122 176 
3 176 122 175 
3 171 175 126 
3 172 171 127 
3 127 171 126 
3 127 129 189 
3 172 127 174 
3 174 127 189 
3 190 188 189 
3 189 188 173 
3 189 173 174 
3 188 190 177 
3 177 190 191 
3 177 191 178 
