# Created by meshio v5.3.5, 2025-09-16T09:26:06.112797
v -13.5 0.0 0.0
v -13.4734 0.847672 0.0
v -13.4734 -0.847672 0.0
v -13.3935 1.692 0.0
v -13.2609 2.52965 0.0
v -13.0759 3.35731 0.0
v -12.8393 4.17173 0.0
v -12.552 4.96968 0.0
v -12.2152 5.74802 0.0
v -11.8301 6.50367 0.0
v -11.3984 7.23366 0.0
v -10.9217 7.9351 0.0
v -10.4019 8.60522 0.0
v -9.84108 9.24139 0.0
v -9.24139 9.84108 0.0
v -8.60522 10.4019 0.0
v -7.9351 10.9217 0.0
v -7.23366 11.3984 0.0
v -6.50367 11.8301 0.0
v -5.74802 12.2152 0.0
v -4.96968 12.552 0.0
v -4.17173 12.8393 0.0
v -3.35731 13.0759 0.0
v -2.52965 13.2609 0.0
v -1.692 13.3935 0.0
v -0.847672 13.4734 0.0
v 0.0 13.5 0.0
v 0.0 7.94167 0.0
v 0.964293 7.94167 0.0
v 2.83684 7.48013 0.0
v 4.54452 6.58387 0.0
v 1.31332 4.04199 0.0
v 5.98809 5.30498 0.0
v 2.49809 3.43832 0.0
v 7.08365 3.71778 0.0
v 3.43832 2.49809 0.0
v 7.76753 1.91452 0.0
v 4.04199 -1.31332 0.0
v 8.0 0.0 0.0
v 7.76753 -1.91452 0.0
v 3.43832 -2.49809 0.0
v 7.08365 -3.71778 0.0
v 2.49809 -3.43832 0.0
v 5.98809 -5.30498 0.0
v 0.0 -4.25 0.0
v 4.54452 -6.58387 0.0
v 2.83684 -7.48013 0.0
v 0.964293 -7.94167 0.0
v 0.0 -7.94167 0.0
v 0.0 -13.5 0.0
v -0.847672 -13.4734 0.0
v -1.692 -13.3935 0.0
v -2.52965 -13.2609 0.0
v -3.35731 -13.0759 0.0
v -4.17173 -12.8393 0.0
v -4.96968 -12.552 0.0
v -5.74802 -12.2152 0.0
v -6.50367 -11.8301 0.0
v -7.23366 -11.3984 0.0
v -7.9351 -10.9217 0.0
v -8.60522 -10.4019 0.0
v -9.24139 -9.84108 0.0
v -9.84108 -9.24139 0.0
v -10.4019 -8.60522 0.0
v -10.9217 -7.9351 0.0
v -11.3984 -7.23366 0.0
v -11.8301 -6.50367 0.0
v -12.2152 -5.74802 0.0
v -12.552 -4.96968 0.0
v -12.8393 -4.17173 0.0
v -13.0759 -3.35731 0.0
v -13.2609 -2.52965 0.0
v -13.3935 -1.692 0.0
v 4.04199 1.31332 0.0
v 4.25 0.0 0.0
v -3.23607 -2.35114 0.0
v -3.80423 -1.23607 0.0
v -1.23607 -3.80423 0.0
v -2.35114 -3.23607 0.0
v 0.0 -4.0 0.0
v 1.31332 -4.04199 0.0
v -4.0 0.0 0.0
v 0.0 4.25 0.0
v -1.23607 3.80423 0.0
v 0.0 4.0 0.0
v -3.23607 2.35114 0.0
v -2.35114 3.23607 0.0
v -3.80423 1.23607 0.0
v -13.5 0.0 6.0
v -13.4734 0.847672 6.0
v -13.4734 -0.847672 6.0
v -13.3935 -1.692 6.0
v -13.2609 -2.52965 6.0
v -13.0759 -3.35731 6.0
v -12.8393 -4.17173 6.0
v -12.552 -4.96968 6.0
v -12.2152 -5.74802 6.0
v -11.8301 -6.50367 6.0
v -11.3984 -7.23366 6.0
v -10.9217 -7.9351 6.0
v -10.4019 -8.60522 6.0
v -9.84108 -9.24139 6.0
v -9.24139 -9.84108 6.0
v -8.60522 -10.4019 6.0
v -7.9351 -10.9217 6.0
v -7.23366 -11.3984 6.0
v -6.50367 -11.8301 6.0
v -5.74802 -12.2152 6.0
v -4.96968 -12.552 6.0
v -4.17173 -12.8393 6.0
v -3.35731 -13.0759 6.0
v -2.52965 -13.2609 6.0
v -1.692 -13.3935 6.0
v -0.847672 -13.4734 6.0
v 0.0 -13.5 6.0
v 0.0 -7.94167 6.0
v 0.964293 -7.94167 6.0
v 2.83684 -7.48013 6.0
v 4.54452 -6.58387 6.0
v 5.98809 -5.30498 6.0
v 7.08365 -3.71778 6.0
v 7.76753 -1.91452 6.0
v 7.82678 -1.42658 2.03648
v 7.89295 -0.881678 3.71353
v 8.0 0.0 3.71353
v 8.0 0.0 6.0
v 8.0 0.0 1.0
v 7.82678 1.42658 2.03648
v 7.76753 1.91452 6.0
v 7.89295 0.881678 3.71353
v 7.08365 3.71778 6.0
v 5.98809 5.30498 6.0
v 4.54452 6.58387 6.0
v 2.83684 7.48013 6.0
v 0.964293 7.94167 6.0
v 0.0 7.94167 6.0
v 0.0 13.5 6.0
v -0.847672 13.4734 6.0
v -1.692 13.3935 6.0
v -2.52965 13.2609 6.0
v -3.35731 13.0759 6.0
v -4.17173 12.8393 6.0
v -4.96968 12.552 6.0
v -5.74802 12.2152 6.0
v -6.50367 11.8301 6.0
v -7.23366 11.3984 6.0
v -7.9351 10.9217 6.0
v -8.60522 10.4019 6.0
v -9.24139 9.84108 6.0
v -9.84108 9.24139 6.0
v -10.4019 8.60522 6.0
v -10.9217 7.9351 6.0
v -11.3984 7.23366 6.0
v -11.8301 6.50367 6.0
v -12.2152 5.74802 6.0
v -12.552 4.96968 6.0
v -12.8393 4.17173 6.0
v -13.0759 3.35731 6.0
v -13.2609 2.52965 6.0
v -13.3935 1.692 6.0
v -3.80423 1.23607 6.0
v -4.0 0.0 6.0
v -3.80423 -1.23607 6.0
v -3.23607 2.35114 6.0
v -2.35114 3.23607 6.0
v -1.23607 3.80423 6.0
v 0.0 4.0 6.0
v 0.0 4.25 6.0
v 1.31332 4.04199 6.0
v 2.49809 3.43832 6.0
v 3.43832 2.49809 6.0
v 4.04199 1.31332 1.95418
v 3.98428 1.42658 2.03648
v 4.04199 1.31332 6.0
v 4.04199 1.31332 2.38506
v 4.25 0.0 1.0
v 4.04199 -1.31332 1.95418
v 4.04199 -1.31332 6.0
v 4.04199 -1.31332 2.38506
v 3.43832 -2.49809 6.0
v 3.98428 -1.42658 2.03648
v 2.49809 -3.43832 6.0
v 1.31332 -4.04199 6.0
v 0.0 -4.25 6.0
v 0.0 -4.0 6.0
v -1.23607 -3.80423 6.0
v -2.35114 -3.23607 6.0
v -3.23607 -2.35114 6.0
v 4.25 0.0 6.0
v 4.11036 0.881678 3.71353
v 4.25 0.0 3.71353
v 4.11036 -0.881678 3.71353
f 1 2 3
f 3 2 4
f 3 4 5
f 3 5 6
f 3 6 7
f 3 7 8
f 3 8 9
f 3 9 10
f 3 10 11
f 3 11 12
f 3 12 13
f 3 13 14
f 3 14 15
f 3 15 16
f 3 16 17
f 3 17 18
f 3 18 19
f 3 19 20
f 3 20 21
f 3 21 22
f 3 22 23
f 3 23 24
f 3 24 25
f 3 25 26
f 3 26 27
f 3 27 28
f 3 28 29
f 3 29 30
f 3 30 31
f 32 31 33
f 34 33 35
f 36 35 37
f 38 39 40
f 41 40 42
f 43 42 44
f 45 44 46
f 3 46 47
f 3 47 48
f 3 48 49
f 3 49 50
f 3 50 51
f 3 51 52
f 3 52 53
f 3 53 54
f 3 54 55
f 3 55 56
f 3 56 57
f 3 57 58
f 3 58 59
f 3 59 60
f 3 60 61
f 3 61 62
f 3 62 63
f 3 63 64
f 3 64 65
f 3 65 66
f 3 66 67
f 3 67 68
f 3 68 69
f 3 69 70
f 3 70 71
f 3 71 72
f 3 72 73
f 36 37 74
f 75 37 39
f 76 3 77
f 78 3 79
f 3 76 79
f 3 78 46
f 45 78 80
f 81 44 45
f 78 45 46
f 43 44 81
f 41 42 43
f 75 39 38
f 38 40 41
f 74 37 75
f 77 3 82
f 32 33 34
f 83 31 32
f 84 83 85
f 84 31 83
f 3 31 84
f 86 3 87
f 87 3 84
f 88 3 86
f 82 3 88
f 34 35 36
f 1 89 2
f 2 89 90
f 1 3 89
f 89 3 91
f 3 73 91
f 91 73 92
f 73 72 92
f 92 72 93
f 72 71 93
f 93 71 94
f 71 70 94
f 94 70 95
f 70 69 95
f 95 69 96
f 69 68 96
f 96 68 97
f 68 67 97
f 97 67 98
f 67 66 98
f 98 66 99
f 66 65 99
f 99 65 100
f 65 64 100
f 100 64 101
f 64 63 101
f 101 63 102
f 102 63 62
f 103 102 62
f 103 62 61
f 104 103 61
f 104 61 60
f 105 104 60
f 105 60 59
f 106 105 59
f 106 59 58
f 107 106 58
f 107 58 57
f 108 107 57
f 108 57 56
f 109 108 56
f 109 56 55
f 110 109 55
f 110 55 54
f 111 110 54
f 111 54 53
f 112 111 53
f 112 53 52
f 113 112 52
f 113 52 51
f 114 113 51
f 114 51 50
f 115 114 50
f 49 116 115
f 50 49 115
f 116 49 48
f 117 116 48
f 117 48 47
f 118 117 47
f 118 47 46
f 119 118 46
f 119 46 44
f 120 119 44
f 120 44 42
f 121 120 42
f 121 42 40
f 122 121 40
f 123 40 39
f 123 124 122
f 122 40 123
f 125 122 124
f 126 122 125
f 127 123 39
f 128 37 129
f 128 127 39
f 126 125 129
f 125 130 129
f 39 37 128
f 130 128 129
f 37 35 131
f 129 37 131
f 35 33 132
f 131 35 132
f 31 133 33
f 33 133 132
f 30 134 31
f 31 134 133
f 29 135 30
f 30 135 134
f 28 136 29
f 29 136 135
f 27 137 136
f 28 27 136
f 26 138 27
f 27 138 137
f 25 139 26
f 26 139 138
f 24 140 25
f 25 140 139
f 23 141 24
f 24 141 140
f 22 142 23
f 23 142 141
f 21 143 22
f 22 143 142
f 20 144 21
f 21 144 143
f 19 145 20
f 20 145 144
f 18 146 19
f 19 146 145
f 17 147 18
f 18 147 146
f 16 148 17
f 17 148 147
f 15 149 16
f 16 149 148
f 14 150 15
f 15 150 149
f 13 151 14
f 14 151 150
f 12 152 13
f 13 152 151
f 11 153 12
f 12 153 152
f 10 154 11
f 11 154 153
f 9 155 10
f 10 155 154
f 8 156 9
f 9 156 155
f 7 157 8
f 8 157 156
f 6 158 7
f 7 158 157
f 5 159 6
f 6 159 158
f 4 160 5
f 5 160 159
f 2 90 4
f 4 90 160
f 88 161 162
f 82 88 162
f 162 163 77
f 82 162 77
f 86 164 161
f 88 86 161
f 87 165 164
f 86 87 164
f 84 166 165
f 87 84 165
f 85 167 166
f 84 85 166
f 83 168 167
f 85 83 167
f 32 169 168
f 83 32 168
f 34 170 169
f 32 34 169
f 36 171 170
f 34 36 170
f 172 173 74
f 174 173 175
f 171 173 174
f 74 173 171
f 74 171 36
f 176 172 75
f 75 172 74
f 176 75 177
f 177 75 38
f 178 179 180
f 180 179 181
f 181 177 38
f 181 38 180
f 180 38 41
f 180 41 182
f 182 41 43
f 182 43 183
f 183 43 81
f 183 81 184
f 184 81 45
f 80 185 184
f 45 80 184
f 185 80 186
f 186 80 78
f 186 78 187
f 187 78 79
f 187 79 188
f 188 79 76
f 163 188 76
f 77 163 76
f 90 89 91
f 93 90 92
f 92 90 91
f 94 90 93
f 95 90 94
f 96 90 95
f 97 90 96
f 98 90 97
f 99 90 98
f 100 90 99
f 101 90 100
f 102 90 101
f 103 90 102
f 104 90 103
f 105 90 104
f 106 90 105
f 107 90 106
f 108 90 107
f 109 90 108
f 110 90 109
f 111 90 110
f 112 90 111
f 113 90 112
f 114 90 113
f 115 90 114
f 116 90 115
f 117 90 116
f 118 90 117
f 119 90 118
f 186 90 119
f 180 182 121
f 165 166 90
f 169 170 132
f 167 168 166
f 134 90 133
f 135 90 134
f 136 90 135
f 137 90 136
f 138 90 137
f 139 90 138
f 140 90 139
f 141 90 140
f 142 90 141
f 143 90 142
f 144 90 143
f 145 90 144
f 146 90 145
f 147 90 146
f 148 90 147
f 149 90 148
f 150 90 149
f 151 90 150
f 152 90 151
f 153 90 152
f 154 90 153
f 155 90 154
f 156 90 155
f 157 90 156
f 158 90 157
f 159 90 158
f 160 90 159
f 162 161 90
f 126 189 122
f 174 189 126
f 189 178 122
f 165 90 164
f 168 169 132
f 133 90 166
f 171 174 129
f 133 168 132
f 133 166 168
f 170 171 131
f 132 170 131
f 131 171 129
f 129 174 126
f 178 180 122
f 182 183 120
f 122 180 121
f 121 182 120
f 120 183 119
f 186 187 90
f 183 184 119
f 184 186 119
f 187 188 90
f 185 186 184
f 163 162 90
f 188 163 90
f 161 164 90
f 190 130 191
f 191 130 125
f 191 125 124
f 191 124 192
f 192 124 179
f 179 124 123
f 179 123 181
f 123 127 176
f 181 123 177
f 177 123 176
f 172 176 127
f 173 172 128
f 128 172 127
f 128 130 190
f 173 128 175
f 175 128 190
f 191 189 190
f 190 189 174
f 190 174 175
f 189 191 178
f 178 191 192
f 178 192 179
