# Created by meshio v5.3.5, 2025-09-16T09:26:06.122645
v 0.08313578 0.427672 0.0
v -0.8155422 0.05258873 0.0
v 0.6245647 0.5938477 0.0
v -0.3288637 -0.5221943 0.0
v -0.3597579 0.6883012 0.0
v 0.4413977 -0.3008876 0.0
v 0.4985457 -0.2226721 0.0
v -0.4531103 -0.4561163 0.0
v -0.8344501 0.1850236 0.0
v -0.7577158 0.3960347 0.0
v 0.422579 0.546123 0.0
v 0.2950604 -0.5903831 0.0
v -0.2381359 -0.5749709 0.0
v -0.7957844 -0.03108646 0.0
v -0.5161468 0.7002888 0.0
v -0.2731168 0.6225254 0.0
v -0.0153098 0.4325448 0.0
v 0.2236768 -0.6697046 0.0
v 0.6755614 -0.09329954 0.0
v -0.4480472 0.7236736 0.0
v 0.3615957 -0.4062675 0.0
v 0.2626343 -0.642387 0.0
v -0.4408547 0.6339242 0.0
v 0.3771859 -0.3215968 0.0
v 0.69067 0.491824 0.0
v 0.7468164 0.02186263 0.0
v 0.2360995 -0.5919232 0.0
v 0.5660576 -0.1161189 0.0
v 0.2920654 -0.4355649 0.0
v 0.3245819 -0.5038332 0.0
v 0.8174338 0.06913006 0.0
v 0.5321513 0.5313159 0.0
v -0.4084532 0.4507132 0.0
v 0.7809871 0.4405465 0.0
v 0.2221449 0.4445333 0.0
v 0.2507889 -0.3631475 0.0
v 0.7845882 0.1585654 0.0
v -0.550359 0.4778483 0.0
v -0.1428826 0.495046 0.0
v -0.1222689 0.4101132 0.0
v 0.04065719 0.3556971 0.0
v 0.1192824 -0.6770782 0.0
v 0.1345669 0.4313221 0.0
v 0.6530773 0.0418966 0.0
v 0.5670224 0.2524392 0.0
v 0.4623618 0.4310684 0.0
v -0.0152011 0.3634199 0.0
v 0.3669942 -0.2380831 0.0
v 0.5862033 -0.02568349 0.0
v 0.8078629 0.2315546 0.0
v 0.7212641 0.3515791 0.0
v 0.6926072 0.1236476 0.0
v -0.3346102 0.5637691 0.0
v -0.7863889 0.2294957 0.0
v -0.8111564 0.124422 0.0
v -0.0532846 0.2826098 0.0
v 0.001587103 0.3051518 0.0
v 0.02276188 -0.5581306 0.0
v 0.03988478 -0.4461852 0.0
v 0.1274038 -0.5421217 0.0
v 3.618933e-05 -0.6776433 0.0
v 0.562659 0.05874595 0.0
v -0.2119637 0.4112066 0.0
v 0.1018067 0.3630549 0.0
v 0.256054 -0.2750058 0.0
v -0.1826031 -0.6140724 0.0
v 0.3372976 0.475756 0.0
v 0.6271838 0.1629972 0.0
v -0.5814148 0.5892668 0.0
v 0.5859028 0.4063367 0.0
v -0.7424092 0.1108679 0.0
v -0.35086 0.3001708 0.0
v -0.0412025 -0.5147852 0.0
v 0.3941534 -0.1578824 0.0
v 0.5068766 0.1565819 0.0
v 0.317921 0.376982 0.0
v 0.4554201 0.3102628 0.0
v 0.7971889 0.3592882 0.0
v 0.6877047 0.2397946 0.0
v -0.449462 0.5367906 0.0
v -0.4207184 0.3799981 0.0
v -0.4680447 0.3071534 0.0
v -0.5076788 0.3769745 0.0
v -0.7766642 0.3089591 0.0
v -0.6696709 0.08000533 0.0
v -0.6994587 0.1765526 0.0
v -0.7239177 -0.1241906 0.0
v -0.6107286 -0.1952973 0.0
v -0.2475474 0.2337696 0.0
v 0.02659236 0.2608773 0.0
v -0.03493233 0.1604885 0.0
v 0.03189139 -0.3427065 0.0
v -0.03036885 -0.4075162 0.0
v 0.2563114 -0.5114909 0.0
v 0.4134992 0.03929362 0.0
v -0.2471745 0.5333962 0.0
v -0.3055677 0.3748805 0.0
v -0.689657 0.4810879 0.0
v 0.4194106 0.2202087 0.0
v -0.6237442 -0.01600677 0.0
v -0.6892848 -0.2449901 0.0
v -0.6091603 -0.2965789 0.0
v -0.147238 0.1523431 0.0
v -0.1229682 0.2371396 0.0
v 0.09709406 0.2926787 0.0
v 0.1687506 -0.2165669 0.0
v 0.4880732 -0.05397992 0.0
v 0.2695612 -0.004868308 0.0
v -0.6386967 0.1932824 0.0
v -0.7094913 0.006405843 0.0
v 0.2032484 0.34881 0.0
v -0.2220843 0.09082617 0.0
v -0.3000869 0.1473567 0.0
v -0.3532752 0.07461108 0.0
v 0.1809819 -0.4410557 0.0
v 0.3247283 0.07006209 0.0
v -0.1574017 -0.5258811 0.0
v -0.0993309 -0.6392835 0.0
v -0.4261228 0.2640586 0.0
v -0.5924548 0.3970723 0.0
v -0.6840369 0.3529848 0.0
v -0.7039433 0.2593941 0.0
v 0.2983952 0.2806247 0.0
v 0.03976731 0.1440979 0.0
v -0.1043963 0.07169588 0.0
v -0.3589047 0.2017982 0.0
v -0.2772236 0.05939795 0.0
v 0.1271687 -0.3067051 0.0
v -0.2287077 -0.4597297 0.0
v -0.1604278 0.3117613 0.0
v -0.5580444 0.07033563 0.0
v -0.5919212 0.2961006 0.0
v -0.510734 -0.2033943 0.0
v -0.3417995 -0.0185503 0.0
v -0.1112505 -0.4502274 0.0
v 0.07227644 -0.1845445 0.0
v -0.5412005 0.1707081 0.0
v -0.4740708 0.2325441 0.0
v -0.4400448 0.04668892 0.0
v 0.2424151 -0.1165034 0.0
v 0.391621 0.114781 0.0
v 0.2218584 0.2337521 0.0
v 0.1447499 0.1912464 0.0
v 0.2514571 0.1318347 0.0
v 0.3529034 0.1616333 0.0
v -0.4454894 0.1655608 0.0
v 0.1381886 -0.1163851 0.0
v -0.3048404 -0.4073327 0.0
v -0.2101037 -0.01137358 0.0
v -0.2703662 -0.0957808 0.0
v 0.1210038 0.07265526 0.0
v -0.1104477 -0.3169884 0.0
v -0.5180134 -0.02790663 0.0
v -0.5353771 -0.3563736 0.0
v -0.1409874 -0.1315856 0.0
v 0.00118481 0.003469351 0.0
v -0.1857863 -0.3337262 0.0
v -0.444194 -0.03864551 0.0
v -0.3877487 -0.09152748 0.0
v 0.07056177 -0.06268351 0.0
v -0.1072781 -0.03044933 0.0
v -0.3981817 -0.3823008 0.0
v -0.4625105 -0.1087635 0.0
v 0.1649586 -0.02558833 0.0
v -0.3203656 -0.163882 0.0
v -0.4258341 -0.1701884 0.0
v -0.1979081 -0.187819 0.0
v -0.2551211 -0.2252397 0.0
v -0.06513079 -0.1095821 0.0
v -0.3424797 -0.2273795 0.0
v -0.1580178 -0.2372766 0.0
v -0.04588172 -0.2092828 0.0
v 0.3367189 -0.06773195 0.0
v -0.5833875 -0.1053598 0.0
v -0.4561317 -0.2617605 0.0
v -0.3284223 -0.308641 0.0
f 22 27 18
f 23 5 20
f 23 20 15
f 7 28 107
f 6 7 48
f 18 27 42
f 27 22 12
f 6 48 24
f 30 27 12
f 74 48 7
f 47 41 17
f 32 25 3
f 46 70 32
f 41 64 1
f 15 69 23
f 21 29 30
f 94 30 29
f 58 61 42
f 111 35 43
f 53 5 23
f 80 53 23
f 23 69 80
f 11 46 32
f 36 21 24
f 38 33 80
f 38 80 69
f 51 34 25
f 51 78 34
f 51 25 70
f 49 28 19
f 41 1 17
f 60 42 27
f 30 94 27
f 26 44 19
f 53 16 5
f 65 36 24
f 47 17 40
f 29 21 36
f 79 51 70
f 76 46 67
f 70 45 79
f 67 46 11
f 77 46 76
f 63 40 39
f 17 39 40
f 58 42 60
f 41 90 105
f 43 1 64
f 37 50 79
f 71 54 55
f 32 70 25
f 44 49 19
f 49 62 107
f 2 71 55
f 63 130 40
f 56 47 40
f 43 64 111
f 57 41 47
f 47 56 57
f 135 73 93
f 60 27 94
f 94 115 60
f 74 7 107
f 24 48 65
f 44 62 49
f 49 107 28
f 96 16 53
f 78 51 50
f 79 50 51
f 33 38 83
f 31 37 26
f 37 52 26
f 26 52 44
f 54 9 55
f 40 130 56
f 104 56 130
f 57 56 90
f 41 57 90
f 59 58 60
f 73 58 59
f 59 115 92
f 36 65 128
f 58 73 61
f 39 96 63
f 97 63 96
f 52 79 68
f 38 120 83
f 52 62 44
f 52 68 62
f 70 46 77
f 62 68 75
f 54 122 84
f 105 64 41
f 67 35 76
f 111 76 35
f 65 106 128
f 2 14 110
f 110 71 2
f 110 14 87
f 97 89 130
f 130 63 97
f 72 89 97
f 59 93 73
f 59 92 93
f 90 91 124
f 74 107 173
f 76 123 77
f 79 52 37
f 80 33 53
f 33 96 53
f 33 97 96
f 33 81 97
f 83 82 81
f 33 83 81
f 69 98 38
f 45 77 99
f 45 99 75
f 75 68 45
f 79 45 68
f 85 71 110
f 85 109 86
f 54 71 86
f 85 86 71
f 100 87 174
f 87 100 110
f 87 101 88
f 88 101 102
f 87 88 174
f 89 104 130
f 90 124 105
f 115 59 60
f 94 29 115
f 83 120 132
f 132 82 83
f 86 122 54
f 82 132 138
f 140 65 48
f 92 115 128
f 70 77 45
f 174 153 100
f 85 110 100
f 133 88 102
f 13 129 4
f 104 89 103
f 91 104 103
f 104 91 56
f 125 103 112
f 89 72 126
f 124 143 105
f 117 73 135
f 136 128 106
f 107 95 173
f 117 118 73
f 62 95 107
f 86 109 122
f 111 64 105
f 111 105 142
f 103 125 91
f 103 89 112
f 112 113 127
f 89 113 112
f 127 113 114
f 56 91 90
f 142 105 143
f 128 115 36
f 29 36 115
f 173 140 74
f 108 140 173
f 116 108 173
f 118 117 66
f 66 117 13
f 73 118 61
f 117 129 13
f 99 77 123
f 38 98 120
f 82 138 119
f 119 138 146
f 146 126 119
f 122 132 121
f 121 120 98
f 122 121 84
f 84 121 10
f 98 10 121
f 85 131 109
f 122 109 132
f 111 142 123
f 76 111 123
f 134 149 127
f 124 125 156
f 133 174 88
f 89 126 113
f 113 126 114
f 92 128 136
f 65 140 106
f 74 140 48
f 95 116 173
f 117 135 129
f 75 95 62
f 72 97 81
f 131 85 100
f 153 131 100
f 137 131 139
f 109 137 132
f 93 92 152
f 163 133 166
f 114 134 127
f 134 150 149
f 136 172 92
f 141 116 95
f 129 148 4
f 99 145 75
f 119 72 82
f 72 119 126
f 72 81 82
f 75 145 141
f 109 131 137
f 146 137 139
f 114 126 146
f 137 138 132
f 140 164 147
f 125 124 91
f 174 133 163
f 153 158 139
f 134 114 139
f 146 138 137
f 112 149 125
f 125 149 161
f 127 149 112
f 151 143 124
f 152 135 93
f 95 75 141
f 142 144 145
f 175 102 154
f 143 144 142
f 108 116 144
f 144 116 145
f 141 145 116
f 146 139 114
f 143 151 144
f 172 152 92
f 147 160 136
f 136 160 172
f 140 108 164
f 160 147 164
f 158 134 139
f 162 8 4
f 145 123 142
f 161 156 125
f 169 160 156
f 157 148 129
f 157 129 135
f 135 152 157
f 174 163 153
f 147 106 140
f 4 148 162
f 99 123 145
f 102 175 133
f 166 133 175
f 164 108 144
f 155 161 150
f 150 161 149
f 148 157 176
f 159 163 166
f 164 144 151
f 157 152 171
f 172 171 152
f 155 150 167
f 8 162 154
f 163 158 153
f 134 158 159
f 163 159 158
f 156 161 169
f 155 169 161
f 175 154 162
f 165 159 166
f 159 150 134
f 150 159 165
f 124 156 151
f 151 156 160
f 160 164 151
f 168 170 176
f 160 169 172
f 166 170 165
f 166 175 170
f 175 176 170
f 168 171 167
f 167 150 165
f 167 165 168
f 168 176 157
f 157 171 168
f 168 165 170
f 169 155 172
f 155 171 172
f 176 175 162
f 155 167 171
f 121 132 120
f 147 136 106
f 131 153 139
f 176 162 148
