OFF
176 299 0
0.08313578 0.427672 0 
-0.8155422 0.05258873 0 
0.6245647 0.5938477 0 
-0.3288637 -0.5221943 0 
-0.3597579 0.6883012 0 
0.4413977 -0.3008876 0 
0.4985457 -0.2226721 0 
-0.4531103 -0.4561163 0 
-0.8344501 0.1850236 0 
-0.7577158 0.3960347 0 
0.422579 0.546123 0 
0.2950604 -0.5903831 0 
-0.2381359 -0.5749709 0 
-0.7957844 -0.03108646 0 
-0.5161468 0.7002888 0 
-0.2731168 0.6225254 0 
-0.0153098 0.4325448 0 
0.2236768 -0.6697046 0 
0.6755614 -0.09329954 0 
-0.4480472 0.7236736 0 
0.3615957 -0.4062675 0 
0.2626343 -0.642387 0 
-0.4408547 0.6339242 0 
0.3771859 -0.3215968 0 
0.69067 0.491824 0 
0.7468164 0.02186263 0 
0.2360995 -0.5919232 0 
0.5660576 -0.1161189 0 
0.2920654 -0.4355649 0 
0.3245819 -0.5038332 0 
0.8174338 0.06913006 0 
0.5321513 0.5313159 0 
-0.4084532 0.4507132 0 
0.7809871 0.4405465 0 
0.2221449 0.4445333 0 
0.2507889 -0.3631475 0 
0.7845882 0.1585654 0 
-0.550359 0.4778483 0 
-0.1428826 0.495046 0 
-0.1222689 0.4101132 0 
0.04065719 0.3556971 0 
0.1192824 -0.6770782 0 
0.1345669 0.4313221 0 
0.6530773 0.0418966 0 
0.5670224 0.2524392 0 
0.4623618 0.4310684 0 
-0.0152011 0.3634199 0 
0.3669942 -0.2380831 0 
0.5862033 -0.02568349 0 
0.8078629 0.2315546 0 
0.7212641 0.3515791 0 
0.6926072 0.1236476 0 
-0.3346102 0.5637691 0 
-0.7863889 0.2294957 0 
-0.8111564 0.124422 0 
-0.0532846 0.2826098 0 
0.001587103 0.3051518 0 
0.02276188 -0.5581306 0 
0.03988478 -0.4461852 0 
0.1274038 -0.5421217 0 
3.618933e-05 -0.6776433 0 
0.562659 0.05874595 0 
-0.2119637 0.4112066 0 
0.1018067 0.3630549 0 
0.256054 -0.2750058 0 
-0.1826031 -0.6140724 0 
0.3372976 0.475756 0 
0.6271838 0.1629972 0 
-0.5814148 0.5892668 0 
0.5859028 0.4063367 0 
-0.7424092 0.1108679 0 
-0.35086 0.3001708 0 
-0.0412025 -0.5147852 0 
0.3941534 -0.1578824 0 
0.5068766 0.1565819 0 
0.317921 0.376982 0 
0.4554201 0.3102628 0 
0.7971889 0.3592882 0 
0.6877047 0.2397946 0 
-0.449462 0.5367906 0 
-0.4207184 0.3799981 0 
-0.4680447 0.3071534 0 
-0.5076788 0.3769745 0 
-0.7766642 0.3089591 0 
-0.6696709 0.08000533 0 
-0.6994587 0.1765526 0 
-0.7239177 -0.1241906 0 
-0.6107286 -0.1952973 0 
-0.2475474 0.2337696 0 
0.02659236 0.2608773 0 
-0.03493233 0.1604885 0 
0.03189139 -0.3427065 0 
-0.03036885 -0.4075162 0 
0.2563114 -0.5114909 0 
0.4134992 0.03929362 0 
-0.2471745 0.5333962 0 
-0.3055677 0.3748805 0 
-0.689657 0.4810879 0 
0.4194106 0.2202087 0 
-0.6237442 -0.01600677 0 
-0.6892848 -0.2449901 0 
-0.6091603 -0.2965789 0 
-0.147238 0.1523431 0 
-0.1229682 0.2371396 0 
0.09709406 0.2926787 0 
0.1687506 -0.2165669 0 
0.4880732 -0.05397992 0 
0.2695612 -0.004868308 0 
-0.6386967 0.1932824 0 
-0.7094913 0.006405843 0 
0.2032484 0.34881 0 
-0.2220843 0.09082617 0 
-0.3000869 0.1473567 0 
-0.3532752 0.07461108 0 
0.1809819 -0.4410557 0 
0.3247283 0.07006209 0 
-0.1574017 -0.5258811 0 
-0.0993309 -0.6392835 0 
-0.4261228 0.2640586 0 
-0.5924548 0.3970723 0 
-0.6840369 0.3529848 0 
-0.7039433 0.2593941 0 
0.2983952 0.2806247 0 
0.03976731 0.1440979 0 
-0.1043963 0.07169588 0 
-0.3589047 0.2017982 0 
-0.2772236 0.05939795 0 
0.1271687 -0.3067051 0 
-0.2287077 -0.4597297 0 
-0.1604278 0.3117613 0 
-0.5580444 0.07033563 0 
-0.5919212 0.2961006 0 
-0.510734 -0.2033943 0 
-0.3417995 -0.0185503 0 
-0.1112505 -0.4502274 0 
0.07227644 -0.1845445 0 
-0.5412005 0.1707081 0 
-0.4740708 0.2325441 0 
-0.4400448 0.04668892 0 
0.2424151 -0.1165034 0 
0.391621 0.114781 0 
0.2218584 0.2337521 0 
0.1447499 0.1912464 0 
0.2514571 0.1318347 0 
0.3529034 0.1616333 0 
-0.4454894 0.1655608 0 
0.1381886 -0.1163851 0 
-0.3048404 -0.4073327 0 
-0.2101037 -0.01137358 0 
-0.2703662 -0.0957808 0 
0.1210038 0.07265526 0 
-0.1104477 -0.3169884 0 
-0.5180134 -0.02790663 0 
-0.5353771 -0.3563736 0 
-0.1409874 -0.1315856 0 
0.00118481 0.003469351 0 
-0.1857863 -0.3337262 0 
-0.444194 -0.03864551 0 
-0.3877487 -0.09152748 0 
0.07056177 -0.06268351 0 
-0.1072781 -0.03044933 0 
-0.3981817 -0.3823008 0 
-0.4625105 -0.1087635 0 
0.1649586 -0.02558833 0 
-0.3203656 -0.163882 0 
-0.4258341 -0.1701884 0 
-0.1979081 -0.187819 0 
-0.2551211 -0.2252397 0 
-0.06513079 -0.1095821 0 
-0.3424797 -0.2273795 0 
-0.1580178 -0.2372766 0 
-0.04588172 -0.2092828 0 
0.3367189 -0.06773195 0 
-0.5833875 -0.1053598 0 
-0.4561317 -0.2617605 0 
-0.3284223 -0.308641 0 
3 21 26 17 
3 22 4 19 
3 22 19 14 
3 6 27 106 
3 5 6 47 
3 17 26 41 
3 26 21 11 
3 5 47 23 
3 29 26 11 
3 73 47 6 
3 46 40 16 
3 31 24 2 
3 45 69 31 
3 40 63 0 
3 14 68 22 
3 20 28 29 
3 93 29 28 
3 57 60 41 
3 110 34 42 
3 52 4 22 
3 79 52 22 
3 22 68 79 
3 10 45 31 
3 35 20 23 
3 37 32 79 
3 37 79 68 
3 50 33 24 
3 50 77 33 
3 50 24 69 
3 48 27 18 
3 40 0 16 
3 59 41 26 
3 29 93 26 
3 25 43 18 
3 52 15 4 
3 64 35 23 
3 46 16 39 
3 28 20 35 
3 78 50 69 
3 75 45 66 
3 69 44 78 
3 66 45 10 
3 76 45 75 
3 62 39 38 
3 16 38 39 
3 57 41 59 
3 40 89 104 
3 42 0 63 
3 36 49 78 
3 70 53 54 
3 31 69 24 
3 43 48 18 
3 48 61 106 
3 1 70 54 
3 62 129 39 
3 55 46 39 
3 42 63 110 
3 56 40 46 
3 46 55 56 
3 134 72 92 
3 59 26 93 
3 93 114 59 
3 73 6 106 
3 23 47 64 
3 43 61 48 
3 48 106 27 
3 95 15 52 
3 77 50 49 
3 78 49 50 
3 32 37 82 
3 30 36 25 
3 36 51 25 
3 25 51 43 
3 53 8 54 
3 39 129 55 
3 103 55 129 
3 56 55 89 
3 40 56 89 
3 58 57 59 
3 72 57 58 
3 58 114 91 
3 35 64 127 
3 57 72 60 
3 38 95 62 
3 96 62 95 
3 51 78 67 
3 37 119 82 
3 51 61 43 
3 51 67 61 
3 69 45 76 
3 61 67 74 
3 53 121 83 
3 104 63 40 
3 66 34 75 
3 110 75 34 
3 64 105 127 
3 1 13 109 
3 109 70 1 
3 109 13 86 
3 96 88 129 
3 129 62 96 
3 71 88 96 
3 58 92 72 
3 58 91 92 
3 89 90 123 
3 73 106 172 
3 75 122 76 
3 78 51 36 
3 79 32 52 
3 32 95 52 
3 32 96 95 
3 32 80 96 
3 82 81 80 
3 32 82 80 
3 68 97 37 
3 44 76 98 
3 44 98 74 
3 74 67 44 
3 78 44 67 
3 84 70 109 
3 84 108 85 
3 53 70 85 
3 84 85 70 
3 99 86 173 
3 86 99 109 
3 86 100 87 
3 87 100 101 
3 86 87 173 
3 88 103 129 
3 89 123 104 
3 114 58 59 
3 93 28 114 
3 82 119 131 
3 131 81 82 
3 85 121 53 
3 81 131 137 
3 139 64 47 
3 91 114 127 
3 69 76 44 
3 173 152 99 
3 84 109 99 
3 132 87 101 
3 12 128 3 
3 103 88 102 
3 90 103 102 
3 103 90 55 
3 124 102 111 
3 88 71 125 
3 123 142 104 
3 116 72 134 
3 135 127 105 
3 106 94 172 
3 116 117 72 
3 61 94 106 
3 85 108 121 
3 110 63 104 
3 110 104 141 
3 102 124 90 
3 102 88 111 
3 111 112 126 
3 88 112 111 
3 126 112 113 
3 55 90 89 
3 141 104 142 
3 127 114 35 
3 28 35 114 
3 172 139 73 
3 107 139 172 
3 115 107 172 
3 117 116 65 
3 65 116 12 
3 72 117 60 
3 116 128 12 
3 98 76 122 
3 37 97 119 
3 81 137 118 
3 118 137 145 
3 145 125 118 
3 121 131 120 
3 120 119 97 
3 121 120 83 
3 83 120 9 
3 97 9 120 
3 84 130 108 
3 121 108 131 
3 110 141 122 
3 75 110 122 
3 133 148 126 
3 123 124 155 
3 132 173 87 
3 88 125 112 
3 112 125 113 
3 91 127 135 
3 64 139 105 
3 73 139 47 
3 94 115 172 
3 116 134 128 
3 74 94 61 
3 71 96 80 
3 130 84 99 
3 152 130 99 
3 136 130 138 
3 108 136 131 
3 92 91 151 
3 162 132 165 
3 113 133 126 
3 133 149 148 
3 135 171 91 
3 140 115 94 
3 128 147 3 
3 98 144 74 
3 118 71 81 
3 71 118 125 
3 71 80 81 
3 74 144 140 
3 108 130 136 
3 145 136 138 
3 113 125 145 
3 136 137 131 
3 139 163 146 
3 124 123 90 
3 173 132 162 
3 152 157 138 
3 133 113 138 
3 145 137 136 
3 111 148 124 
3 124 148 160 
3 126 148 111 
3 150 142 123 
3 151 134 92 
3 94 74 140 
3 141 143 144 
3 174 101 153 
3 142 143 141 
3 107 115 143 
3 143 115 144 
3 140 144 115 
3 145 138 113 
3 142 150 143 
3 171 151 91 
3 146 159 135 
3 135 159 171 
3 139 107 163 
3 159 146 163 
3 157 133 138 
3 161 7 3 
3 144 122 141 
3 160 155 124 
3 168 159 155 
3 156 147 128 
3 156 128 134 
3 134 151 156 
3 173 162 152 
3 146 105 139 
3 3 147 161 
3 98 122 144 
3 101 174 132 
3 165 132 174 
3 163 107 143 
3 154 160 149 
3 149 160 148 
3 147 156 175 
3 158 162 165 
3 163 143 150 
3 156 151 170 
3 171 170 151 
3 154 149 166 
3 7 161 153 
3 162 157 152 
3 133 157 158 
3 162 158 157 
3 155 160 168 
3 154 168 160 
3 174 153 161 
3 164 158 165 
3 158 149 133 
3 149 158 164 
3 123 155 150 
3 150 155 159 
3 159 163 150 
3 167 169 175 
3 159 168 171 
3 165 169 164 
3 165 174 169 
3 174 175 169 
3 167 170 166 
3 166 149 164 
3 166 164 167 
3 167 175 156 
3 156 170 167 
3 167 164 169 
3 168 154 171 
3 154 170 171 
3 175 174 161 
3 154 166 170 
3 120 131 119 
3 146 135 105 
3 130 152 138 
3 175 161 147 
